<?xml version="1.0" encoding="UTF-8"?>
<svg id="Layer_2" data-name="Layer 2" xmlns="http://www.w3.org/2000/svg" xmlns:xlink="http://www.w3.org/1999/xlink" viewBox="0 0 8762.35 218.75">
  <defs>
    <style>
      .cls-1, .cls-2, .cls-3, .cls-4, .cls-5, .cls-6, .cls-7, .cls-8 {
        fill: none;
      }

      .cls-1, .cls-2, .cls-3, .cls-4, .cls-5, .cls-7, .cls-8 {
        stroke-miterlimit: 10;
      }

      .cls-1, .cls-4 {
        stroke: #38414e;
      }

      .cls-9 {
        fill: url(#linear-gradient);
      }

      .cls-9, .cls-10, .cls-11, .cls-12, .cls-13, .cls-14, .cls-15, .cls-16, .cls-17, .cls-18, .cls-19, .cls-20, .cls-21 {
        stroke-width: 0px;
      }

      .cls-10 {
        fill: #002648;
      }

      .cls-2, .cls-5, .cls-6 {
        stroke: #000;
      }

      .cls-11 {
        fill: #cdcfd0;
      }

      .cls-12 {
        fill: #4f0104;
      }

      .cls-3 {
        stroke: #cbcdcf;
      }

      .cls-3, .cls-4, .cls-5, .cls-6, .cls-7 {
        stroke-width: 3px;
      }

      .cls-14 {
        fill: #38414e;
      }

      .cls-15 {
        fill: #fff;
      }

      .cls-16 {
        fill: #0f151a;
      }

      .cls-17 {
        fill: url(#linear-gradient-2);
      }

      .cls-6 {
        stroke-linecap: round;
        stroke-linejoin: round;
      }

      .cls-18 {
        fill: #0263a0;
      }

      .cls-19 {
        fill: #ef3824;
      }

      .cls-20 {
        fill: #034684;
      }

      .cls-7 {
        stroke: #ef3824;
      }

      .cls-21 {
        fill: #cbcdcf;
      }

      .cls-8 {
        stroke: #cdcfd0;
      }
    </style>
    <linearGradient id="linear-gradient" x1="8126.1" y1="143.68" x2="7840.14" y2="143.68" gradientUnits="userSpaceOnUse">
      <stop offset="0" stop-color="#fff"/>
      <stop offset="1" stop-color="#034684"/>
    </linearGradient>
    <linearGradient id="linear-gradient-2" x1="636.25" y1="143.68" x2="922.21" y2="143.68" xlink:href="#linear-gradient"/>
  </defs>
  <g id="right-loco">
    <g>
      <rect class="cls-12" x="7840.14" y="176.66" width="39.4" height="24.82"/>
      <path class="cls-19" d="M7840.14,169.7v6.96h39.4l13.18,4.72,19.26.05c3.95-4.45,9.71-7.26,16.12-7.26s12.26,2.85,16.2,7.36l105.34.29c3.95-4.68,9.86-7.65,16.46-7.65s12.6,3.01,16.54,7.75l8.53.02h396.76v-12.24h-647.79Z"/>
      <polygon class="cls-9" points="8126.1 154.17 8126.1 117.66 7840.14 117.66 7840.14 169.7 8126.1 169.7 8126.1 154.17"/>
      <path class="cls-15" d="M8410.61,122.05c3.14-1.08,6.33-2.16,9.54-3.23v-59.04c0-3.87,3.14-7,7-7h-587.01v64.88h285.96v36.51h202.84c20.55-9.05,49.14-20.87,81.67-32.12ZM8154.51,107.88v-7.53c8.35-8,17.25-15.29,27.05-21.47,9.26-5.85,19.13-10.17,29.89-12.36,1.51-.31,3.05-.53,4.58-.79h4.84c.35.1.69.21,1.04.3,3.35.86,4.76,2.89,4.1,6.3-.31,1.62-.96,3.19-1.56,4.74-.13.34-.67.65-1.07.73-6.77,1.24-13.44,2.9-19.98,5.02-7.2,2.34-14.21,5.19-20.78,8.98-3.85,2.21-7.48,4.8-11.21,7.23-.3.2-.56.44-.8.74,14.93-8.26,30.96-12.06,48.11-12.11-.14.39-.18.59-.27.75-4.03,6.82-8.72,13.15-14,19.03-.22.24-.59.42-.92.47-8.11,1.11-16.22,2.18-24.42,2.24-2.62.02-5.24-.31-7.84-.63-1.68-.2-3.24-.8-4.3-2.49-.11,1.28.45,2.05,1.29,2.63,2.02,1.41,4.36,1.93,6.73,2.3,6.16.97,12.38.86,18.6.74,1.61-.03,3.22-.08,4.83-.12h1.1c-.26.38-.37.6-.54.77-3.57,3.36-7.13,6.72-10.72,10.05-.24.22-.72.36-1.04.29-7.06-1.57-14.12-3.16-20.64-6.46-1.24-.63-2.4-1.46-3.47-2.35-1.75-1.46-2.52-3.64-1.08-5.83.08-.11.1-.25.18-.46-2.48,1.61-3.78,4.44-1.77,6.99,1.03,1.32,2.32,2.5,3.69,3.48,3.61,2.56,7.69,4.21,11.8,5.79,2.03.78,4.1,1.47,6.15,2.21.28.1.54.22.83.34-.05.15-.06.26-.11.3-3.29,2.56-6.68,4.95-10.84,5.93-4.02.94-7.37-.14-10.04-3.32-3.5-4.17-5.32-9.1-6.33-14.36-.44-2.34-.62-4.73-.93-7.1-.04-.32-.1-.64-.15-.97ZM8201.12,127.95c-.15-3.17.24-6.25,2.24-8.85,2.4-3.12,5.62-4.81,9.6-4.99,1.52-.07,3.01.02,4.47.27,1.51.25,3,.68,4.45,1.3.3.12.79,0,1.1-.16.58-.3,1.07-.78,1.64-1.08,1.07-.57,1.87-.21,2.18.97.16.63.21,1.3.22,1.95.01,5.25.03,10.51,0,15.77,0,1.55.51,2.65,2.05,3.18.25.09.59.5.55.67-.09.32-.37.69-.67.84-2.13,1.06-5.43.01-6.61-2.06-.24-.41-.44-.84-.6-1.12-1.6,1.06-2.99,2.33-4.63,3.01-8.11,3.36-15.66-2.83-15.99-9.7ZM8241.55,138.25c-5.92-1.3-9.94-6.27-8.97-13.51.91-6.81,7.2-10.72,12.84-10.47,2.86.13,5.55.79,8.14,1.94,1.75.77,1.93,1.14,1.42,3.27-.37-.2-.73-.37-1.07-.57-2.47-1.54-5.13-2.49-8.07-2.15-3.72.44-7.2,3.35-7.55,8.49-.25,3.58.81,6.53,3.85,8.62,1.22.83,2.57,1.25,4.05,1.25,2.69.01,5.21-.59,7.47-2.11.12-.08.25-.16.39-.22.08-.03.17-.03.47-.09.1.92.22,1.82.26,2.72,0,.18-.3.41-.51.57-2,1.53-4.3,2.29-6.78,2.57-.33.03-.65.11-.97.17h-1.97c-1-.16-2.01-.27-3-.48ZM8259.42,129.13c-1.15-8.66,4.12-14.3,11.74-14.85,1.93-.14,3.82-.09,5.66.51,2.66.86,4.52,2.62,5.67,5.14.92,2.01,1.3,4.15,1.48,6.34.06.63-.24.86-.83.85-1.58,0-3.16.01-4.75.01h-12.1c-1.17,0-1.32.18-1.04,1.33.78,3.32,3.71,7.36,9.45,6.59,2.08-.27,4.02-.87,5.78-2.03.19-.13.41-.2.82-.4.13.99.28,1.85.32,2.72,0,.21-.31.49-.53.66-1.98,1.5-4.26,2.24-6.7,2.55-.33.04-.64.12-.97.18h-2.15c-1.06-.18-2.13-.28-3.17-.55-4.74-1.23-8.03-4.15-8.68-9.05ZM8288.96,107.11c-.05-2.36,2.49-4.56,5.09-4.44.74.04.74.55.74,1.08v33.36c0,1.27-.04,1.31-1.31,1.32-1.13,0-2.27-.04-3.4.01-.82.02-1.09-.32-1.09-1.12.03-3.4,0-6.81,0-10.22,0-6.66.09-13.33-.04-19.99ZM8299.43,127.47c-.08-3.01.33-5.95,2.25-8.4,2.37-3.02,5.51-4.71,9.37-4.95,1.67-.11,3.31-.02,4.91.28,1.43.26,2.83.68,4.19,1.28.52.23.87.15,1.29-.21.47-.4,1-.76,1.55-1.05,1.02-.53,1.84-.19,2.13.94.19.74.28,1.53.28,2.3.03,5.17.05,10.34,0,15.51-.02,1.57.48,2.65,2.04,3.16.25.08.59.48.55.67-.05.29-.34.63-.62.77-2.03,1.09-5.38.13-6.6-1.86-.28-.45-.51-.93-.79-1.44-.76.64-1.43,1.28-2.17,1.83-3.68,2.71-7.71,3.08-11.76,1.15-4.09-1.96-6.5-5.29-6.62-9.98Z"/>
      <path class="cls-18" d="M7840.14,42.3v10.48h647.79s.26-4.47.28-10.48h-648.07Z"/>
      <polygon class="cls-18" points="7840.14 34.3 7840.14 42.3 8359.33 42.3 8359.33 37.38 8359.33 34.3 8208.05 34.3 8037.28 34.3 7840.14 34.3"/>
      <path class="cls-18" d="M7840.14.25v34.05h197.14V.25h-13.33s1.01,18.48-10.48,18.48l-32,.2s-10.87,1.85-10.87-18.68h-130.46Z"/>
      <path class="cls-13" d="M7911.98,181.43c-3.37,3.8-5.42,8.81-5.42,14.28,0,11.9,9.65,21.54,21.54,21.54,9.07,0,16.84-5.61,20.01-13.55.29-.72.54-1.46.75-2.22.51-1.84.78-3.77.78-5.77,0-5.43-2.01-10.39-5.34-14.18l-32.32-.1ZM7923.1,195.71c0-2.76,2.24-5,5-5s5,2.24,5,5-2.24,5-5,5-5-2.24-5-5Z"/>
      <path class="cls-19" d="M7911.98,181.43l32.32.1c-3.94-4.51-9.74-7.36-16.2-7.36s-12.17,2.81-16.12,7.26Z"/>
      <circle class="cls-11" cx="7928.1" cy="195.71" r="5"/>
      <path class="cls-16" d="M8049.64,181.82l-105.34-.29c3.33,3.79,5.34,8.75,5.34,14.18,0,2-.27,3.93-.78,5.77h96.49c-.52-1.84-.79-3.77-.79-5.77,0-5.29,1.91-10.14,5.08-13.89Z"/>
      <rect class="cls-14" x="8037.28" y="3.74" width="170.77" height="30.56"/>
      <path class="cls-18" d="M8037.28.25v3.49h170.77V.25h-170.77Z"/>
      <path class="cls-13" d="M8044.56,195.71c0,2,.27,3.93.79,5.77,2.51,9.1,10.86,15.77,20.75,15.77,9.07,0,16.84-5.61,20.01-13.55.99-2.47,1.53-5.17,1.53-7.99,0-5.24-1.88-10.05-5-13.79l-33-.1c-3.17,3.75-5.08,8.6-5.08,13.89ZM8061.1,195.71c0-2.76,2.24-5,5-5s5,2.24,5,5-2.24,5-5,5-5-2.24-5-5Z"/>
      <path class="cls-19" d="M8049.64,181.82l33,.1c-3.94-4.74-9.89-7.75-16.54-7.75s-12.51,2.97-16.46,7.65Z"/>
      <circle class="cls-11" cx="8066.1" cy="195.71" r="5"/>
      <polygon class="cls-12" points="8091.17 181.94 8103.33 201.48 8379.23 201.48 8393.02 181.94 8091.17 181.94"/>
      <path class="cls-15" d="M8126.1,154.17v15.53h169.42s12.57-6.34,33.42-15.53h-202.84Z"/>
      <path class="cls-10" d="M8154.51,100.35v7.53c.05.33.11.65.15.97.31,2.37.49,4.76.93,7.1,1.01,5.26,2.83,10.19,6.33,14.36,2.67,3.18,6.02,4.26,10.04,3.32,4.16-.98,7.55-3.37,10.84-5.93.05-.04.06-.15.11-.3-.29-.12-.55-.24-.83-.34-2.05-.74-4.12-1.43-6.15-2.21-4.11-1.58-8.19-3.23-11.8-5.79-1.37-.98-2.66-2.16-3.69-3.48-2.01-2.55-.71-5.38,1.77-6.99-.08.21-.1.35-.18.46-1.44,2.19-.67,4.37,1.08,5.83,1.07.89,2.23,1.72,3.47,2.35,6.52,3.3,13.58,4.89,20.64,6.46.32.07.8-.07,1.04-.29,3.59-3.33,7.15-6.69,10.72-10.05.17-.17.28-.39.54-.77h-1.1c-1.61.04-3.22.09-4.83.12-6.22.12-12.44.23-18.6-.74-2.37-.37-4.71-.89-6.73-2.3-.84-.58-1.4-1.35-1.29-2.63,1.06,1.69,2.62,2.29,4.3,2.49,2.6.32,5.22.65,7.84.63,8.2-.06,16.31-1.13,24.42-2.24.33-.05.7-.23.92-.47,5.28-5.88,9.97-12.21,14-19.03.09-.16.13-.36.27-.75-17.15.05-33.18,3.85-48.11,12.11.24-.3.5-.54.8-.74,3.73-2.43,7.36-5.02,11.21-7.23,6.57-3.79,13.58-6.64,20.78-8.98,6.54-2.12,13.21-3.78,19.98-5.02.4-.08.94-.39,1.07-.73.6-1.55,1.25-3.12,1.56-4.74.66-3.41-.75-5.44-4.1-6.3-.35-.09-.69-.2-1.04-.3h-4.84c-1.53.26-3.07.48-4.58.79-10.76,2.19-20.63,6.51-29.89,12.36-9.8,6.18-18.7,13.47-27.05,21.47Z"/>
      <path class="cls-10" d="M8203.36,119.1c-2,2.6-2.39,5.68-2.24,8.85.33,6.87,7.88,13.06,15.99,9.7,1.64-.68,3.03-1.95,4.63-3.01l-1.68-2.08c-.95.91-1.98,1.67-3.29,2.03-3.03.82-5.46-.15-7.63-2.3-3.66-3.63-3.27-13.21,3.84-15.41,1.39-.43,2.75-.52,4.08-.33l.37-2.17c-1.46-.25-2.95-.34-4.47-.27-3.98.18-7.2,1.87-9.6,4.99Z"/>
      <rect class="cls-14" x="8208.05" y="3.74" width="151.28" height="30.56"/>
      <path class="cls-18" d="M8208.05.25v3.49h151.28V.25h-151.28Z"/>
      <path class="cls-15" d="M8212.98,116.88c-7.11,2.2-7.5,11.78-3.84,15.41,2.17,2.15,4.6,3.12,7.63,2.3,1.31-.36,2.34-1.12,3.29-2.03l.4-.4c.86-.89,1.23-1.88,1.15-3.14-.1-1.46-.02-2.93-.02-4.39h0c0-1.82.04-3.65-.03-5.46,0-.43-.3-1.03-.64-1.23-1.24-.71-2.53-1.19-3.85-1.39-1.33-.19-2.69-.1-4.08.33Z"/>
      <path class="cls-10" d="M8217.43,114.38l-.37,2.17c1.32.2,2.61.68,3.85,1.39.34.2.63.8.64,1.23.07,1.81.03,3.64.03,5.46h0c0,1.46-.08,2.93.02,4.39.08,1.26-.29,2.25-1.15,3.14l-.4.4,1.68,2.08c.16.28.36.71.6,1.12,1.18,2.07,4.48,3.12,6.61,2.06.3-.15.58-.52.67-.84.04-.17-.3-.58-.55-.67-1.54-.53-2.06-1.63-2.05-3.18.03-5.26.01-10.52,0-15.77,0-.65-.06-1.32-.22-1.95-.31-1.18-1.11-1.54-2.18-.97-.57.3-1.06.78-1.64,1.08-.31.16-.8.28-1.1.16-1.45-.62-2.94-1.05-4.45-1.3Z"/>
      <path class="cls-10" d="M8232.58,124.74c-.97,7.24,3.05,12.21,8.97,13.51.99.21,2,.32,3,.48h1.97c.32-.06.64-.14.97-.17,2.48-.28,4.78-1.04,6.78-2.57.21-.16.52-.39.51-.57-.04-.9-.16-1.8-.26-2.72-.3.06-.39.06-.47.09-.14.06-.27.14-.39.22-2.26,1.52-4.78,2.12-7.47,2.11-1.48,0-2.83-.42-4.05-1.25-3.04-2.09-4.1-5.04-3.85-8.62.35-5.14,3.83-8.05,7.55-8.49,2.94-.34,5.6.61,8.07,2.15.34.2.7.37,1.07.57.51-2.13.33-2.5-1.42-3.27-2.59-1.15-5.28-1.81-8.14-1.94-5.64-.25-11.93,3.66-12.84,10.47Z"/>
      <path class="cls-10" d="M8271.16,114.28c-7.62.55-12.89,6.19-11.74,14.85.65,4.9,3.94,7.82,8.68,9.05,1.04.27,2.11.37,3.17.55h2.15c.33-.06.64-.14.97-.18,2.44-.31,4.72-1.05,6.7-2.55.22-.17.54-.45.53-.66-.04-.87-.19-1.73-.32-2.72-.41.2-.63.27-.82.4-1.76,1.16-3.7,1.76-5.78,2.03-5.74.77-8.67-3.27-9.45-6.59-.28-1.15-.13-1.33,1.04-1.33h12.1c1.59,0,3.17-.01,4.75-.01.59.01.89-.22.83-.85-.18-2.19-.56-4.33-1.48-6.34-1.15-2.52-3.01-4.28-5.67-5.14-1.84-.6-3.73-.65-5.66-.51ZM8266.44,123.96c-1.03,0-1.18-.2-.89-1.18,1.33-4.5,5.28-6.36,9.74-5.03,2.16.65,3.99,3.37,4.06,5.58.02.66-.4.63-.82.63-2.03.01-4.06.01-6.09.01s-4,0-6-.01Z"/>
      <path class="cls-15" d="M8265.55,122.78c-.29.98-.14,1.18.89,1.18,2,.01,4,.01,6,.01s4.06,0,6.09-.01c.42,0,.84.03.82-.63-.07-2.21-1.9-4.93-4.06-5.58-4.46-1.33-8.41.53-9.74,5.03Z"/>
      <path class="cls-10" d="M8294.05,102.67c-2.6-.12-5.14,2.08-5.09,4.44.13,6.66.04,13.33.04,19.99,0,3.41.02,6.82,0,10.22,0,.8.27,1.14,1.09,1.12,1.13-.05,2.27-.01,3.4-.01,1.27-.01,1.31-.05,1.31-1.32v-33.36c0-.53,0-1.04-.74-1.08Z"/>
      <path class="cls-21" d="M8456.77,107.47c-3.09.88-6.17,1.78-9.23,2.69v29.78h-.1c-.55,3.32-3.43,5.85-6.9,5.85h-13.39c-3.86,0-7-3.14-7-7v-19.97c-3.21,1.07-6.4,2.15-9.54,3.23-32.53,11.25-61.12,23.07-81.67,32.12-20.85,9.19-33.42,15.53-33.42,15.53h190.55c.62-.14,1.24-.27,1.86-.39v-69.97c-10.49,2.47-20.91,5.21-31.16,8.13ZM8420.15,152.35v-4h27.39v4h-27.39ZM8423.1,166.51v-8.11h19.41v8.11h-19.41Z"/>
      <path class="cls-10" d="M8301.68,119.07c-1.92,2.45-2.33,5.39-2.25,8.4.12,4.69,2.53,8.02,6.62,9.98,4.05,1.93,8.08,1.56,11.76-1.15.74-.55,1.41-1.19,2.17-1.83l-1.66-1.83c-2.14,2.02-4.65,2.84-7.49,1.87-3.02-1.04-4.75-3.32-5.44-6.39-.39-1.78-.2-3.58.29-5.32,1.24-4.48,5.2-6.91,9.89-6.15l.39-2.25c-1.6-.3-3.24-.39-4.91-.28-3.86.24-7,1.93-9.37,4.95Z"/>
      <path class="cls-15" d="M8305.68,122.8c-.49,1.74-.68,3.54-.29,5.32.69,3.07,2.42,5.35,5.44,6.39,2.84.97,5.35.15,7.49-1.87,1.04-.97,1.73-2.05,1.58-3.6-.14-1.48-.03-2.99-.03-4.48,0-1.76-.03-3.53,0-5.29.02-.76-.25-1.27-.95-1.53-.92-.34-1.83-.78-2.78-.98-.19-.04-.38-.08-.58-.11-4.69-.76-8.65,1.67-9.89,6.15Z"/>
      <path class="cls-10" d="M8315.96,114.4l-.39,2.25c.2.03.39.07.58.11.95.2,1.86.64,2.78.98.7.26.97.77.95,1.53-.04,1.76,0,3.53,0,5.29,0,1.49-.11,3,.03,4.48.15,1.55-.54,2.63-1.58,3.6l1.66,1.83c.28.51.51.99.79,1.44,1.22,1.99,4.57,2.95,6.6,1.86.28-.14.57-.48.62-.77.04-.19-.3-.59-.55-.67-1.56-.51-2.06-1.59-2.04-3.16.05-5.17.03-10.34,0-15.51,0-.77-.09-1.56-.28-2.3-.29-1.13-1.11-1.47-2.13-.94-.55.29-1.08.65-1.55,1.05-.42.36-.77.44-1.29.21-1.36-.6-2.76-1.02-4.19-1.28Z"/>
      <path class="cls-18" d="M8359.33,37.38v4.92h128.88c0-1.55,0-3.21-.05-4.92h-128.83Z"/>
      <path class="cls-18" d="M8359.33,34.3v3.08h128.83c-.19-9.36-1.14-20.27-4.23-24.33-20.34-7.96-36.52-12.8-45.83-12.8h-78.77v34.05ZM8368.25,32.91V3.74h50.06l20,29.17h-70.06Z"/>
      <polygon class="cls-14" points="8368.25 3.74 8368.25 32.91 8438.31 32.91 8418.31 3.74 8368.25 3.74"/>
      <path class="cls-13" d="M8443.86,201.48c.51-1.84.78-3.77.78-5.77,0-5.24-1.87-10.04-4.98-13.77h-33.18v.07c-3.07,3.72-4.92,8.5-4.92,13.7,0,11.9,9.65,21.54,21.54,21.54,9.07,0,16.84-5.61,20.01-13.55.29-.72.54-1.46.75-2.22ZM8418.75,195.71c0-2.76,2.24-5,5-5s5,2.24,5,5-2.24,5-5,5-5-2.24-5-5Z"/>
      <circle class="cls-11" cx="8423.75" cy="195.71" r="5"/>
      <rect class="cls-13" x="8420.15" y="148.35" width="27.39" height="4"/>
      <path class="cls-21" d="M8420.15,118.82v19.97c0,3.86,3.14,7,7,7h13.39c3.47,0,6.35-2.53,6.9-5.85h-7.31c-2.76,0-5-2.24-5-5v-8.46c0-2.76,2.24-5,5-5h7.41v-11.32c-9.33,2.78-18.49,5.68-27.39,8.66Z"/>
      <path class="cls-15" d="M8420.15,59.78v59.04c8.9-2.98,18.06-5.88,27.39-8.66v-7.63h-7.41c-2.76,0-5-2.24-5-5v-8.46c0-2.76,2.24-5,5-5h7.41v-24.29c0-3.87-3.14-7-7-7h-13.39c-3.86,0-7,3.13-7,7Z"/>
      <rect class="cls-13" x="8423.1" y="158.4" width="19.41" height="8.11"/>
      <path class="cls-21" d="M8435.13,126.48v8.46c0,2.76,2.24,5,5,5h7.31c.07-.37.1-.76.1-1.15v-17.31h-7.41c-2.76,0-5,2.24-5,5Z"/>
      <path class="cls-15" d="M8435.13,89.07v8.46c0,2.76,2.24,5,5,5h7.41v-18.46h-7.41c-2.76,0-5,2.24-5,5Z"/>
      <path class="cls-16" d="M8487.93,181.94h-48.27c3.11,3.73,4.98,8.53,4.98,13.77,0,2-.27,3.93-.78,5.77h114.88c-.52-1.84-.79-3.77-.79-5.77,0-4.8,1.57-9.24,4.23-12.82v-.16c-19.73-.49-44.02-.79-73.93-.79h-.32Z"/>
      <path class="cls-15" d="M8456.77,107.47c10.25-2.92,20.67-5.66,31.16-8.13v-46.56h-47.39c3.86,0,7,3.13,7,7v50.38c3.06-.91,6.14-1.81,9.23-2.69ZM8466.64,80.17v-6.38c0-2.21,1.79-4,4-4h9.29c2.21,0,4,1.79,4,4v6.38c0,2.21-1.79,4-4,4h-9.29c-2.21,0-4-1.79-4-4Z"/>
      <rect class="cls-13" x="8466.64" y="69.79" width="17.29" height="14.38" rx="4" ry="4"/>
      <path class="cls-14" d="M8487.93,169.7v12.24h.32c29.91,0,54.2.3,73.93.79,7.79.19,14.87.41,21.31.65l3.96-22.83c-10.63-.39-21.76-.37-33.34.17-7.78.37-15.76.97-23.93,1.84-13.58,1.45-27.69,3.64-42.25,6.75v.39Z"/>
      <path class="cls-21" d="M8487.93,99.34v69.97c14.56-3.11,28.67-5.3,42.25-6.75v-13c0-3.93,3.46-3.77,3.46-3.77h16.23c5.08,0,4.23,3.46,4.23,3.46v11.47c11.59-.54,22.72-.56,33.35-.17,21.24.79,40.49,3.21,57.38,6.39l1.72-5,13.26-38.48,7.34-21.3s-.06-.03-.09-.05c-20.95-10.53-46.06-15.25-73.19-15.89-.1-.01-.21-.01-.31-.01-16.37-.37-33.49.75-50.87,2.97-18.13,2.32-36.56,5.85-54.76,10.16ZM8495.49,114.02c0-.55.44-1,1-1s1,.45,1,1-.45,1-1,1-1-.45-1-1ZM8495.49,142.63c0-.55.44-1,1-1s1,.45,1,1-.45,1-1,1-1-.44-1-1ZM8501.33,121.48v-16.92h25.08v16.92h-25.08ZM8643.49,139.17s-19.08-1.84-15.7-10.84c3.39-9,20.85,0,20.85,0l-5.15,10.84Z"/>
      <path class="cls-15" d="M8487.93,52.78v46.56c18.2-4.31,36.63-7.84,54.76-10.16v-.07c-6.73.89-13.26,1.1-17.3,1.5-13.35,1.35-12.52-3.75-12.52-3.75v-25.69s-.23-5.38,6.23-5.38c.81,0,1.83.09,3.03.26l.11-.78c-10.22-1.51-21.63-2.49-34.03-2.49h-.28ZM8493.95,68.48c0-2.8,2.27-5.08,5.07-5.08s5.08,2.28,5.08,5.08-2.27,5.08-5.08,5.08-5.07-2.28-5.07-5.08ZM8495.49,58.4c0-.55.44-1,1-1s1,.45,1,1-.45,1-1,1-1-.44-1-1ZM8495.49,86.33c0-.56.44-1,1-1s1,.44,1,1-.45,1-1,1-1-.45-1-1Z"/>
      <path class="cls-18" d="M8487.93,52.78h.28c12.4,0,23.81.98,34.03,2.49,34.41,5.09,55.32,16.21,55.32,16.21l16.31,14.66v.08c27.13.64,52.24,5.36,73.19,15.89-59.32-31.68-133.56-69.65-183.13-89.06,3.09,4.06,4.04,14.97,4.23,24.33.04,1.71.05,3.37.05,4.92-.02,6.01-.28,10.48-.28,10.48Z"/>
      <path class="cls-15" d="M8499.02,63.4c-2.8,0-5.07,2.28-5.07,5.08s2.27,5.08,5.07,5.08,5.08-2.28,5.08-5.08-2.27-5.08-5.08-5.08Z"/>
      <circle class="cls-15" cx="8496.49" cy="58.4" r="1"/>
      <circle class="cls-15" cx="8496.49" cy="86.33" r="1"/>
      <circle class="cls-21" cx="8496.49" cy="114.02" r="1"/>
      <circle class="cls-21" cx="8496.49" cy="142.63" r="1"/>
      <polygon class="cls-19" points="8501.33 104.56 8501.33 121.48 8526.41 121.48 8526.41 113.71 8514.56 113.71 8514.56 104.56 8501.33 104.56"/>
      <path class="cls-13" d="M8512.87,86.86s-.83,5.1,12.52,3.75c4.04-.4,10.57-.61,17.29-1.5,11.96-1.59,24.5-5.33,24.5-16.17,0,0,.44-3.77-8.93-7-10.78-3.72-27.72-8.7-36.12-9.89-1.2-.17-2.22-.26-3.03-.26-6.46,0-6.23,5.38-6.23,5.38v25.69ZM8521.49,85.33v-23l20.68,5.53v14l-10.34,3.47h-10.34ZM8549.41,81.86v-14l13.84,6.08-8.61,7.92h-5.23Z"/>
      <rect class="cls-18" x="8514.56" y="104.56" width="11.85" height="9.15"/>
      <polygon class="cls-14" points="8521.49 62.33 8521.49 85.33 8531.83 85.33 8542.17 81.86 8542.17 67.86 8521.49 62.33"/>
      <path class="cls-15" d="M8522.24,55.27l-.11.78c8.4,1.19,25.34,6.17,36.12,9.89,9.37,3.23,8.93,7,8.93,7,0,10.84-12.54,14.58-24.5,16.17v.07c17.39-2.22,34.51-3.34,50.88-2.97.1,0,.21,0,.31.01v-.08l-16.31-14.66s-20.91-11.12-55.32-16.21Z"/>
      <path class="cls-11" d="M8530.18,149.56v13c8.17-.87,16.15-1.47,23.93-1.84v-.17s0-11.3,0-11.3c0,0,.85-3.46-4.23-3.46h-16.23s-3.46-.16-3.46,3.77Z"/>
      <polygon class="cls-14" points="8549.41 67.86 8549.41 81.86 8554.64 81.86 8563.25 73.94 8549.41 67.86"/>
      <path class="cls-13" d="M8558.74,201.48c.2.76.45,1.5.74,2.22,3.17,7.94,10.93,13.55,20.01,13.55,11.89,0,21.53-9.64,21.53-21.54,0-4.18-1.19-8.08-3.25-11.38l.02-.32c-4.37-.22-9.13-.43-14.3-.63-6.44-.24-13.52-.46-21.31-.65v.16c-2.66,3.58-4.23,8.02-4.23,12.82,0,2,.27,3.93.79,5.77ZM8574.49,195.71c0-2.76,2.23-5,5-5s5,2.24,5,5-2.24,5-5,5-5-2.24-5-5Z"/>
      <circle class="cls-11" cx="8579.49" cy="195.71" r="5"/>
      <path class="cls-14" d="M8587.45,160.55l-3.96,22.83c5.17.2,9.93.41,14.3.63,48.11,2.42,49.7,6.09,49.7,6.09h3.43l9.35-19.92c-4.9-1.14-10.05-2.23-15.44-3.24-16.89-3.18-36.14-5.6-57.38-6.39Z"/>
      <path class="cls-11" d="M8627.79,128.33c-3.38,9,15.7,10.84,15.7,10.84l5.15-10.84s-17.46-9-20.85,0Z"/>
      <path class="cls-21" d="M8646.55,161.94l-1.72,5c5.39,1.01,10.54,2.1,15.44,3.24,39.67,9.21,62.75,21.53,62.75,21.53,0,0,8.16-5.77,23.08-5.77s16-2.61,16-31.69c0,0-41.38-23.47-94.95-52.09l-7.34,21.3s27.6,4.64,23.75,16.94c-3.84,12.31-6.77,21.54-6.77,21.54,0,0-1.95,11.62-30.24,0Z"/>
      <path class="cls-21" d="M8659.81,123.46l-13.26,38.48c28.29,11.62,30.24,0,30.24,0,0,0,2.93-9.23,6.77-21.54,3.85-12.3-23.75-16.94-23.75-16.94Z"/>
      <polygon class="cls-13" points="8647.49 190.1 8647.49 201.48 8723.02 201.48 8709.69 190.1 8650.92 190.1 8647.49 190.1"/>
      <path class="cls-14" d="M8660.27,170.18l-9.35,19.92h58.77l13.33,11.38v-9.77s-23.08-12.32-62.75-21.53Z"/>
    </g>
    <g>
      <polyline class="cls-4" points="7840.14 .25 7840.14 34.3 7840.14 42.3 7840.14 52.78 7840.14 117.66 7840.14 169.7"/>
      <path class="cls-2" d="M8487.93,52.78s.26-4.47.28-10.48c0-1.55,0-3.21-.05-4.92-.19-9.36-1.14-20.27-4.23-24.33"/>
      <polyline class="cls-2" points="8644.83 166.94 8646.55 161.94 8659.81 123.46 8667.15 102.16"/>
      <line class="cls-2" x1="8650.92" y1="190.1" x2="8660.27" y2="170.18"/>
      <path class="cls-2" d="M8646.55,161.94c28.29,11.62,30.24,0,30.24,0,0,0,2.93-9.23,6.77-21.54,3.85-12.3-23.75-16.94-23.75-16.94"/>
      <path class="cls-2" d="M8648.64,128.33s-17.46-9-20.85,0c-3.38,9,15.7,10.84,15.7,10.84l5.15-10.84Z"/>
      <path class="cls-2" d="M8554.1,160.55v-11.3s.85-3.46-4.23-3.46h-16.23s-3.46-.16-3.46,3.77v13"/>
      <path class="cls-8" d="M8504.1,68.48c0-2.8-2.27-5.08-5.08-5.08s-5.07,2.28-5.07,5.08,2.27,5.08,5.07,5.08,5.08-2.28,5.08-5.08Z"/>
      <polygon class="cls-2" points="8368.25 3.74 8418.31 3.74 8438.31 32.91 8368.25 32.91 8368.25 3.74"/>
      <polyline class="cls-2" points="8488.21 42.3 8359.33 42.3 7840.14 42.3"/>
      <polyline class="cls-2" points="8359.33 .25 8359.33 3.74 8359.33 34.3 8359.33 37.38 8359.33 42.3"/>
      <line class="cls-2" x1="8488.16" y1="37.38" x2="8359.33" y2="37.38"/>
      <polyline class="cls-2" points="8359.33 34.3 8208.05 34.3 8037.28 34.3 8037.28 3.74 8037.28 .25"/>
      <polyline class="cls-2" points="8208.05 .25 8208.05 3.74 8208.05 34.3"/>
      <polyline class="cls-7" points="8403.28 154.17 8328.94 154.17 8126.1 154.17 7852.87 154.17"/>
      <path class="cls-3" d="M8439.66,181.94c3.11,3.73,4.98,8.53,4.98,13.77,0,2-.27,3.93-.78,5.77-.21.76-.46,1.5-.75,2.22-3.17,7.94-10.94,13.55-20.01,13.55-11.89,0-21.54-9.64-21.54-21.54,0-5.2,1.85-9.98,4.92-13.7"/>
      <path class="cls-3" d="M8597.77,184.33c2.06,3.3,3.25,7.2,3.25,11.38,0,11.9-9.64,21.54-21.53,21.54-9.08,0-16.84-5.61-20.01-13.55-.29-.72-.54-1.46-.74-2.22-.52-1.84-.79-3.77-.79-5.77,0-4.8,1.57-9.24,4.23-12.82"/>
      <path class="cls-3" d="M8082.64,181.92c3.12,3.74,5,8.55,5,13.79,0,2.82-.54,5.52-1.53,7.99-3.17,7.94-10.94,13.55-20.01,13.55-9.89,0-18.24-6.67-20.75-15.77-.52-1.84-.79-3.77-.79-5.77,0-5.29,1.91-10.14,5.08-13.89"/>
      <path class="cls-3" d="M7944.3,181.53c3.33,3.79,5.34,8.75,5.34,14.18,0,2-.27,3.93-.78,5.77-.21.76-.46,1.5-.75,2.22-3.17,7.94-10.94,13.55-20.01,13.55-11.89,0-21.54-9.64-21.54-21.54,0-5.47,2.05-10.48,5.42-14.28"/>
      <line class="cls-2" x1="8587.45" y1="160.55" x2="8583.49" y2="183.38"/>
      <polyline class="cls-1" points="8456.77 71.94 8456.77 107.47 8456.77 145.79"/>
      <polyline class="cls-1" points="8410.61 71.94 8410.61 122.05 8410.61 145.79"/>
      <path class="cls-1" d="M8447.54,138.79c0,.39-.03.78-.1,1.15-.55,3.32-3.43,5.85-6.9,5.85h-13.39c-3.86,0-7-3.14-7-7V59.78c0-3.87,3.14-7,7-7h13.39c3.86,0,7,3.13,7,7v24.29"/>
      <polyline class="cls-1" points="8447.54 102.53 8447.54 110.16 8447.54 121.48"/>
      <path class="cls-1" d="M8447.54,121.48h-7.41c-2.76,0-5,2.24-5,5v8.46c0,2.76,2.24,5,5,5h7.41v-18.46Z"/>
      <path class="cls-1" d="M8447.54,84.07h-7.41c-2.76,0-5,2.24-5,5v8.46c0,2.76,2.24,5,5,5h7.41v-18.46Z"/>
    </g>
  </g>
  <g id="right-cars">
    <g>
      <rect class="cls-12" x="5539.18" y="176.66" width="77.23" height="24.82"/>
      <rect class="cls-19" x="5539.18" y="169.7" width="77.23" height="6.96"/>
      <path class="cls-20" d="M5539.18,117.36v52.34h1051.07l57.89.04,33.19-33.18v-19.2h-36.15v31.43c0,2.76-2.24,5-5,5h-46.93c-2.76,0-5-2.24-5-5v-31.43h-1049.07Z"/>
      <path class="cls-15" d="M5539.18,52.78v64.58h1049.07V52.78h-1049.07ZM5629.64,99.04v-31.23c0-2.76,2.24-5,5-5h74.1c2.76,0,5,2.24,5,5v31.23c0,2.77-2.24,5-5,5h-74.1c-2.76,0-5-2.23-5-5ZM5765.15,99.04v-31.23c0-2.76,2.24-5,5-5h74.1c2.77,0,5,2.24,5,5v31.23c0,2.77-2.23,5-5,5h-74.1c-2.76,0-5-2.23-5-5ZM5879.38,99.04v-31.23c0-2.76,2.24-5,5-5h74.11c2.76,0,5,2.24,5,5v31.23c0,2.77-2.24,5-5,5h-74.11c-2.76,0-5-2.23-5-5ZM5994.18,99.04v-31.23c0-2.76,2.24-5,5-5h74.1c2.76,0,5,2.24,5,5v31.23c0,2.77-2.24,5-5,5h-74.1c-2.76,0-5-2.23-5-5ZM6108.25,99.04v-31.23c0-2.76,2.24-5,5-5h74.11c2.76,0,5,2.24,5,5v31.23c0,2.77-2.24,5-5,5h-74.11c-2.76,0-5-2.23-5-5ZM6220.77,98.74v-31.23c0-2.77,2.24-5,5-5h74.1c2.76,0,5,2.23,5,5v31.23c0,2.76-2.24,5-5,5h-74.1c-2.76,0-5-2.24-5-5ZM6334.23,98.74v-31.23c0-2.77,2.24-5,5-5h74.1c2.76,0,5,2.23,5,5v31.23c0,2.76-2.24,5-5,5h-74.1c-2.76,0-5-2.24-5-5Z"/>
      <path class="cls-18" d="M5539.18.25v52.53h1049.07v-13.68c0-2.77,2.24-5,5-5h46.93c2.76,0,5,2.23,5,5v13.68h36.15V.25h-1142.15Z"/>
      <path class="cls-16" d="M5616.41,176.66v24.82h10.61l.74-.2c-.48-1.78-.74-3.65-.74-5.57,0-8.26,4.66-15.44,11.48-19.05h-22.09Z"/>
      <path class="cls-16" d="M5616.41,169.7v6.96h22.09c3-1.59,6.43-2.49,10.06-2.49s7.06.9,10.06,2.49h136.88c3-1.59,6.43-2.49,10.06-2.49s7.06.9,10.06,2.49h23.25v-6.96h-222.46Z"/>
      <path class="cls-13" d="M5627.02,195.71c0,1.92.26,3.79.74,5.57.21.83.48,1.64.79,2.42,3.18,7.94,10.94,13.55,20.01,13.55,9.9,0,18.24-6.67,20.75-15.77.52-1.84.79-3.77.79-5.77,0-8.26-4.65-15.44-11.48-19.05h-20.12c-6.82,3.61-11.48,10.79-11.48,19.05ZM5643.56,195.71c0-2.76,2.24-5,5-5s5,2.24,5,5-2.24,5-5,5-5-2.24-5-5Z"/>
      <path class="cls-14" d="M5629.64,67.81v31.23c0,2.77,2.24,5,5,5h74.1c2.76,0,5-2.23,5-5v-31.23c0-2.76-2.24-5-5-5h-74.1c-2.76,0-5,2.24-5,5Z"/>
      <path class="cls-13" d="M5638.5,176.66h20.12c-3-1.59-6.43-2.49-10.06-2.49s-7.06.9-10.06,2.49Z"/>
      <circle class="cls-11" cx="5648.56" cy="195.71" r="5"/>
      <path class="cls-16" d="M5795.5,176.66h-136.88c6.83,3.61,11.48,10.79,11.48,19.05,0,2-.27,3.93-.79,5.77h114.71l.74-.2c-.48-1.78-.74-3.65-.74-5.57,0-8.26,4.66-15.44,11.48-19.05Z"/>
      <path class="cls-14" d="M5765.15,67.81v31.23c0,2.77,2.24,5,5,5h74.1c2.77,0,5-2.23,5-5v-31.23c0-2.76-2.23-5-5-5h-74.1c-2.76,0-5,2.24-5,5Z"/>
      <path class="cls-13" d="M5784.02,195.71c0,1.92.26,3.79.74,5.57.21.83.48,1.64.79,2.42,3.18,7.94,10.94,13.55,20.01,13.55,10.18,0,18.7-7.05,20.95-16.54.39-1.6.59-3.28.59-5,0-8.26-4.65-15.44-11.48-19.05h-20.12c-6.82,3.61-11.48,10.79-11.48,19.05ZM5800.56,195.71c0-2.76,2.24-5,5-5s5,2.24,5,5-2.24,5-5,5-5-2.24-5-5Z"/>
      <path class="cls-13" d="M5795.5,176.66h20.12c-3-1.59-6.43-2.49-10.06-2.49s-7.06.9-10.06,2.49Z"/>
      <circle class="cls-11" cx="5805.56" cy="195.71" r="5"/>
      <path class="cls-16" d="M5838.87,176.66h-23.25c6.83,3.61,11.48,10.79,11.48,19.05,0,1.72-.2,3.4-.59,5h29.07l-16.71-13.79v-10.26Z"/>
      <polygon class="cls-12" points="5855.58 200.71 5856.51 201.48 6590.25 201.48 6590.25 176.66 5838.87 176.66 5838.87 186.92 5855.58 200.71"/>
      <rect class="cls-19" x="5838.87" y="169.7" width="751.38" height="6.96"/>
      <path class="cls-14" d="M5879.38,67.81v31.23c0,2.77,2.24,5,5,5h74.11c2.76,0,5-2.23,5-5v-31.23c0-2.76-2.24-5-5-5h-74.11c-2.76,0-5,2.24-5,5Z"/>
      <path class="cls-14" d="M5994.18,67.81v31.23c0,2.77,2.24,5,5,5h74.1c2.76,0,5-2.23,5-5v-31.23c0-2.76-2.24-5-5-5h-74.1c-2.76,0-5,2.24-5,5Z"/>
      <path class="cls-14" d="M6108.25,67.81v31.23c0,2.77,2.24,5,5,5h74.11c2.76,0,5-2.23,5-5v-31.23c0-2.76-2.24-5-5-5h-74.11c-2.76,0-5,2.24-5,5Z"/>
      <path class="cls-14" d="M6220.77,67.51v31.23c0,2.76,2.24,5,5,5h74.1c2.76,0,5-2.24,5-5v-31.23c0-2.77-2.24-5-5-5h-74.1c-2.76,0-5,2.23-5,5Z"/>
      <path class="cls-14" d="M6334.23,67.51v31.23c0,2.76,2.24,5,5,5h74.1c2.76,0,5-2.24,5-5v-31.23c0-2.77-2.24-5-5-5h-74.1c-2.76,0-5,2.23-5,5Z"/>
      <path class="cls-21" d="M6588.25,117.36v31.43c0,2.76,2.24,5,5,5h46.93c2.76,0,5-2.24,5-5V39.1c0-2.77-2.24-5-5-5h-46.93c-2.76,0-5,2.23-5,5v78.26ZM6598.95,98.79v-46.46h35.38v46.46h-35.38Z"/>
      <path class="cls-16" d="M6590.25,176.66v24.82h6.44c-.51-1.84-.78-3.77-.78-5.77,0-11.89,9.64-21.54,21.54-21.54s21.54,9.65,21.54,21.54c0,2-.27,3.93-.79,5.77h95.49c-.51-1.84-.78-3.77-.78-5.77,0-11.89,9.64-21.54,21.54-21.54s21.54,9.65,21.54,21.54c0,2-.27,3.93-.79,5.77h6.21v-31.78l-57.89.04h-75.38l-57.89-.04v6.96Z"/>
      <path class="cls-13" d="M6595.91,195.71c0,2,.27,3.93.78,5.77.21.76.46,1.5.75,2.22,3.17,7.94,10.93,13.55,20.01,13.55,9.89,0,18.24-6.67,20.75-15.77.52-1.84.79-3.77.79-5.77,0-11.89-9.65-21.54-21.54-21.54s-21.54,9.65-21.54,21.54ZM6612.45,195.71c0-2.76,2.24-5,5-5s5,2.24,5,5-2.24,5-5,5-5-2.24-5-5Z"/>
      <rect class="cls-14" x="6598.95" y="52.33" width="35.38" height="46.46"/>
      <circle class="cls-11" cx="6617.45" cy="195.71" r="5"/>
      <rect class="cls-15" x="6645.18" y="52.78" width="36.15" height="64.58"/>
      <path class="cls-20" d="M6690.33,117.36v19.2l33.19,33.18,57.89-.04h1051.08v-52.34h-1049.08v31.43c0,2.76-2.24,5-5,5h-46.92c-2.77,0-5-2.24-5-5v-31.43h-36.16Z"/>
      <rect class="cls-15" x="6690.33" y="52.78" width="36.16" height="64.58"/>
      <path class="cls-18" d="M6690.33.25v52.53h36.16v-13.68c0-2.77,2.23-5,5-5h46.92c2.76,0,5,2.23,5,5v13.68h1049.08V.25h-1142.16Z"/>
      <path class="cls-21" d="M6726.49,117.36v31.43c0,2.76,2.23,5,5,5h46.92c2.76,0,5-2.24,5-5V39.1c0-2.77-2.24-5-5-5h-46.92c-2.77,0-5,2.23-5,5v78.26ZM6737.33,98.79v-46.46h35.39v46.46h-35.39Z"/>
      <path class="cls-13" d="M6732.91,195.71c0,2,.27,3.93.78,5.77.21.76.46,1.5.75,2.22,3.17,7.94,10.93,13.55,20.01,13.55,9.89,0,18.24-6.67,20.75-15.77.52-1.84.79-3.77.79-5.77,0-11.89-9.65-21.54-21.54-21.54s-21.54,9.65-21.54,21.54ZM6749.45,195.71c0-2.76,2.24-5,5-5s5,2.24,5,5-2.24,5-5,5-5-2.24-5-5Z"/>
      <rect class="cls-14" x="6737.33" y="52.33" width="35.39" height="46.46"/>
      <circle class="cls-11" cx="6754.45" cy="195.71" r="5"/>
      <polygon class="cls-12" points="7516.08 200.71 7532.79 186.92 7532.79 176.66 6781.41 176.66 6781.41 201.48 7515.15 201.48 7516.08 200.71"/>
      <rect class="cls-19" x="6781.41" y="169.7" width="751.38" height="6.96"/>
      <path class="cls-15" d="M6783.41,52.78v64.58h1049.08V52.78h-1049.08ZM6953.33,98.74v-31.23c0-2.77,2.24-5,5-5h74.1c2.77,0,5,2.23,5,5v31.23c0,2.76-2.23,5-5,5h-74.1c-2.76,0-5-2.24-5-5ZM7066.79,98.74v-31.23c0-2.77,2.24-5,5-5h74.11c2.76,0,5,2.23,5,5v31.23c0,2.76-2.24,5-5,5h-74.11c-2.76,0-5-2.24-5-5ZM7179.31,99.04v-31.23c0-2.76,2.23-5,5-5h74.1c2.76,0,5,2.24,5,5v31.23c0,2.77-2.24,5-5,5h-74.1c-2.77,0-5-2.23-5-5ZM7293.38,99.04v-31.23c0-2.76,2.24-5,5-5h74.11c2.76,0,5,2.24,5,5v31.23c0,2.77-2.24,5-5,5h-74.11c-2.76,0-5-2.23-5-5ZM7408.18,99.04v-31.23c0-2.76,2.24-5,5-5h74.1c2.76,0,5,2.24,5,5v31.23c0,2.77-2.24,5-5,5h-74.1c-2.76,0-5-2.23-5-5ZM7522.41,99.04v-31.23c0-2.76,2.24-5,5-5h74.1c2.76,0,5,2.24,5,5v31.23c0,2.77-2.24,5-5,5h-74.1c-2.76,0-5-2.23-5-5ZM7657.92,99.04v-31.23c0-2.76,2.24-5,5-5h74.1c2.77,0,5,2.24,5,5v31.23c0,2.77-2.23,5-5,5h-74.1c-2.76,0-5-2.23-5-5Z"/>
      <path class="cls-14" d="M6953.33,67.51v31.23c0,2.76,2.24,5,5,5h74.1c2.77,0,5-2.24,5-5v-31.23c0-2.77-2.23-5-5-5h-74.1c-2.76,0-5,2.23-5,5Z"/>
      <path class="cls-14" d="M7066.79,67.51v31.23c0,2.76,2.24,5,5,5h74.11c2.76,0,5-2.24,5-5v-31.23c0-2.77-2.24-5-5-5h-74.11c-2.76,0-5,2.23-5,5Z"/>
      <path class="cls-14" d="M7179.31,67.81v31.23c0,2.77,2.23,5,5,5h74.1c2.76,0,5-2.23,5-5v-31.23c0-2.76-2.24-5-5-5h-74.1c-2.77,0-5,2.24-5,5Z"/>
      <path class="cls-14" d="M7293.38,67.81v31.23c0,2.77,2.24,5,5,5h74.11c2.76,0,5-2.23,5-5v-31.23c0-2.76-2.24-5-5-5h-74.11c-2.76,0-5,2.24-5,5Z"/>
      <path class="cls-14" d="M7408.18,67.81v31.23c0,2.77,2.24,5,5,5h74.1c2.76,0,5-2.23,5-5v-31.23c0-2.76-2.24-5-5-5h-74.1c-2.76,0-5,2.24-5,5Z"/>
      <path class="cls-16" d="M7516.08,200.71h29.07c-.39-1.6-.59-3.28-.59-5,0-8.26,4.66-15.44,11.48-19.05h-23.25v10.26l-16.71,13.79Z"/>
      <path class="cls-14" d="M7522.41,67.81v31.23c0,2.77,2.24,5,5,5h74.1c2.76,0,5-2.23,5-5v-31.23c0-2.76-2.24-5-5-5h-74.1c-2.76,0-5,2.24-5,5Z"/>
      <path class="cls-16" d="M7532.79,169.7v6.96h23.25c3-1.59,6.43-2.49,10.06-2.49s7.06.9,10.06,2.49h136.88c3-1.59,6.43-2.49,10.06-2.49s7.06.9,10.06,2.49h22.09v-6.96h-222.46Z"/>
      <path class="cls-13" d="M7544.56,195.71c0,1.72.2,3.4.59,5,2.25,9.49,10.78,16.54,20.95,16.54,9.07,0,16.84-5.61,20.01-13.55.31-.78.58-1.59.8-2.41.48-1.78.73-3.65.73-5.58,0-8.26-4.65-15.44-11.48-19.05h-20.12c-6.82,3.61-11.48,10.79-11.48,19.05ZM7561.1,195.71c0-2.76,2.24-5,5-5s5,2.24,5,5-2.24,5-5,5-5-2.24-5-5Z"/>
      <path class="cls-13" d="M7556.04,176.66h20.12c-3-1.59-6.43-2.49-10.06-2.49s-7.06.9-10.06,2.49Z"/>
      <circle class="cls-11" cx="7566.1" cy="195.71" r="5"/>
      <path class="cls-16" d="M7713.04,176.66h-136.88c6.83,3.61,11.48,10.79,11.48,19.05,0,1.93-.25,3.8-.73,5.58l.73.19h114.71c-.52-1.84-.79-3.77-.79-5.77,0-8.26,4.66-15.44,11.48-19.05Z"/>
      <path class="cls-14" d="M7657.92,67.81v31.23c0,2.77,2.24,5,5,5h74.1c2.77,0,5-2.23,5-5v-31.23c0-2.76-2.23-5-5-5h-74.1c-2.76,0-5,2.24-5,5Z"/>
      <path class="cls-13" d="M7701.56,195.71c0,2,.27,3.93.79,5.77,2.51,9.1,10.86,15.77,20.75,15.77,9.07,0,16.84-5.61,20.01-13.55.31-.78.58-1.59.8-2.41.48-1.78.73-3.65.73-5.58,0-8.26-4.65-15.44-11.48-19.05h-20.12c-6.82,3.61-11.48,10.79-11.48,19.05ZM7718.1,195.71c0-2.76,2.24-5,5-5s5,2.24,5,5-2.24,5-5,5-5-2.24-5-5Z"/>
      <path class="cls-13" d="M7713.04,176.66h20.12c-3-1.59-6.43-2.49-10.06-2.49s-7.06.9-10.06,2.49Z"/>
      <circle class="cls-11" cx="7723.1" cy="195.71" r="5"/>
      <path class="cls-16" d="M7755.25,176.66h-22.09c6.83,3.61,11.48,10.79,11.48,19.05,0,1.93-.25,3.8-.73,5.58l.73.19h10.61v-24.82Z"/>
      <rect class="cls-12" x="7755.25" y="176.66" width="77.24" height="24.82"/>
      <rect class="cls-19" x="7755.25" y="169.7" width="77.24" height="6.96"/>
    </g>
    <g>
      <polyline class="cls-4" points="7832.49 .25 7832.49 52.78 7832.49 117.36 7832.49 169.7"/>
      <polyline class="cls-4" points="6690.33 136.56 6690.33 117.36 6690.33 52.78 6690.33 .25"/>
      <path class="cls-5" d="M7662.92,62.81h74.1c2.77,0,5,2.24,5,5v31.23c0,2.77-2.23,5-5,5h-74.1c-2.76,0-5-2.23-5-5v-31.23c0-2.76,2.24-5,5-5Z"/>
      <path class="cls-6" d="M7527.41,62.81h74.1c2.76,0,5,2.24,5,5v31.23c0,2.77-2.24,5-5,5h-74.1c-2.76,0-5-2.23-5-5v-31.23c0-2.76,2.24-5,5-5Z"/>
      <path class="cls-6" d="M7413.18,62.81h74.1c2.76,0,5,2.24,5,5v31.23c0,2.77-2.24,5-5,5h-74.1c-2.76,0-5-2.23-5-5v-31.23c0-2.76,2.24-5,5-5Z"/>
      <path class="cls-6" d="M7184.31,62.81h74.1c2.76,0,5,2.24,5,5v31.23c0,2.77-2.24,5-5,5h-74.1c-2.77,0-5-2.23-5-5v-31.23c0-2.76,2.23-5,5-5Z"/>
      <path class="cls-6" d="M7298.38,62.81h74.11c2.76,0,5,2.24,5,5v31.23c0,2.77-2.24,5-5,5h-74.11c-2.76,0-5-2.23-5-5v-31.23c0-2.76,2.24-5,5-5Z"/>
      <path class="cls-6" d="M7071.79,62.51h74.11c2.76,0,5,2.23,5,5v31.23c0,2.76-2.24,5-5,5h-74.11c-2.76,0-5-2.24-5-5v-31.23c0-2.77,2.24-5,5-5Z"/>
      <path class="cls-6" d="M6958.33,62.51h74.1c2.77,0,5,2.23,5,5v31.23c0,2.76-2.23,5-5,5h-74.1c-2.76,0-5-2.24-5-5v-31.23c0-2.77,2.24-5,5-5Z"/>
      <path class="cls-3" d="M7733.16,176.66c6.83,3.61,11.48,10.79,11.48,19.05,0,1.93-.25,3.8-.73,5.58-.22.82-.49,1.63-.8,2.41-3.17,7.94-10.94,13.55-20.01,13.55-9.89,0-18.24-6.67-20.75-15.77-.52-1.84-.79-3.77-.79-5.77,0-8.26,4.66-15.44,11.48-19.05,3-1.59,6.43-2.49,10.06-2.49s7.06.9,10.06,2.49Z"/>
      <path class="cls-3" d="M7576.16,176.66c6.83,3.61,11.48,10.79,11.48,19.05,0,1.93-.25,3.8-.73,5.58-.22.82-.49,1.63-.8,2.41-3.17,7.94-10.94,13.55-20.01,13.55-10.17,0-18.7-7.05-20.95-16.54-.39-1.6-.59-3.28-.59-5,0-8.26,4.66-15.44,11.48-19.05,3-1.59,6.43-2.49,10.06-2.49s7.06.9,10.06,2.49Z"/>
      <polyline class="cls-4" points="5539.18 .25 5539.18 52.78 5539.18 117.36 5539.18 169.7"/>
      <polyline class="cls-4" points="6681.33 136.56 6681.33 117.36 6681.33 52.78 6681.33 .25"/>
      <path class="cls-6" d="M5708.74,62.81h-74.1c-2.76,0-5,2.24-5,5v31.23c0,2.77,2.24,5,5,5h74.1c2.76,0,5-2.23,5-5v-31.23c0-2.76-2.24-5-5-5Z"/>
      <path class="cls-6" d="M5844.25,62.81h-74.1c-2.76,0-5,2.24-5,5v31.23c0,2.77,2.24,5,5,5h74.1c2.77,0,5-2.23,5-5v-31.23c0-2.76-2.23-5-5-5Z"/>
      <path class="cls-6" d="M5958.49,62.81h-74.11c-2.76,0-5,2.24-5,5v31.23c0,2.77,2.24,5,5,5h74.11c2.76,0,5-2.23,5-5v-31.23c0-2.76-2.24-5-5-5Z"/>
      <path class="cls-6" d="M6187.36,62.81h-74.11c-2.76,0-5,2.24-5,5v31.23c0,2.77,2.24,5,5,5h74.11c2.76,0,5-2.23,5-5v-31.23c0-2.76-2.24-5-5-5Z"/>
      <path class="cls-6" d="M6073.28,62.81h-74.1c-2.76,0-5,2.24-5,5v31.23c0,2.77,2.24,5,5,5h74.1c2.76,0,5-2.23,5-5v-31.23c0-2.76-2.24-5-5-5Z"/>
      <path class="cls-6" d="M6299.87,62.51h-74.1c-2.76,0-5,2.23-5,5v31.23c0,2.76,2.24,5,5,5h74.1c2.76,0,5-2.24,5-5v-31.23c0-2.77-2.24-5-5-5Z"/>
      <path class="cls-6" d="M6413.33,62.51h-74.1c-2.76,0-5,2.23-5,5v31.23c0,2.76,2.24,5,5,5h74.1c2.76,0,5-2.24,5-5v-31.23c0-2.77-2.24-5-5-5Z"/>
      <path class="cls-3" d="M5638.5,176.66c-6.82,3.61-11.48,10.79-11.48,19.05,0,1.92.26,3.79.74,5.57.21.83.48,1.64.79,2.42,3.18,7.94,10.94,13.55,20.01,13.55,9.9,0,18.24-6.67,20.75-15.77.52-1.84.79-3.77.79-5.77,0-8.26-4.65-15.44-11.48-19.05-3-1.59-6.43-2.49-10.06-2.49s-7.06.9-10.06,2.49Z"/>
      <path class="cls-3" d="M5795.5,176.66c-6.82,3.61-11.48,10.79-11.48,19.05,0,1.92.26,3.79.74,5.57.21.83.48,1.64.79,2.42,3.18,7.94,10.94,13.55,20.01,13.55,10.18,0,18.7-7.05,20.95-16.54.39-1.6.59-3.28.59-5,0-8.26-4.65-15.44-11.48-19.05-3-1.59-6.43-2.49-10.06-2.49s-7.06.9-10.06,2.49Z"/>
      <path class="cls-3" d="M6638.2,201.48c.52-1.84.79-3.77.79-5.77,0-11.89-9.65-21.54-21.54-21.54s-21.54,9.65-21.54,21.54c0,2,.27,3.93.78,5.77.21.76.46,1.5.75,2.22,3.17,7.94,10.93,13.55,20.01,13.55,9.89,0,18.24-6.67,20.75-15.77Z"/>
      <path class="cls-3" d="M6775.2,201.48c.52-1.84.79-3.77.79-5.77,0-11.89-9.65-21.54-21.54-21.54s-21.54,9.65-21.54,21.54c0,2,.27,3.93.78,5.77.21.76.46,1.5.75,2.22,3.17,7.94,10.93,13.55,20.01,13.55,9.89,0,18.24-6.67,20.75-15.77Z"/>
    </g>
  </g>
  <g id="middle-cars">
    <g>
      <path class="cls-13" d="M3335.19,176.66h20.11c-2.99-1.59-6.42-2.49-10.05-2.49s-7.06.9-10.06,2.49Z"/>
      <path class="cls-13" d="M3323.71,195.71c0,1.93.25,3.8.73,5.58.22.82.49,1.63.8,2.41,3.17,7.94,10.93,13.55,20.01,13.55,9.89,0,18.22-6.68,20.74-15.77.52-1.84.79-3.77.79-5.77,0-8.27-4.65-15.44-11.48-19.05h-20.11c-6.83,3.61-11.48,10.78-11.48,19.05ZM3340.25,195.71c0-2.76,2.24-5,5-5s5,2.24,5,5-2.24,5-5,5-5-2.24-5-5Z"/>
      <path class="cls-13" d="M3492.19,176.66h20.11c-2.99-1.59-6.42-2.49-10.05-2.49s-7.06.9-10.06,2.49Z"/>
      <path class="cls-13" d="M3480.71,195.71c0,1.93.25,3.8.73,5.58.22.82.49,1.63.8,2.41,3.17,7.94,10.93,13.55,20.01,13.55,10.17,0,18.69-7.06,20.94-16.54.39-1.6.59-3.28.59-5,0-8.27-4.65-15.44-11.48-19.05h-20.11c-6.83,3.61-11.48,10.78-11.48,19.05ZM3497.25,195.71c0-2.76,2.24-5,5-5s5,2.24,5,5-2.24,5-5,5-5-2.24-5-5Z"/>
      <circle class="cls-11" cx="3345.25" cy="195.71" r="5"/>
      <circle class="cls-11" cx="3502.25" cy="195.71" r="5"/>
      <path class="cls-13" d="M4429.59,195.71c0,2,.28,3.93.79,5.77.2.76.45,1.5.74,2.22,3.18,7.94,10.94,13.55,20.01,13.55,9.9,0,18.23-6.68,20.75-15.77.52-1.84.79-3.77.79-5.77,0-11.9-9.64-21.54-21.54-21.54s-21.54,9.64-21.54,21.54ZM4446.13,195.71c0-2.76,2.24-5,5-5s5,2.24,5,5-2.24,5-5,5-5-2.24-5-5Z"/>
      <path class="cls-13" d="M4292.59,195.71c0,2,.28,3.93.79,5.77.2.76.45,1.5.74,2.22,3.18,7.94,10.94,13.55,20.01,13.55,9.9,0,18.23-6.68,20.75-15.77.52-1.84.79-3.77.79-5.77,0-11.9-9.64-21.54-21.54-21.54s-21.54,9.64-21.54,21.54ZM4309.13,195.71c0-2.76,2.24-5,5-5s5,2.24,5,5-2.24,5-5,5-5-2.24-5-5Z"/>
      <path class="cls-16" d="M4286.94,176.66v24.82h6.44c-.51-1.84-.79-3.77-.79-5.77,0-11.9,9.65-21.54,21.54-21.54s21.54,9.64,21.54,21.54c0,2-.27,3.93-.79,5.77h95.5c-.51-1.84-.79-3.77-.79-5.77,0-11.9,9.65-21.54,21.54-21.54s21.54,9.64,21.54,21.54c0,2-.27,3.93-.79,5.77h6.21v-31.78l-57.89.04h-75.37l-57.89-.04v6.96Z"/>
      <path class="cls-16" d="M3535.55,176.66h-23.25c6.83,3.61,11.48,10.78,11.48,19.05,0,1.72-.2,3.4-.59,5h29.08l-16.72-13.8v-10.25Z"/>
      <path class="cls-16" d="M3313.09,169.7v6.96h22.1c3-1.59,6.43-2.49,10.06-2.49s7.06.9,10.05,2.49h136.89c3-1.59,6.43-2.49,10.06-2.49s7.06.9,10.05,2.49h23.25v-6.96h-222.46Z"/>
      <path class="cls-16" d="M3313.09,176.66v24.82h10.62l.73-.19c-.48-1.78-.73-3.65-.73-5.58,0-8.27,4.65-15.44,11.48-19.05h-22.1Z"/>
      <path class="cls-16" d="M3492.19,176.66h-136.89c6.83,3.61,11.48,10.78,11.48,19.05,0,2-.27,3.93-.79,5.77h114.72l.73-.19c-.48-1.78-.73-3.65-.73-5.58,0-8.27,4.65-15.44,11.48-19.05Z"/>
      <rect class="cls-14" x="3326.32" y="62.81" width="84.11" height="41.23" rx="5" ry="5"/>
      <path class="cls-14" d="M3461.84,67.81v31.23c0,2.76,2.23,5,5,5h74.1c2.76,0,5-2.24,5-5v-31.23c0-2.76-2.24-5-5-5h-74.1c-2.77,0-5,2.24-5,5Z"/>
      <rect class="cls-14" x="3576.07" y="62.81" width="84.1" height="41.23" rx="5" ry="5"/>
      <path class="cls-14" d="M3690.86,67.81v31.23c0,2.76,2.24,5,5,5h74.1c2.77,0,5-2.24,5-5v-31.23c0-2.76-2.23-5-5-5h-74.1c-2.76,0-5,2.24-5,5Z"/>
      <rect class="cls-14" x="3804.94" y="62.81" width="84.1" height="41.23" rx="5" ry="5"/>
      <path class="cls-14" d="M3917.45,67.5v31.23c0,2.77,2.24,5,5,5h74.1c2.77,0,5-2.23,5-5v-31.23c0-2.76-2.23-5-5-5h-74.1c-2.76,0-5,2.24-5,5Z"/>
      <path class="cls-14" d="M4030.91,67.5v31.23c0,2.77,2.24,5,5,5h74.11c2.76,0,5-2.23,5-5v-31.23c0-2.76-2.24-5-5-5h-74.11c-2.76,0-5,2.24-5,5Z"/>
      <rect class="cls-15" x="4341.86" y="52.78" width="36.16" height="64.58"/>
      <path class="cls-15" d="M3235.86,52.78v64.58h1049.08V52.78h-1049.08ZM3326.32,99.04v-31.23c0-2.76,2.24-5,5-5h74.11c2.76,0,5,2.24,5,5v31.23c0,2.76-2.24,5-5,5h-74.11c-2.76,0-5-2.24-5-5ZM3461.84,99.04v-31.23c0-2.76,2.23-5,5-5h74.1c2.76,0,5,2.24,5,5v31.23c0,2.76-2.24,5-5,5h-74.1c-2.77,0-5-2.24-5-5ZM3576.07,99.04v-31.23c0-2.76,2.24-5,5-5h74.1c2.76,0,5,2.24,5,5v31.23c0,2.76-2.24,5-5,5h-74.1c-2.76,0-5-2.24-5-5ZM3690.86,99.04v-31.23c0-2.76,2.24-5,5-5h74.1c2.77,0,5,2.24,5,5v31.23c0,2.76-2.23,5-5,5h-74.1c-2.76,0-5-2.24-5-5ZM3804.94,99.04v-31.23c0-2.76,2.24-5,5-5h74.1c2.76,0,5,2.24,5,5v31.23c0,2.76-2.24,5-5,5h-74.1c-2.76,0-5-2.24-5-5ZM3917.45,98.73v-31.23c0-2.76,2.24-5,5-5h74.1c2.77,0,5,2.24,5,5v31.23c0,2.77-2.23,5-5,5h-74.1c-2.76,0-5-2.23-5-5ZM4030.91,98.73v-31.23c0-2.76,2.24-5,5-5h74.11c2.76,0,5,2.24,5,5v31.23c0,2.77-2.24,5-5,5h-74.11c-2.76,0-5-2.23-5-5Z"/>
      <path class="cls-18" d="M3235.86.25v52.53h1049.08v-13.69c0-2.76,2.24-5,5-5h46.92c2.76,0,5,2.24,5,5v13.69h36.16V.25h-1142.16Z"/>
      <path class="cls-20" d="M3235.86,117.36v52.34h1051.08l57.89.04,33.19-33.18v-19.2h-36.16v31.43c0,2.76-2.24,5-5,5h-46.92c-2.76,0-5-2.24-5-5v-31.43h-1049.08Z"/>
      <rect class="cls-19" x="3235.86" y="169.7" width="77.23" height="6.96"/>
      <rect class="cls-19" x="3535.55" y="169.7" width="751.39" height="6.96"/>
      <polygon class="cls-12" points="3552.27 200.71 3553.2 201.48 4286.94 201.48 4286.94 176.66 3535.55 176.66 3535.55 186.91 3552.27 200.71"/>
      <rect class="cls-12" x="3235.86" y="176.66" width="77.23" height="24.82"/>
      <rect class="cls-14" x="4295.63" y="52.32" width="35.39" height="46.47"/>
      <path class="cls-21" d="M4284.94,117.36v31.43c0,2.76,2.24,5,5,5h46.92c2.76,0,5-2.24,5-5V39.09c0-2.76-2.24-5-5-5h-46.92c-2.76,0-5,2.24-5,5v78.27ZM4295.63,98.79v-46.47h35.39v46.47h-35.39Z"/>
      <circle class="cls-11" cx="4314.13" cy="195.71" r="5"/>
      <circle class="cls-11" cx="4451.13" cy="195.71" r="5"/>
      <path class="cls-20" d="M4387.02,117.36v19.2l33.18,33.18,57.89-.04h1051.08v-52.34h-1049.08v31.43c0,2.76-2.24,5-5,5h-46.92c-2.76,0-5-2.24-5-5v-31.43h-36.15Z"/>
      <rect class="cls-15" x="4387.02" y="52.78" width="36.15" height="64.58"/>
      <path class="cls-18" d="M4387.02.25v52.53h36.15v-13.69c0-2.76,2.24-5,5-5h46.92c2.76,0,5,2.24,5,5v13.69h1049.08V.25h-1142.15Z"/>
      <path class="cls-21" d="M4423.17,117.36v31.43c0,2.76,2.24,5,5,5h46.92c2.76,0,5-2.24,5-5V39.09c0-2.76-2.24-5-5-5h-46.92c-2.76,0-5,2.24-5,5v78.27ZM4434.02,98.79v-46.47h35.38v46.47h-35.38Z"/>
      <rect class="cls-14" x="4434.02" y="52.32" width="35.38" height="46.47"/>
      <polygon class="cls-12" points="5212.77 200.71 5229.48 186.91 5229.48 176.66 4478.09 176.66 4478.09 201.48 5211.84 201.48 5212.77 200.71"/>
      <rect class="cls-19" x="4478.09" y="169.7" width="751.39" height="6.96"/>
      <path class="cls-15" d="M4480.09,52.78v64.58h1049.08V52.78h-1049.08ZM4650.02,98.73v-31.23c0-2.76,2.23-5,5-5h74.1c2.76,0,5,2.24,5,5v31.23c0,2.77-2.24,5-5,5h-74.1c-2.77,0-5-2.23-5-5ZM4763.48,98.73v-31.23c0-2.76,2.24-5,5-5h74.1c2.76,0,5,2.24,5,5v31.23c0,2.77-2.24,5-5,5h-74.1c-2.76,0-5-2.23-5-5ZM4875.99,99.04v-31.23c0-2.76,2.24-5,5-5h74.1c2.76,0,5,2.24,5,5v31.23c0,2.76-2.24,5-5,5h-74.1c-2.76,0-5-2.24-5-5ZM4990.07,99.04v-31.23c0-2.76,2.24-5,5-5h74.1c2.76,0,5,2.24,5,5v31.23c0,2.76-2.24,5-5,5h-74.1c-2.76,0-5-2.24-5-5ZM5104.86,99.04v-31.23c0-2.76,2.24-5,5-5h74.1c2.77,0,5,2.24,5,5v31.23c0,2.76-2.23,5-5,5h-74.1c-2.76,0-5-2.24-5-5ZM5219.09,99.04v-31.23c0-2.76,2.24-5,5-5h74.11c2.76,0,5,2.24,5,5v31.23c0,2.76-2.24,5-5,5h-74.11c-2.76,0-5-2.24-5-5ZM5354.61,99.04v-31.23c0-2.76,2.23-5,5-5h74.1c2.76,0,5,2.24,5,5v31.23c0,2.76-2.24,5-5,5h-74.1c-2.77,0-5-2.24-5-5Z"/>
      <path class="cls-14" d="M4650.02,67.5v31.23c0,2.77,2.23,5,5,5h74.1c2.76,0,5-2.23,5-5v-31.23c0-2.76-2.24-5-5-5h-74.1c-2.77,0-5,2.24-5,5Z"/>
      <path class="cls-14" d="M4763.48,67.5v31.23c0,2.77,2.24,5,5,5h74.1c2.76,0,5-2.23,5-5v-31.23c0-2.76-2.24-5-5-5h-74.1c-2.76,0-5,2.24-5,5Z"/>
      <rect class="cls-14" x="4875.99" y="62.81" width="84.1" height="41.23" rx="5" ry="5"/>
      <rect class="cls-14" x="4990.07" y="62.81" width="84.1" height="41.23" rx="5" ry="5"/>
      <path class="cls-14" d="M5104.86,67.81v31.23c0,2.76,2.24,5,5,5h74.1c2.77,0,5-2.24,5-5v-31.23c0-2.76-2.23-5-5-5h-74.1c-2.76,0-5,2.24-5,5Z"/>
      <path class="cls-16" d="M5212.77,200.71h29.07c-.39-1.6-.59-3.28-.59-5,0-8.27,4.65-15.44,11.48-19.05h-23.25v10.25l-16.71,13.8Z"/>
      <rect class="cls-14" x="5219.09" y="62.81" width="84.11" height="41.23" rx="5" ry="5"/>
      <path class="cls-16" d="M5229.48,169.7v6.96h23.25c3-1.59,6.42-2.49,10.05-2.49s7.06.9,10.06,2.49h136.89c3-1.59,6.42-2.49,10.05-2.49s7.06.9,10.06,2.49h22.1v-6.96h-222.46Z"/>
      <path class="cls-13" d="M5241.25,195.71c0,1.72.2,3.4.59,5,2.25,9.48,10.77,16.54,20.94,16.54,9.08,0,16.84-5.61,20.01-13.55.31-.78.58-1.59.8-2.41.48-1.78.73-3.65.73-5.58,0-8.27-4.65-15.44-11.48-19.05h-20.11c-6.83,3.61-11.48,10.78-11.48,19.05ZM5257.78,195.71c0-2.76,2.24-5,5-5s5,2.24,5,5-2.23,5-5,5-5-2.24-5-5Z"/>
      <path class="cls-13" d="M5252.73,176.66h20.11c-3-1.59-6.43-2.49-10.06-2.49s-7.05.9-10.05,2.49Z"/>
      <circle class="cls-11" cx="5262.78" cy="195.71" r="5"/>
      <path class="cls-16" d="M5409.73,176.66h-136.89c6.83,3.61,11.48,10.78,11.48,19.05,0,1.93-.25,3.8-.73,5.58l.73.19h114.72c-.52-1.84-.79-3.77-.79-5.77,0-8.27,4.65-15.44,11.48-19.05Z"/>
      <path class="cls-14" d="M5354.61,67.81v31.23c0,2.76,2.23,5,5,5h74.1c2.76,0,5-2.24,5-5v-31.23c0-2.76-2.24-5-5-5h-74.1c-2.77,0-5,2.24-5,5Z"/>
      <path class="cls-13" d="M5398.25,195.71c0,2,.27,3.93.79,5.77,2.52,9.09,10.85,15.77,20.74,15.77,9.08,0,16.84-5.61,20.01-13.55.31-.78.58-1.59.8-2.41.48-1.78.73-3.65.73-5.58,0-8.27-4.65-15.44-11.48-19.05h-20.11c-6.83,3.61-11.48,10.78-11.48,19.05ZM5414.78,195.71c0-2.76,2.24-5,5-5s5,2.24,5,5-2.23,5-5,5-5-2.24-5-5Z"/>
      <path class="cls-13" d="M5409.73,176.66h20.11c-3-1.59-6.43-2.49-10.06-2.49s-7.05.9-10.05,2.49Z"/>
      <circle class="cls-11" cx="5419.78" cy="195.71" r="5"/>
      <path class="cls-16" d="M5451.94,176.66h-22.1c6.83,3.61,11.48,10.78,11.48,19.05,0,1.93-.25,3.8-.73,5.58l.73.19h10.62v-24.82Z"/>
      <rect class="cls-12" x="5451.94" y="176.66" width="77.23" height="24.82"/>
      <rect class="cls-19" x="5451.94" y="169.7" width="77.23" height="6.96"/>
    </g>
    <g>
      <polyline class="cls-4" points="5529.17 .25 5529.17 52.78 5529.17 117.36 5529.17 169.7"/>
      <polyline class="cls-4" points="4387.02 136.56 4387.02 117.36 4387.02 52.78 4387.02 .25"/>
      <path class="cls-5" d="M5359.61,62.81h74.1c2.76,0,5,2.24,5,5v31.23c0,2.76-2.24,5-5,5h-74.1c-2.77,0-5-2.24-5-5v-31.23c0-2.76,2.23-5,5-5Z"/>
      <rect class="cls-6" x="5219.09" y="62.81" width="84.11" height="41.23" rx="5" ry="5"/>
      <path class="cls-6" d="M5109.86,62.81h74.1c2.77,0,5,2.24,5,5v31.23c0,2.76-2.23,5-5,5h-74.1c-2.76,0-5-2.24-5-5v-31.23c0-2.76,2.24-5,5-5Z"/>
      <rect class="cls-6" x="4875.99" y="62.81" width="84.1" height="41.23" rx="5" ry="5"/>
      <rect class="cls-6" x="4990.07" y="62.81" width="84.1" height="41.23" rx="5" ry="5"/>
      <path class="cls-6" d="M4768.48,62.5h74.1c2.76,0,5,2.24,5,5v31.23c0,2.77-2.24,5-5,5h-74.1c-2.76,0-5-2.23-5-5v-31.23c0-2.76,2.24-5,5-5Z"/>
      <path class="cls-6" d="M4655.02,62.5h74.1c2.76,0,5,2.24,5,5v31.23c0,2.77-2.24,5-5,5h-74.1c-2.77,0-5-2.23-5-5v-31.23c0-2.76,2.23-5,5-5Z"/>
      <path class="cls-3" d="M5429.84,176.66c6.83,3.61,11.48,10.78,11.48,19.05,0,1.93-.25,3.8-.73,5.58-.22.82-.49,1.63-.8,2.41-3.17,7.94-10.93,13.55-20.01,13.55-9.89,0-18.22-6.68-20.74-15.77-.52-1.84-.79-3.77-.79-5.77,0-8.27,4.65-15.44,11.48-19.05,3-1.59,6.42-2.49,10.05-2.49s7.06.9,10.06,2.49Z"/>
      <path class="cls-3" d="M5272.84,176.66c6.83,3.61,11.48,10.78,11.48,19.05,0,1.93-.25,3.8-.73,5.58-.22.82-.49,1.63-.8,2.41-3.17,7.94-10.93,13.55-20.01,13.55-10.17,0-18.69-7.06-20.94-16.54-.39-1.6-.59-3.28-.59-5,0-8.27,4.65-15.44,11.48-19.05,3-1.59,6.42-2.49,10.05-2.49s7.06.9,10.06,2.49Z"/>
      <polyline class="cls-4" points="3235.86 .25 3235.86 52.78 3235.86 117.36 3235.86 169.7"/>
      <polyline class="cls-4" points="4378.02 136.56 4378.02 117.36 4378.02 52.78 4378.02 .25"/>
      <rect class="cls-6" x="3326.32" y="62.81" width="84.11" height="41.23" rx="5" ry="5"/>
      <path class="cls-6" d="M3540.94,62.81h-74.1c-2.77,0-5,2.24-5,5v31.23c0,2.76,2.23,5,5,5h74.1c2.76,0,5-2.24,5-5v-31.23c0-2.76-2.24-5-5-5Z"/>
      <rect class="cls-6" x="3576.07" y="62.81" width="84.1" height="41.23" rx="5" ry="5"/>
      <rect class="cls-6" x="3804.94" y="62.81" width="84.1" height="41.23" rx="5" ry="5"/>
      <path class="cls-6" d="M3769.96,62.81h-74.1c-2.76,0-5,2.24-5,5v31.23c0,2.76,2.24,5,5,5h74.1c2.77,0,5-2.24,5-5v-31.23c0-2.76-2.23-5-5-5Z"/>
      <path class="cls-6" d="M3996.55,62.5h-74.1c-2.76,0-5,2.24-5,5v31.23c0,2.77,2.24,5,5,5h74.1c2.77,0,5-2.23,5-5v-31.23c0-2.76-2.23-5-5-5Z"/>
      <path class="cls-6" d="M4110.02,62.5h-74.11c-2.76,0-5,2.24-5,5v31.23c0,2.77,2.24,5,5,5h74.11c2.76,0,5-2.23,5-5v-31.23c0-2.76-2.24-5-5-5Z"/>
      <path class="cls-3" d="M3335.19,176.66c-6.83,3.61-11.48,10.78-11.48,19.05,0,1.93.25,3.8.73,5.58.22.82.49,1.63.8,2.41,3.17,7.94,10.93,13.55,20.01,13.55,9.89,0,18.22-6.68,20.74-15.77.52-1.84.79-3.77.79-5.77,0-8.27-4.65-15.44-11.48-19.05-2.99-1.59-6.42-2.49-10.05-2.49s-7.06.9-10.06,2.49Z"/>
      <path class="cls-3" d="M3492.19,176.66c-6.83,3.61-11.48,10.78-11.48,19.05,0,1.93.25,3.8.73,5.58.22.82.49,1.63.8,2.41,3.17,7.94,10.93,13.55,20.01,13.55,10.17,0,18.69-7.06,20.94-16.54.39-1.6.59-3.28.59-5,0-8.27-4.65-15.44-11.48-19.05-2.99-1.59-6.42-2.49-10.05-2.49s-7.06.9-10.06,2.49Z"/>
      <path class="cls-3" d="M4334.88,201.48c.52-1.84.79-3.77.79-5.77,0-11.9-9.64-21.54-21.54-21.54s-21.54,9.64-21.54,21.54c0,2,.28,3.93.79,5.77.2.76.45,1.5.74,2.22,3.18,7.94,10.94,13.55,20.01,13.55,9.9,0,18.23-6.68,20.75-15.77Z"/>
      <path class="cls-3" d="M4471.88,201.48c.52-1.84.79-3.77.79-5.77,0-11.9-9.64-21.54-21.54-21.54s-21.54,9.64-21.54,21.54c0,2,.28,3.93.79,5.77.2.76.45,1.5.74,2.22,3.18,7.94,10.94,13.55,20.01,13.55,9.9,0,18.23-6.68,20.75-15.77Z"/>
    </g>
  </g>
  <g id="left-cars">
    <g>
      <rect class="cls-12" x="933.86" y="176.66" width="77.23" height="24.82"/>
      <rect class="cls-19" x="933.86" y="169.7" width="77.23" height="6.96"/>
      <path class="cls-20" d="M933.86,117.36v52.34h1051.08l57.89.04,33.19-33.18v-19.2h-36.16v31.43c0,2.76-2.24,5-5,5h-46.92c-2.76,0-5-2.24-5-5v-31.43H933.86Z"/>
      <path class="cls-15" d="M933.86,52.78v64.58h1049.08V52.78H933.86ZM1024.32,99.04v-31.23c0-2.76,2.24-5,5-5h74.11c2.76,0,5,2.24,5,5v31.23c0,2.76-2.24,5-5,5h-74.11c-2.76,0-5-2.24-5-5ZM1159.84,99.04v-31.23c0-2.76,2.23-5,5-5h74.1c2.76,0,5,2.24,5,5v31.23c0,2.76-2.24,5-5,5h-74.1c-2.77,0-5-2.24-5-5ZM1274.07,99.04v-31.23c0-2.76,2.24-5,5-5h74.1c2.76,0,5,2.24,5,5v31.23c0,2.76-2.24,5-5,5h-74.1c-2.76,0-5-2.24-5-5ZM1388.86,99.04v-31.23c0-2.76,2.24-5,5-5h74.1c2.77,0,5,2.24,5,5v31.23c0,2.76-2.23,5-5,5h-74.1c-2.76,0-5-2.24-5-5ZM1502.94,99.04v-31.23c0-2.76,2.24-5,5-5h74.1c2.76,0,5,2.24,5,5v31.23c0,2.76-2.24,5-5,5h-74.1c-2.76,0-5-2.24-5-5ZM1615.45,98.73v-31.23c0-2.76,2.24-5,5-5h74.1c2.77,0,5,2.24,5,5v31.23c0,2.77-2.23,5-5,5h-74.1c-2.76,0-5-2.23-5-5ZM1728.91,98.73v-31.23c0-2.76,2.24-5,5-5h74.11c2.76,0,5,2.24,5,5v31.23c0,2.77-2.24,5-5,5h-74.11c-2.76,0-5-2.23-5-5Z"/>
      <path class="cls-18" d="M933.86.25v52.53h1049.08v-13.69c0-2.76,2.24-5,5-5h46.92c2.76,0,5,2.24,5,5v13.69h36.16V.25H933.86Z"/>
      <path class="cls-16" d="M1011.09,176.66v24.82h10.62l.73-.19c-.48-1.78-.73-3.65-.73-5.58,0-8.27,4.65-15.44,11.48-19.05h-22.1Z"/>
      <path class="cls-16" d="M1011.09,169.7v6.96h22.1c3-1.59,6.43-2.49,10.06-2.49s7.06.9,10.05,2.49h136.89c3-1.59,6.43-2.49,10.06-2.49s7.06.9,10.05,2.49h23.25v-6.96h-222.46Z"/>
      <path class="cls-13" d="M1021.71,195.71c0,1.93.25,3.8.73,5.58.22.82.49,1.63.8,2.41,3.17,7.94,10.93,13.55,20.01,13.55,9.89,0,18.22-6.68,20.74-15.77.52-1.84.79-3.77.79-5.77,0-8.27-4.65-15.44-11.48-19.05h-20.11c-6.83,3.61-11.48,10.78-11.48,19.05ZM1038.25,195.71c0-2.76,2.24-5,5-5s5,2.24,5,5-2.24,5-5,5-5-2.24-5-5Z"/>
      <rect class="cls-14" x="1024.32" y="62.81" width="84.11" height="41.23" rx="5" ry="5"/>
      <path class="cls-13" d="M1033.19,176.66h20.11c-2.99-1.59-6.42-2.49-10.05-2.49s-7.06.9-10.06,2.49Z"/>
      <circle class="cls-11" cx="1043.25" cy="195.71" r="5"/>
      <path class="cls-16" d="M1190.19,176.66h-136.89c6.83,3.61,11.48,10.78,11.48,19.05,0,2-.27,3.93-.79,5.77h114.72l.73-.19c-.48-1.78-.73-3.65-.73-5.58,0-8.27,4.65-15.44,11.48-19.05Z"/>
      <path class="cls-14" d="M1159.84,67.81v31.23c0,2.76,2.23,5,5,5h74.1c2.76,0,5-2.24,5-5v-31.23c0-2.76-2.24-5-5-5h-74.1c-2.77,0-5,2.24-5,5Z"/>
      <path class="cls-13" d="M1178.71,195.71c0,1.93.25,3.8.73,5.58.22.82.49,1.63.8,2.41,3.17,7.94,10.93,13.55,20.01,13.55,10.17,0,18.69-7.06,20.94-16.54.39-1.6.59-3.28.59-5,0-8.27-4.65-15.44-11.48-19.05h-20.11c-6.83,3.61-11.48,10.78-11.48,19.05ZM1195.25,195.71c0-2.76,2.24-5,5-5s5,2.24,5,5-2.24,5-5,5-5-2.24-5-5Z"/>
      <path class="cls-13" d="M1190.19,176.66h20.11c-2.99-1.59-6.42-2.49-10.05-2.49s-7.06.9-10.06,2.49Z"/>
      <circle class="cls-11" cx="1200.25" cy="195.71" r="5"/>
      <path class="cls-16" d="M1233.55,176.66h-23.25c6.83,3.61,11.48,10.78,11.48,19.05,0,1.72-.2,3.4-.59,5h29.08l-16.72-13.8v-10.25Z"/>
      <polygon class="cls-12" points="1250.27 200.71 1251.2 201.48 1984.94 201.48 1984.94 176.66 1233.55 176.66 1233.55 186.91 1250.27 200.71"/>
      <rect class="cls-19" x="1233.55" y="169.7" width="751.39" height="6.96"/>
      <rect class="cls-14" x="1274.07" y="62.81" width="84.1" height="41.23" rx="5" ry="5"/>
      <path class="cls-14" d="M1388.86,67.81v31.23c0,2.76,2.24,5,5,5h74.1c2.77,0,5-2.24,5-5v-31.23c0-2.76-2.23-5-5-5h-74.1c-2.76,0-5,2.24-5,5Z"/>
      <rect class="cls-14" x="1502.94" y="62.81" width="84.1" height="41.23" rx="5" ry="5"/>
      <path class="cls-14" d="M1615.45,67.5v31.23c0,2.77,2.24,5,5,5h74.1c2.77,0,5-2.23,5-5v-31.23c0-2.76-2.23-5-5-5h-74.1c-2.76,0-5,2.24-5,5Z"/>
      <path class="cls-14" d="M1728.91,67.5v31.23c0,2.77,2.24,5,5,5h74.11c2.76,0,5-2.23,5-5v-31.23c0-2.76-2.24-5-5-5h-74.11c-2.76,0-5,2.24-5,5Z"/>
      <path class="cls-21" d="M1982.94,117.36v31.43c0,2.76,2.24,5,5,5h46.92c2.76,0,5-2.24,5-5V39.09c0-2.76-2.24-5-5-5h-46.92c-2.76,0-5,2.24-5,5v78.27ZM1993.63,98.79v-46.47h35.39v46.47h-35.39Z"/>
      <path class="cls-16" d="M1984.94,176.66v24.82h6.44c-.51-1.84-.79-3.77-.79-5.77,0-11.9,9.65-21.54,21.54-21.54s21.54,9.64,21.54,21.54c0,2-.27,3.93-.79,5.77h95.5c-.51-1.84-.79-3.77-.79-5.77,0-11.9,9.65-21.54,21.54-21.54s21.54,9.64,21.54,21.54c0,2-.27,3.93-.79,5.77h6.21v-31.78l-57.89.04h-75.37l-57.89-.04v6.96Z"/>
      <path class="cls-13" d="M1990.59,195.71c0,2,.28,3.93.79,5.77.2.76.45,1.5.74,2.22,3.18,7.94,10.94,13.55,20.01,13.55,9.9,0,18.23-6.68,20.75-15.77.52-1.84.79-3.77.79-5.77,0-11.9-9.64-21.54-21.54-21.54s-21.54,9.64-21.54,21.54ZM2007.13,195.71c0-2.76,2.24-5,5-5s5,2.24,5,5-2.24,5-5,5-5-2.24-5-5Z"/>
      <rect class="cls-14" x="1993.63" y="52.32" width="35.39" height="46.47"/>
      <circle class="cls-11" cx="2012.13" cy="195.71" r="5"/>
      <rect class="cls-15" x="2039.86" y="52.78" width="36.16" height="64.58"/>
      <path class="cls-20" d="M2085.02,117.36v19.2l33.18,33.18,57.89-.04h1051.08v-52.34h-1049.08v31.43c0,2.76-2.24,5-5,5h-46.92c-2.76,0-5-2.24-5-5v-31.43h-36.15Z"/>
      <rect class="cls-15" x="2085.02" y="52.78" width="36.15" height="64.58"/>
      <path class="cls-18" d="M2085.02.25v52.53h36.15v-13.69c0-2.76,2.24-5,5-5h46.92c2.76,0,5,2.24,5,5v13.69h1049.08V.25h-1142.15Z"/>
      <path class="cls-21" d="M2121.17,117.36v31.43c0,2.76,2.24,5,5,5h46.92c2.76,0,5-2.24,5-5V39.09c0-2.76-2.24-5-5-5h-46.92c-2.76,0-5,2.24-5,5v78.27ZM2132.02,98.79v-46.47h35.38v46.47h-35.38Z"/>
      <path class="cls-13" d="M2127.59,195.71c0,2,.28,3.93.79,5.77.2.76.45,1.5.74,2.22,3.18,7.94,10.94,13.55,20.01,13.55,9.9,0,18.23-6.68,20.75-15.77.52-1.84.79-3.77.79-5.77,0-11.9-9.64-21.54-21.54-21.54s-21.54,9.64-21.54,21.54ZM2144.13,195.71c0-2.76,2.24-5,5-5s5,2.24,5,5-2.24,5-5,5-5-2.24-5-5Z"/>
      <rect class="cls-14" x="2132.02" y="52.32" width="35.38" height="46.47"/>
      <circle class="cls-11" cx="2149.13" cy="195.71" r="5"/>
      <polygon class="cls-12" points="2910.77 200.71 2927.48 186.91 2927.48 176.66 2176.09 176.66 2176.09 201.48 2909.84 201.48 2910.77 200.71"/>
      <rect class="cls-19" x="2176.09" y="169.7" width="751.39" height="6.96"/>
      <path class="cls-15" d="M2178.09,52.78v64.58h1049.08V52.78h-1049.08ZM2348.02,98.73v-31.23c0-2.76,2.23-5,5-5h74.1c2.76,0,5,2.24,5,5v31.23c0,2.77-2.24,5-5,5h-74.1c-2.77,0-5-2.23-5-5ZM2461.48,98.73v-31.23c0-2.76,2.24-5,5-5h74.1c2.76,0,5,2.24,5,5v31.23c0,2.77-2.24,5-5,5h-74.1c-2.76,0-5-2.23-5-5ZM2573.99,99.04v-31.23c0-2.76,2.24-5,5-5h74.1c2.76,0,5,2.24,5,5v31.23c0,2.76-2.24,5-5,5h-74.1c-2.76,0-5-2.24-5-5ZM2688.07,99.04v-31.23c0-2.76,2.24-5,5-5h74.1c2.76,0,5,2.24,5,5v31.23c0,2.76-2.24,5-5,5h-74.1c-2.76,0-5-2.24-5-5ZM2802.86,99.04v-31.23c0-2.76,2.24-5,5-5h74.1c2.77,0,5,2.24,5,5v31.23c0,2.76-2.23,5-5,5h-74.1c-2.76,0-5-2.24-5-5ZM2917.09,99.04v-31.23c0-2.76,2.24-5,5-5h74.11c2.76,0,5,2.24,5,5v31.23c0,2.76-2.24,5-5,5h-74.11c-2.76,0-5-2.24-5-5ZM3052.61,99.04v-31.23c0-2.76,2.23-5,5-5h74.1c2.76,0,5,2.24,5,5v31.23c0,2.76-2.24,5-5,5h-74.1c-2.77,0-5-2.24-5-5Z"/>
      <path class="cls-14" d="M2348.02,67.5v31.23c0,2.77,2.23,5,5,5h74.1c2.76,0,5-2.23,5-5v-31.23c0-2.76-2.24-5-5-5h-74.1c-2.77,0-5,2.24-5,5Z"/>
      <path class="cls-14" d="M2461.48,67.5v31.23c0,2.77,2.24,5,5,5h74.1c2.76,0,5-2.23,5-5v-31.23c0-2.76-2.24-5-5-5h-74.1c-2.76,0-5,2.24-5,5Z"/>
      <rect class="cls-14" x="2573.99" y="62.81" width="84.1" height="41.23" rx="5" ry="5"/>
      <rect class="cls-14" x="2688.07" y="62.81" width="84.1" height="41.23" rx="5" ry="5"/>
      <path class="cls-14" d="M2802.86,67.81v31.23c0,2.76,2.24,5,5,5h74.1c2.77,0,5-2.24,5-5v-31.23c0-2.76-2.23-5-5-5h-74.1c-2.76,0-5,2.24-5,5Z"/>
      <path class="cls-16" d="M2910.77,200.71h29.07c-.39-1.6-.59-3.28-.59-5,0-8.27,4.65-15.44,11.48-19.05h-23.25v10.25l-16.71,13.8Z"/>
      <rect class="cls-14" x="2917.09" y="62.81" width="84.11" height="41.23" rx="5" ry="5"/>
      <path class="cls-16" d="M2927.48,169.7v6.96h23.25c3-1.59,6.42-2.49,10.05-2.49s7.06.9,10.06,2.49h136.89c3-1.59,6.42-2.49,10.05-2.49s7.06.9,10.06,2.49h22.1v-6.96h-222.46Z"/>
      <path class="cls-13" d="M2939.25,195.71c0,1.72.2,3.4.59,5,2.25,9.48,10.77,16.54,20.94,16.54,9.08,0,16.84-5.61,20.01-13.55.31-.78.58-1.59.8-2.41.48-1.78.73-3.65.73-5.58,0-8.27-4.65-15.44-11.48-19.05h-20.11c-6.83,3.61-11.48,10.78-11.48,19.05ZM2955.78,195.71c0-2.76,2.24-5,5-5s5,2.24,5,5-2.23,5-5,5-5-2.24-5-5Z"/>
      <path class="cls-13" d="M2950.73,176.66h20.11c-3-1.59-6.43-2.49-10.06-2.49s-7.05.9-10.05,2.49Z"/>
      <circle class="cls-11" cx="2960.78" cy="195.71" r="5"/>
      <path class="cls-16" d="M3107.73,176.66h-136.89c6.83,3.61,11.48,10.78,11.48,19.05,0,1.93-.25,3.8-.73,5.58l.73.19h114.72c-.52-1.84-.79-3.77-.79-5.77,0-8.27,4.65-15.44,11.48-19.05Z"/>
      <path class="cls-14" d="M3052.61,67.81v31.23c0,2.76,2.23,5,5,5h74.1c2.76,0,5-2.24,5-5v-31.23c0-2.76-2.24-5-5-5h-74.1c-2.77,0-5,2.24-5,5Z"/>
      <path class="cls-13" d="M3096.25,195.71c0,2,.27,3.93.79,5.77,2.52,9.09,10.85,15.77,20.74,15.77,9.08,0,16.84-5.61,20.01-13.55.31-.78.58-1.59.8-2.41.48-1.78.73-3.65.73-5.58,0-8.27-4.65-15.44-11.48-19.05h-20.11c-6.83,3.61-11.48,10.78-11.48,19.05ZM3112.78,195.71c0-2.76,2.24-5,5-5s5,2.24,5,5-2.23,5-5,5-5-2.24-5-5Z"/>
      <path class="cls-13" d="M3107.73,176.66h20.11c-3-1.59-6.43-2.49-10.06-2.49s-7.05.9-10.05,2.49Z"/>
      <circle class="cls-11" cx="3117.78" cy="195.71" r="5"/>
      <path class="cls-16" d="M3149.94,176.66h-22.1c6.83,3.61,11.48,10.78,11.48,19.05,0,1.93-.25,3.8-.73,5.58l.73.19h10.62v-24.82Z"/>
      <rect class="cls-12" x="3149.94" y="176.66" width="77.23" height="24.82"/>
      <rect class="cls-19" x="3149.94" y="169.7" width="77.23" height="6.96"/>
    </g>
    <g>
      <polyline class="cls-4" points="3227.17 .25 3227.17 52.78 3227.17 117.36 3227.17 169.7"/>
      <polyline class="cls-4" points="2085.02 136.56 2085.02 117.36 2085.02 52.78 2085.02 .25"/>
      <path class="cls-5" d="M3057.61,62.81h74.1c2.76,0,5,2.24,5,5v31.23c0,2.76-2.24,5-5,5h-74.1c-2.77,0-5-2.24-5-5v-31.23c0-2.76,2.23-5,5-5Z"/>
      <rect class="cls-6" x="2917.09" y="62.81" width="84.11" height="41.23" rx="5" ry="5"/>
      <path class="cls-6" d="M2807.86,62.81h74.1c2.77,0,5,2.24,5,5v31.23c0,2.76-2.23,5-5,5h-74.1c-2.76,0-5-2.24-5-5v-31.23c0-2.76,2.24-5,5-5Z"/>
      <rect class="cls-6" x="2573.99" y="62.81" width="84.1" height="41.23" rx="5" ry="5"/>
      <rect class="cls-6" x="2688.07" y="62.81" width="84.1" height="41.23" rx="5" ry="5"/>
      <path class="cls-6" d="M2466.48,62.5h74.1c2.76,0,5,2.24,5,5v31.23c0,2.77-2.24,5-5,5h-74.1c-2.76,0-5-2.23-5-5v-31.23c0-2.76,2.24-5,5-5Z"/>
      <path class="cls-6" d="M2353.02,62.5h74.1c2.76,0,5,2.24,5,5v31.23c0,2.77-2.24,5-5,5h-74.1c-2.77,0-5-2.23-5-5v-31.23c0-2.76,2.23-5,5-5Z"/>
      <path class="cls-3" d="M3127.84,176.66c6.83,3.61,11.48,10.78,11.48,19.05,0,1.93-.25,3.8-.73,5.58-.22.82-.49,1.63-.8,2.41-3.17,7.94-10.93,13.55-20.01,13.55-9.89,0-18.22-6.68-20.74-15.77-.52-1.84-.79-3.77-.79-5.77,0-8.27,4.65-15.44,11.48-19.05,3-1.59,6.42-2.49,10.05-2.49s7.06.9,10.06,2.49Z"/>
      <path class="cls-3" d="M2970.84,176.66c6.83,3.61,11.48,10.78,11.48,19.05,0,1.93-.25,3.8-.73,5.58-.22.82-.49,1.63-.8,2.41-3.17,7.94-10.93,13.55-20.01,13.55-10.17,0-18.69-7.06-20.94-16.54-.39-1.6-.59-3.28-.59-5,0-8.27,4.65-15.44,11.48-19.05,3-1.59,6.42-2.49,10.05-2.49s7.06.9,10.06,2.49Z"/>
      <polyline class="cls-4" points="933.86 .25 933.86 52.78 933.86 117.36 933.86 169.7"/>
      <polyline class="cls-4" points="2076.02 136.56 2076.02 117.36 2076.02 52.78 2076.02 .25"/>
      <rect class="cls-6" x="1024.32" y="62.81" width="84.11" height="41.23" rx="5" ry="5"/>
      <path class="cls-6" d="M1238.94,62.81h-74.1c-2.77,0-5,2.24-5,5v31.23c0,2.76,2.23,5,5,5h74.1c2.76,0,5-2.24,5-5v-31.23c0-2.76-2.24-5-5-5Z"/>
      <rect class="cls-6" x="1274.07" y="62.81" width="84.1" height="41.23" rx="5" ry="5"/>
      <rect class="cls-6" x="1502.94" y="62.81" width="84.1" height="41.23" rx="5" ry="5"/>
      <path class="cls-6" d="M1467.96,62.81h-74.1c-2.76,0-5,2.24-5,5v31.23c0,2.76,2.24,5,5,5h74.1c2.77,0,5-2.24,5-5v-31.23c0-2.76-2.23-5-5-5Z"/>
      <path class="cls-6" d="M1694.55,62.5h-74.1c-2.76,0-5,2.24-5,5v31.23c0,2.77,2.24,5,5,5h74.1c2.77,0,5-2.23,5-5v-31.23c0-2.76-2.23-5-5-5Z"/>
      <path class="cls-6" d="M1808.02,62.5h-74.11c-2.76,0-5,2.24-5,5v31.23c0,2.77,2.24,5,5,5h74.11c2.76,0,5-2.23,5-5v-31.23c0-2.76-2.24-5-5-5Z"/>
      <path class="cls-3" d="M1033.19,176.66c-6.83,3.61-11.48,10.78-11.48,19.05,0,1.93.25,3.8.73,5.58.22.82.49,1.63.8,2.41,3.17,7.94,10.93,13.55,20.01,13.55,9.89,0,18.22-6.68,20.74-15.77.52-1.84.79-3.77.79-5.77,0-8.27-4.65-15.44-11.48-19.05-2.99-1.59-6.42-2.49-10.05-2.49s-7.06.9-10.06,2.49Z"/>
      <path class="cls-3" d="M1190.19,176.66c-6.83,3.61-11.48,10.78-11.48,19.05,0,1.93.25,3.8.73,5.58.22.82.49,1.63.8,2.41,3.17,7.94,10.93,13.55,20.01,13.55,10.17,0,18.69-7.06,20.94-16.54.39-1.6.59-3.28.59-5,0-8.27-4.65-15.44-11.48-19.05-2.99-1.59-6.42-2.49-10.05-2.49s-7.06.9-10.06,2.49Z"/>
      <path class="cls-3" d="M2032.88,201.48c.52-1.84.79-3.77.79-5.77,0-11.9-9.64-21.54-21.54-21.54s-21.54,9.64-21.54,21.54c0,2,.28,3.93.79,5.77.2.76.45,1.5.74,2.22,3.18,7.94,10.94,13.55,20.01,13.55,9.9,0,18.23-6.68,20.75-15.77Z"/>
      <path class="cls-3" d="M2169.88,201.48c.52-1.84.79-3.77.79-5.77,0-11.9-9.64-21.54-21.54-21.54s-21.54,9.64-21.54,21.54c0,2,.28,3.93.79,5.77.2.76.45,1.5.74,2.22,3.18,7.94,10.94,13.55,20.01,13.55,9.9,0,18.23-6.68,20.75-15.77Z"/>
    </g>
  </g>
  <g id="left-loco">
    <g>
      <rect class="cls-12" x="882.81" y="176.66" width="39.4" height="24.82"/>
      <path class="cls-19" d="M922.21,169.7v6.96h-39.4l-13.18,4.72-19.27.05c-3.94-4.45-9.7-7.25-16.11-7.25s-12.26,2.84-16.19,7.35l-105.36.29c-3.95-4.67-9.85-7.64-16.45-7.64s-12.59,3.01-16.53,7.74l-8.54.02h-396.77v-12.24h647.8Z"/>
      <polygon class="cls-17" points="636.25 154.18 636.25 117.67 922.21 117.67 922.21 169.7 636.25 169.7 636.25 154.18"/>
      <path class="cls-15" d="M351.73,122.05c-3.14-1.08-6.32-2.16-9.53-3.23v-59.04c0-3.86-3.14-7-7-7h587.01v64.89h-285.96v36.51h-202.82c-20.54-9.05-49.15-20.88-81.7-32.13ZM610.93,137.34c.03-.2-.31-.59-.56-.67-1.56-.51-2.06-1.59-2.04-3.16.05-5.17.03-10.34,0-15.51,0-.77-.09-1.56-.28-2.3-.29-1.13-1.1-1.47-2.13-.94-.55.29-1.07.65-1.55,1.05-.42.35-.77.44-1.29.21-1.36-.6-2.76-1.02-4.19-1.28-1.6-.3-3.24-.39-4.91-.28-3.86.24-7,1.93-9.37,4.95-1.92,2.45-2.33,5.39-2.25,8.4.12,4.69,2.53,8.02,6.62,9.97,4.05,1.94,8.08,1.57,11.77-1.15.37-.27.72-.57,1.08-.87.35-.31.71-.63,1.08-.95.28.51.52.99.79,1.44,1.22,1.99,4.58,2.95,6.61,1.86.27-.15.56-.48.62-.77ZM577.73,120.86v-8.34c0-2.81-.01-5.62-.01-8.43,0-.53,0-1.04-.73-1.08-2.6-.12-5.15,2.07-5.1,4.43.13,6.67.05,13.33.05,20,0,3.41.01,6.81-.01,10.22,0,.8.26,1.14,1.08,1.11,1.13-.04,2.27,0,3.41-.01,1.26,0,1.3-.04,1.3-1.31.01-5.53,0-11.06.01-16.59ZM566.07,127.46c.6.01.89-.22.84-.85-.19-2.19-.56-4.33-1.49-6.34-1.15-2.52-3-4.28-5.66-5.14-1.85-.6-3.74-.65-5.67-.51-7.62.55-12.89,6.19-11.74,14.85.65,4.9,3.94,7.82,8.68,9.05,1.04.27,2.12.37,3.18.55h2.15c.32-.06.64-.14.96-.18,2.44-.31,4.72-1.05,6.7-2.55.23-.17.54-.45.53-.66-.04-.87-.19-1.73-.32-2.72-.41.2-.63.27-.82.4-1.76,1.16-3.7,1.75-5.78,2.03-5.73.77-8.66-3.27-9.45-6.59-.27-1.15-.12-1.33,1.04-1.33h12.1c1.59,0,3.17-.01,4.75-.01ZM537.92,119.82c.5-2.13.32-2.51-1.43-3.28-2.59-1.14-5.28-1.8-8.13-1.93-5.65-.26-11.93,3.66-12.85,10.47-.97,7.24,3.05,12.21,8.97,13.51.99.21,2,.32,3,.48h1.97c.33-.06.64-.14.97-.17,2.48-.28,4.78-1.04,6.78-2.57.21-.16.52-.39.51-.57-.03-.9-.16-1.8-.26-2.72-.3.06-.39.06-.47.09-.13.06-.26.14-.39.22-2.26,1.51-4.78,2.12-7.47,2.11-1.48,0-2.83-.42-4.04-1.26-3.04-2.08-4.11-5.03-3.86-8.61.36-5.14,3.84-8.05,7.55-8.49,2.94-.34,5.6.61,8.08,2.15.33.2.69.37,1.07.57ZM512.55,137.32c.05-.17-.3-.59-.55-.67-1.53-.53-2.06-1.63-2.05-3.18.03-5.26.02-10.52,0-15.77,0-.65-.06-1.32-.22-1.95-.3-1.18-1.1-1.54-2.18-.97-.57.3-1.06.77-1.63,1.08-.32.16-.81.28-1.11.16-2.86-1.21-5.83-1.71-8.92-1.57-3.98.18-7.2,1.87-9.6,4.99-1.99,2.59-2.38,5.68-2.23,8.85.32,6.87,7.87,13.06,15.98,9.7,1.64-.68,3.04-1.95,4.64-3.02.15.29.36.72.59,1.13,1.19,2.07,4.48,3.11,6.62,2.05.29-.14.57-.51.66-.83ZM508.94,72.67c.66-3.41-.74-5.44-4.1-6.3-.35-.09-.69-.2-1.03-.3h-4.85c-1.52.26-3.06.48-4.58.79-10.76,2.19-20.63,6.51-29.89,12.36-9.79,6.18-18.69,13.47-27.04,21.47v7.53c.05.32.1.65.15.97.3,2.37.48,4.76.93,7.1,1,5.26,2.82,10.19,6.33,14.36,2.66,3.18,6.01,4.26,10.03,3.31,4.16-.97,7.55-3.36,10.84-5.92.06-.05.06-.16.11-.31-.29-.11-.55-.24-.82-.33-2.06-.74-4.13-1.43-6.16-2.21-4.1-1.58-8.19-3.23-11.8-5.8-1.37-.97-2.66-2.15-3.69-3.47-2-2.55-.71-5.38,1.77-6.99-.07.21-.1.35-.17.46-1.45,2.19-.68,4.36,1.07,5.83,1.07.89,2.24,1.72,3.48,2.35,6.51,3.29,13.57,4.89,20.63,6.46.32.07.8-.07,1.04-.29,3.59-3.33,7.16-6.69,10.72-10.05.17-.17.28-.39.55-.77-.53,0-.81-.01-1.1,0-1.62.04-3.23.09-4.84.12-6.22.12-12.43.23-18.6-.74-2.37-.37-4.71-.89-6.73-2.3-.84-.58-1.4-1.35-1.28-2.64,1.05,1.7,2.62,2.3,4.29,2.5,2.6.32,5.23.65,7.84.63,8.2-.06,16.32-1.14,24.43-2.24.32-.05.7-.23.91-.47,5.29-5.89,9.97-12.22,14-19.03.09-.16.13-.36.27-.75-17.14.05-33.17,3.85-48.11,12.11.25-.3.51-.55.8-.74,3.73-2.43,7.36-5.02,11.21-7.24,6.57-3.78,13.58-6.63,20.78-8.97,6.55-2.13,13.21-3.78,19.98-5.02.4-.08.95-.39,1.08-.73.6-1.55,1.24-3.12,1.55-4.74Z"/>
      <path class="cls-18" d="M922.21,42.3v10.48H274.41s-.25-4.47-.27-10.48h648.07Z"/>
      <polygon class="cls-18" points="922.21 34.3 922.21 42.3 403.02 42.3 403.02 37.38 403.02 34.3 554.3 34.3 725.07 34.3 922.21 34.3"/>
      <path class="cls-18" d="M922.21.25v34.05h-197.14V.25h13.33s-1.01,18.48,10.48,18.48l32,.21s10.87,1.84,10.87-18.69h130.46Z"/>
      <path class="cls-13" d="M850.36,181.43c3.38,3.8,5.43,8.8,5.43,14.28,0,11.9-9.65,21.54-21.54,21.54-9.07,0-16.84-5.61-20.01-13.55-.29-.72-.54-1.46-.75-2.22-.51-1.83-.78-3.77-.78-5.77,0-5.44,2.01-10.4,5.35-14.18l32.3-.1ZM839.25,195.71c0-2.76-2.24-5-5-5s-5,2.24-5,5,2.24,5,5,5,5-2.23,5-5Z"/>
      <path class="cls-19" d="M850.36,181.43l-32.3.1c3.93-4.51,9.73-7.35,16.19-7.35s12.17,2.8,16.11,7.25Z"/>
      <circle class="cls-11" cx="834.25" cy="195.71" r="5"/>
      <path class="cls-16" d="M712.7,181.82l105.36-.29c-3.34,3.78-5.35,8.74-5.35,14.18,0,2,.27,3.94.78,5.77h-96.49c.52-1.83.79-3.77.79-5.77,0-5.3-1.91-10.15-5.09-13.89Z"/>
      <rect class="cls-14" x="554.3" y="3.74" width="170.77" height="30.56"/>
      <path class="cls-18" d="M725.07.25v3.49h-170.77V.25h170.77Z"/>
      <path class="cls-13" d="M717.79,195.71c0,2-.27,3.94-.79,5.77-2.52,9.1-10.86,15.77-20.75,15.77-9.07,0-16.84-5.61-20.01-13.55-.99-2.47-1.53-5.16-1.53-7.99,0-5.25,1.88-10.06,5.01-13.79l32.98-.1c3.18,3.74,5.09,8.59,5.09,13.89ZM701.25,195.71c0-2.76-2.24-5-5-5s-5,2.24-5,5,2.24,5,5,5,5-2.23,5-5Z"/>
      <path class="cls-19" d="M712.7,181.82l-32.98.1c3.94-4.73,9.88-7.74,16.53-7.74s12.5,2.97,16.45,7.64Z"/>
      <circle class="cls-11" cx="696.25" cy="195.71" r="5"/>
      <polygon class="cls-12" points="671.18 181.94 659.02 201.48 383.12 201.48 369.32 181.94 671.18 181.94"/>
      <path class="cls-15" d="M636.25,154.18v15.52h-169.43s-12.56-6.33-33.39-15.52h202.82Z"/>
      <path class="cls-10" d="M610.37,136.67c.25.08.59.47.56.67-.06.29-.35.62-.62.77-2.03,1.09-5.39.13-6.61-1.86-.27-.45-.51-.93-.79-1.44-.37.32-.73.64-1.08.95l-2.38-1.43c.63-.36,1.23-.81,1.81-1.35,1.03-.97,1.72-2.05,1.57-3.6-.13-1.48-.03-2.99-.03-4.48,0-1.76-.03-3.53.02-5.29.01-.76-.26-1.27-.96-1.53-.92-.34-1.82-.78-2.78-.98-.19-.04-.38-.08-.58-.11l.39-2.25c1.43.26,2.83.68,4.19,1.28.52.23.87.14,1.29-.21.48-.4,1-.76,1.55-1.05,1.03-.53,1.84-.19,2.13.94.19.74.28,1.53.28,2.3.03,5.17.05,10.34,0,15.51-.02,1.57.48,2.65,2.04,3.16Z"/>
      <path class="cls-15" d="M602.83,129.38c.15,1.55-.54,2.63-1.57,3.6-.58.54-1.18.99-1.81,1.35-1.71.98-3.61,1.23-5.69.51-3.02-1.03-4.75-3.31-5.43-6.38-.4-1.78-.21-3.58.28-5.32,1.25-4.48,5.21-6.91,9.89-6.15.2.03.39.07.58.11.96.2,1.86.64,2.78.98.7.26.97.77.96,1.53-.05,1.76-.02,3.53-.02,5.29,0,1.49-.1,3,.03,4.48Z"/>
      <path class="cls-10" d="M599.45,134.33l2.38,1.43c-.36.3-.71.6-1.08.87-3.69,2.72-7.72,3.09-11.77,1.15-4.09-1.95-6.5-5.28-6.62-9.97-.08-3.01.33-5.95,2.25-8.4,2.37-3.02,5.51-4.71,9.37-4.95,1.67-.11,3.31-.02,4.91.28l-.39,2.25c-4.68-.76-8.64,1.67-9.89,6.15-.49,1.74-.68,3.54-.28,5.32.68,3.07,2.41,5.35,5.43,6.38,2.08.72,3.98.47,5.69-.51Z"/>
      <path class="cls-10" d="M577.73,112.52v8.34c-.01,5.53,0,11.06-.01,16.59,0,1.27-.04,1.31-1.3,1.31-1.14.01-2.28-.03-3.41.01-.82.03-1.09-.31-1.08-1.11.02-3.41.01-6.81.01-10.22,0-6.67.08-13.33-.05-20-.05-2.36,2.5-4.55,5.1-4.43.73.04.73.55.73,1.08,0,2.81.01,5.62.01,8.43Z"/>
      <path class="cls-10" d="M566.91,126.61c.05.63-.24.86-.84.85-1.58,0-3.16.01-4.75.01h-12.1c-1.16,0-1.31.18-1.04,1.33.79,3.32,3.72,7.36,9.45,6.59,2.08-.28,4.02-.87,5.78-2.03.19-.13.41-.2.82-.4.13.99.28,1.85.32,2.72,0,.21-.3.49-.53.66-1.98,1.5-4.26,2.24-6.7,2.55-.32.04-.64.12-.96.18h-2.15c-1.06-.18-2.14-.28-3.18-.55-4.74-1.23-8.03-4.15-8.68-9.05-1.15-8.66,4.12-14.3,11.74-14.85,1.93-.14,3.82-.09,5.67.51,2.66.86,4.51,2.62,5.66,5.14.93,2.01,1.3,4.15,1.49,6.34ZM561.46,124.3c.42,0,.84.03.82-.63-.07-2.21-1.9-4.93-4.05-5.58-4.47-1.33-8.41.52-9.75,5.03-.29.98-.14,1.17.89,1.18,2,.01,4,0,6,0s4.06.01,6.09,0Z"/>
      <path class="cls-15" d="M562.28,123.67c.02.66-.4.63-.82.63-2.03.01-4.06,0-6.09,0s-4,.01-6,0c-1.03-.01-1.18-.2-.89-1.18,1.34-4.51,5.28-6.36,9.75-5.03,2.15.65,3.98,3.37,4.05,5.58Z"/>
      <rect class="cls-14" x="403.02" y="3.74" width="151.28" height="30.56"/>
      <path class="cls-18" d="M554.3.25v3.49h-151.28V.25h151.28Z"/>
      <path class="cls-10" d="M536.49,116.54c1.75.77,1.93,1.15,1.43,3.28-.38-.2-.74-.37-1.07-.57-2.48-1.54-5.14-2.49-8.08-2.15-3.71.44-7.19,3.35-7.55,8.49-.25,3.58.82,6.53,3.86,8.61,1.21.84,2.56,1.26,4.04,1.26,2.69.01,5.21-.6,7.47-2.11.13-.08.26-.16.39-.22.08-.03.17-.03.47-.09.1.92.23,1.82.26,2.72,0,.18-.3.41-.51.57-2,1.53-4.3,2.29-6.78,2.57-.33.03-.64.11-.97.17h-1.97c-1-.16-2.01-.27-3-.48-5.92-1.3-9.94-6.27-8.97-13.51.92-6.81,7.2-10.73,12.85-10.47,2.85.13,5.54.79,8.13,1.93Z"/>
      <path class="cls-10" d="M512,136.65c.25.08.6.5.55.67-.09.32-.37.69-.66.83-2.14,1.06-5.43.02-6.62-2.05-.23-.41-.44-.84-.59-1.13-1.6,1.07-3,2.34-4.64,3.02-8.11,3.36-15.66-2.83-15.98-9.7-.15-3.17.24-6.26,2.23-8.85,2.4-3.12,5.62-4.81,9.6-4.99,3.09-.14,6.06.36,8.92,1.57.3.12.79,0,1.11-.16.57-.31,1.06-.78,1.63-1.08,1.08-.57,1.88-.21,2.18.97.16.63.22,1.3.22,1.95.02,5.25.03,10.51,0,15.77-.01,1.55.52,2.65,2.05,3.18ZM503.39,132.5c.87-.89,1.23-1.88,1.15-3.14-.09-1.46-.02-2.93-.02-4.39,0-1.82.04-3.65-.03-5.47-.02-.42-.3-1.02-.65-1.22-2.48-1.43-5.16-1.92-7.93-1.06-7.1,2.2-7.49,11.78-3.84,15.41,2.18,2.15,4.61,3.12,7.63,2.3,1.5-.41,2.63-1.35,3.69-2.43Z"/>
      <path class="cls-10" d="M504.84,66.37c3.36.86,4.76,2.89,4.1,6.3-.31,1.62-.95,3.19-1.55,4.74-.13.34-.68.65-1.08.73-6.77,1.24-13.43,2.89-19.98,5.02-7.2,2.34-14.21,5.19-20.78,8.97-3.85,2.22-7.48,4.81-11.21,7.24-.29.19-.55.44-.8.74,14.94-8.26,30.97-12.06,48.11-12.11-.14.39-.18.59-.27.75-4.03,6.81-8.71,13.14-14,19.03-.21.24-.59.42-.91.47-8.11,1.1-16.23,2.18-24.43,2.24-2.61.02-5.24-.31-7.84-.63-1.67-.2-3.24-.8-4.29-2.5-.12,1.29.44,2.06,1.28,2.64,2.02,1.41,4.36,1.93,6.73,2.3,6.17.97,12.38.86,18.6.74,1.61-.03,3.22-.08,4.84-.12.29-.01.57,0,1.1,0-.27.38-.38.6-.55.77-3.56,3.36-7.13,6.72-10.72,10.05-.24.22-.72.36-1.04.29-7.06-1.57-14.12-3.17-20.63-6.46-1.24-.63-2.41-1.46-3.48-2.35-1.75-1.47-2.52-3.64-1.07-5.83.07-.11.1-.25.17-.46-2.48,1.61-3.77,4.44-1.77,6.99,1.03,1.32,2.32,2.5,3.69,3.47,3.61,2.57,7.7,4.22,11.8,5.8,2.03.78,4.1,1.47,6.16,2.21.27.09.53.22.82.33-.05.15-.05.26-.11.31-3.29,2.56-6.68,4.95-10.84,5.92-4.02.95-7.37-.13-10.03-3.31-3.51-4.17-5.33-9.1-6.33-14.36-.45-2.34-.63-4.73-.93-7.1-.05-.32-.1-.65-.15-.97v-7.53c8.35-8,17.25-15.29,27.04-21.47,9.26-5.85,19.13-10.17,29.89-12.36,1.52-.31,3.06-.53,4.58-.79h4.85c.34.1.68.21,1.03.3Z"/>
      <path class="cls-15" d="M504.54,129.36c.08,1.26-.28,2.25-1.15,3.14-1.06,1.08-2.19,2.02-3.69,2.43-3.02.82-5.45-.15-7.63-2.3-3.65-3.63-3.26-13.21,3.84-15.41,2.77-.86,5.45-.37,7.93,1.06.35.2.63.8.65,1.22.07,1.82.03,3.65.03,5.47,0,1.46-.07,2.93.02,4.39Z"/>
      <path class="cls-21" d="M351.73,122.05c32.55,11.25,61.16,23.08,81.7,32.13,20.83,9.19,33.39,15.52,33.39,15.52h-190.54c-.62-.14-1.25-.27-1.87-.4v-69.96c10.5,2.47,20.92,5.22,31.17,8.14,3.1.87,6.17,1.77,9.23,2.68v29.78h.1c.54,3.32,3.43,5.85,6.9,5.85h13.39c3.86,0,7-3.13,7-7v-19.97c3.21,1.07,6.39,2.15,9.53,3.23ZM342.2,152.35v-4h-27.39v4h27.39ZM339.25,166.51v-8.1h-19.41v8.1h19.41Z"/>
      <path class="cls-18" d="M403.02,37.38v4.92h-128.88c0-1.55.01-3.21.05-4.92h128.83Z"/>
      <path class="cls-18" d="M403.02,34.3v3.08h-128.83c.19-9.36,1.14-20.27,4.23-24.33C298.75,5.09,314.94.25,324.25.25h78.77v34.05ZM394.09,32.92V3.74h-50.05l-20,29.18h70.05Z"/>
      <polygon class="cls-14" points="394.09 3.74 394.09 32.92 324.04 32.92 344.04 3.74 394.09 3.74"/>
      <path class="cls-13" d="M318.49,201.48c-.51-1.83-.78-3.77-.78-5.77,0-5.23,1.87-10.03,4.98-13.77h33.18v.07c3.07,3.73,4.92,8.5,4.92,13.7,0,11.9-9.65,21.54-21.54,21.54-9.07,0-16.84-5.61-20.01-13.55-.29-.72-.54-1.46-.75-2.22ZM343.6,195.71c0-2.76-2.24-5-5-5s-5,2.24-5,5,2.24,5,5,5,5-2.23,5-5Z"/>
      <circle class="cls-11" cx="338.6" cy="195.71" r="5"/>
      <rect class="cls-13" x="314.81" y="148.35" width="27.39" height="4"/>
      <path class="cls-21" d="M342.2,118.82v19.97c0,3.87-3.14,7-7,7h-13.39c-3.47,0-6.36-2.53-6.9-5.85h7.31c2.76,0,5-2.23,5-5v-8.46c0-2.76-2.24-5-5-5h-7.41v-11.32c9.33,2.78,18.49,5.69,27.39,8.66Z"/>
      <path class="cls-15" d="M342.2,59.78v59.04c-8.9-2.97-18.06-5.88-27.39-8.66v-7.63h7.41c2.76,0,5-2.23,5-5v-8.46c0-2.76-2.24-5-5-5h-7.41v-24.29c0-3.86,3.14-7,7-7h13.39c3.86,0,7,3.14,7,7Z"/>
      <rect class="cls-13" x="319.84" y="158.41" width="19.41" height="8.1"/>
      <path class="cls-21" d="M327.22,126.48v8.46c0,2.77-2.24,5-5,5h-7.31c-.07-.37-.1-.76-.1-1.15v-17.31h7.41c2.76,0,5,2.24,5,5Z"/>
      <path class="cls-15" d="M327.22,89.07v8.46c0,2.77-2.24,5-5,5h-7.41v-18.46h7.41c2.76,0,5,2.24,5,5Z"/>
      <path class="cls-16" d="M274.41,181.94h48.28c-3.11,3.74-4.98,8.54-4.98,13.77,0,2,.27,3.94.78,5.77h-114.88c.52-1.83.79-3.77.79-5.77,0-4.8-1.57-9.24-4.23-12.82v-.16c19.73-.49,44.02-.79,73.92-.79h.32Z"/>
      <path class="cls-15" d="M305.58,107.48c-10.25-2.92-20.67-5.67-31.17-8.14v-46.56h47.4c-3.86,0-7,3.14-7,7v50.38c-3.06-.91-6.13-1.81-9.23-2.68ZM295.71,80.18v-6.39c0-2.21-1.79-4-4-4h-9.29c-2.21,0-4,1.79-4,4v6.39c0,2.2,1.79,4,4,4h9.29c2.21,0,4-1.8,4-4Z"/>
      <rect class="cls-13" x="278.42" y="69.79" width="17.29" height="14.39" rx="4" ry="4"/>
      <path class="cls-14" d="M274.41,169.7v12.24h-.32c-29.9,0-54.19.3-73.92.79-7.79.19-14.87.41-21.31.65l-3.96-22.83c10.63-.39,21.76-.37,33.34.17,7.78.37,15.76.97,23.93,1.84,13.58,1.45,27.68,3.64,42.24,6.74v.4Z"/>
      <path class="cls-21" d="M274.41,99.34v69.96c-14.56-3.1-28.66-5.29-42.24-6.74v-13c0-3.92-3.46-3.77-3.46-3.77h-16.23c-5.08,0-4.23,3.46-4.23,3.46v11.47c-11.59-.54-22.72-.56-33.35-.17-21.24.79-40.49,3.21-57.38,6.39l-1.72-5-13.26-38.47-7.34-21.3c20.97-10.57,46.1-15.31,73.28-15.95.1,0,.21,0,.31,0,16.37-.37,33.49.75,50.87,2.97,18.13,2.32,36.55,5.85,54.75,10.16ZM266.86,114.02c0-.55-.44-1-1-1s-1,.45-1,1,.45,1,1,1,1-.45,1-1ZM266.86,142.64c0-.56-.44-1-1-1s-1,.44-1,1,.45,1,1,1,1-.45,1-1ZM261.02,121.48v-16.92h-25.08v16.92h25.08ZM118.86,139.18s19.08-1.85,15.7-10.85c-3.39-9-20.85,0-20.85,0l5.15,10.85Z"/>
      <path class="cls-15" d="M274.41,52.78v46.56c-18.2-4.31-36.62-7.84-54.75-10.16v-.07c6.73.89,13.26,1.1,17.3,1.51,13.35,1.34,12.52-3.75,12.52-3.75v-25.69s.23-5.39-6.23-5.39c-.81,0-1.83.09-3.03.26l-.11-.78c10.21-1.51,21.62-2.49,34.03-2.49h.27ZM268.4,68.48c0-2.8-2.27-5.07-5.08-5.07s-5.07,2.27-5.07,5.07,2.27,5.08,5.07,5.08,5.08-2.27,5.08-5.08ZM266.86,58.41c0-.56-.44-1-1-1s-1,.44-1,1,.45,1,1,1,1-.45,1-1ZM266.86,86.33c0-.55-.44-1-1-1s-1,.45-1,1,.45,1,1,1,1-.45,1-1Z"/>
      <path class="cls-18" d="M274.19,37.38c-.04,1.71-.05,3.37-.05,4.92.02,6.01.27,10.48.27,10.48h-.27c-12.41,0-23.82.98-34.03,2.49-34.42,5.09-55.32,16.21-55.32,16.21l-16.31,14.66v.08c-27.18.64-52.31,5.38-73.28,15.95h0c59.33-31.7,133.62-69.7,183.22-89.12-3.09,4.06-4.04,14.97-4.23,24.33Z"/>
      <path class="cls-15" d="M263.32,63.41c2.81,0,5.08,2.27,5.08,5.07s-2.27,5.08-5.08,5.08-5.07-2.27-5.07-5.08,2.27-5.07,5.07-5.07Z"/>
      <circle class="cls-15" cx="265.86" cy="58.41" r="1"/>
      <circle class="cls-15" cx="265.86" cy="86.33" r="1"/>
      <circle class="cls-21" cx="265.86" cy="114.02" r="1"/>
      <circle class="cls-21" cx="265.86" cy="142.64" r="1"/>
      <polygon class="cls-19" points="261.02 104.56 261.02 121.48 235.94 121.48 235.94 113.71 247.79 113.71 247.79 104.56 261.02 104.56"/>
      <path class="cls-13" d="M249.48,86.87s.83,5.09-12.52,3.75c-4.04-.41-10.57-.62-17.29-1.51-11.96-1.59-24.5-5.32-24.5-16.17,0,0-.44-3.76,8.92-7,10.79-3.72,27.73-8.7,36.13-9.89,1.2-.17,2.22-.26,3.03-.26,6.46,0,6.23,5.39,6.23,5.39v25.69ZM240.86,85.33v-23l-20.68,5.54v14l10.34,3.46h10.34ZM212.94,81.87v-14l-13.85,6.07,8.62,7.93h5.23Z"/>
      <rect class="cls-18" x="235.94" y="104.56" width="11.85" height="9.15"/>
      <polygon class="cls-14" points="240.86 62.33 240.86 85.33 230.52 85.33 220.18 81.87 220.18 67.87 240.86 62.33"/>
      <path class="cls-15" d="M240.11,55.27l.11.78c-8.4,1.19-25.34,6.17-36.13,9.89-9.36,3.24-8.92,7-8.92,7,0,10.85,12.54,14.58,24.5,16.17v.07c-17.39-2.22-34.51-3.34-50.88-2.97-.1,0-.21,0-.31,0v-.08l16.31-14.66s20.9-11.12,55.32-16.21Z"/>
      <path class="cls-11" d="M232.17,149.56v13c-8.17-.87-16.15-1.47-23.93-1.84v-.17s.01-11.3.01-11.3c0,0-.85-3.46,4.23-3.46h16.23s3.46-.15,3.46,3.77Z"/>
      <polygon class="cls-14" points="212.94 67.87 212.94 81.87 207.71 81.87 199.09 73.94 212.94 67.87"/>
      <path class="cls-13" d="M203.61,201.48c-.2.76-.45,1.5-.75,2.22-3.17,7.94-10.93,13.55-20,13.55-11.89,0-21.54-9.64-21.54-21.54,0-4.18,1.2-8.08,3.26-11.38l-.02-.32c4.37-.22,9.12-.43,14.3-.63,6.44-.24,13.52-.46,21.31-.65v.16c2.66,3.58,4.23,8.02,4.23,12.82,0,2-.27,3.94-.79,5.77ZM187.86,195.71c0-2.76-2.24-5-5-5s-5,2.24-5,5,2.24,5,5,5,5-2.23,5-5Z"/>
      <circle class="cls-11" cx="182.86" cy="195.71" r="5"/>
      <path class="cls-14" d="M174.9,160.55l3.96,22.83c-5.18.2-9.93.41-14.3.63-48.11,2.42-49.7,6.09-49.7,6.09h-3.43l-9.35-19.92c4.9-1.14,10.05-2.23,15.44-3.24,16.89-3.18,36.14-5.6,57.38-6.39Z"/>
      <path class="cls-11" d="M134.56,128.33c3.38,9-15.7,10.85-15.7,10.85l-5.15-10.85s17.46-9,20.85,0Z"/>
      <path class="cls-21" d="M115.8,161.94l1.72,5c-5.39,1.01-10.54,2.1-15.44,3.24-39.67,9.21-62.76,21.53-62.76,21.53,0,0-8.15-5.77-23.07-5.77S.25,183.33.25,154.25c0,0,41.38-23.47,94.95-52.09h0s7.34,21.31,7.34,21.31c0,0-27.6,4.63-23.75,16.94,3.84,12.3,6.77,21.53,6.77,21.53,0,0,1.95,11.62,30.24,0Z"/>
      <path class="cls-21" d="M102.54,123.47l13.26,38.47c-28.29,11.62-30.24,0-30.24,0,0,0-2.93-9.23-6.77-21.53-3.85-12.31,23.75-16.94,23.75-16.94Z"/>
      <polygon class="cls-13" points="114.86 190.1 114.86 201.48 39.32 201.48 52.66 190.1 111.43 190.1 114.86 190.1"/>
      <path class="cls-14" d="M102.08,170.18l9.35,19.92h-58.77l-13.34,11.38v-9.77s23.09-12.32,62.76-21.53Z"/>
    </g>
    <g>
      <polyline class="cls-4" points="922.21 .25 922.21 34.3 922.21 42.3 922.21 52.78 922.21 117.67 922.21 169.7"/>
      <path class="cls-2" d="M274.41,52.78s-.25-4.47-.27-10.48c0-1.55.01-3.21.05-4.92.19-9.36,1.14-20.27,4.23-24.33"/>
      <polyline class="cls-2" points="117.52 166.94 115.8 161.94 102.54 123.47 95.2 102.17"/>
      <line class="cls-2" x1="111.43" y1="190.1" x2="102.08" y2="170.18"/>
      <path class="cls-2" d="M115.8,161.94c-28.29,11.62-30.24,0-30.24,0,0,0-2.93-9.23-6.77-21.53-3.85-12.31,23.75-16.94,23.75-16.94"/>
      <path class="cls-2" d="M113.71,128.33s17.46-9,20.85,0c3.38,9-15.7,10.85-15.7,10.85l-5.15-10.85Z"/>
      <path class="cls-2" d="M208.25,160.55v-11.3s-.85-3.46,4.23-3.46h16.23s3.46-.15,3.46,3.77v13"/>
      <path class="cls-8" d="M258.25,68.48c0-2.8,2.27-5.07,5.07-5.07s5.08,2.27,5.08,5.07-2.27,5.08-5.08,5.08-5.07-2.27-5.07-5.08Z"/>
      <polygon class="cls-2" points="394.09 3.74 344.04 3.74 324.04 32.92 394.09 32.92 394.09 3.74"/>
      <polyline class="cls-2" points="274.14 42.3 403.02 42.3 922.21 42.3"/>
      <polyline class="cls-2" points="403.02 .25 403.02 3.74 403.02 34.3 403.02 37.38 403.02 42.3"/>
      <polyline class="cls-2" points="274.18 37.38 274.19 37.38 403.02 37.38"/>
      <polyline class="cls-2" points="403.02 34.3 554.3 34.3 725.07 34.3 725.07 3.74 725.07 .25"/>
      <polyline class="cls-2" points="554.3 .25 554.3 3.74 554.3 34.3"/>
      <polyline class="cls-7" points="359.07 154.18 433.43 154.18 636.25 154.18 909.48 154.18"/>
      <path class="cls-3" d="M322.69,181.94c-3.11,3.74-4.98,8.54-4.98,13.77,0,2,.27,3.94.78,5.77.21.76.46,1.5.75,2.22,3.17,7.94,10.94,13.55,20.01,13.55,11.89,0,21.54-9.64,21.54-21.54,0-5.2-1.85-9.97-4.92-13.7"/>
      <path class="cls-3" d="M164.58,184.33c-2.06,3.3-3.26,7.2-3.26,11.38,0,11.9,9.65,21.54,21.54,21.54,9.07,0,16.83-5.61,20-13.55.3-.72.55-1.46.75-2.22.52-1.83.79-3.77.79-5.77,0-4.8-1.57-9.24-4.23-12.82"/>
      <path class="cls-3" d="M679.72,181.92c-3.13,3.73-5.01,8.54-5.01,13.79,0,2.83.54,5.52,1.53,7.99,3.17,7.94,10.94,13.55,20.01,13.55,9.89,0,18.23-6.67,20.75-15.77.52-1.83.79-3.77.79-5.77,0-5.3-1.91-10.15-5.09-13.89"/>
      <path class="cls-3" d="M818.06,181.53c-3.34,3.78-5.35,8.74-5.35,14.18,0,2,.27,3.94.78,5.77.21.76.46,1.5.75,2.22,3.17,7.94,10.94,13.55,20.01,13.55,11.89,0,21.54-9.64,21.54-21.54,0-5.48-2.05-10.48-5.43-14.28"/>
      <polyline class="cls-2" points="174.9 160.55 178.86 183.38 178.86 183.39"/>
      <polyline class="cls-1" points="305.58 71.94 305.58 107.48 305.58 145.79"/>
      <polyline class="cls-1" points="351.73 71.94 351.73 122.05 351.73 145.79"/>
      <path class="cls-1" d="M314.81,138.79c0,.39.03.78.1,1.15.54,3.32,3.43,5.85,6.9,5.85h13.39c3.86,0,7-3.13,7-7V59.78c0-3.86-3.14-7-7-7h-13.39c-3.86,0-7,3.14-7,7v24.29"/>
      <polyline class="cls-1" points="314.81 102.53 314.81 110.16 314.81 121.48"/>
      <path class="cls-1" d="M314.81,121.48h7.41c2.76,0,5,2.24,5,5v8.46c0,2.77-2.24,5-5,5h-7.41v-18.46Z"/>
      <path class="cls-1" d="M314.81,84.07h7.41c2.76,0,5,2.24,5,5v8.46c0,2.77-2.24,5-5,5h-7.41v-18.46Z"/>
    </g>
  </g>
</svg>