<svg id="Layer_2" xmlns="http://www.w3.org/2000/svg" version="1.1" xmlns:xlink="http://www.w3.org/1999/xlink" viewBox="0.3 -16.33 8761.8 250.17">
  <!-- Generator: Adobe Illustrator 29.3.1, SVG Export Plug-In . SVG Version: 2.1.0 Build 151)  -->
  <defs>
    <style>
      .st0, .st1, .st2, .st3, .st4, .st5, .st6, .st7 {
        fill: none;
      }

      .st0, .st1, .st2, .st3, .st4, .st6, .st7 {
        stroke-miterlimit: 10;
      }

      .st0, .st5, .st6 {
        stroke: #000;
      }

      .st8 {
        fill: #034684;
      }

      .st9 {
        fill: #cbcdcf;
      }

      .st1 {
        stroke: #cdcfd0;
      }

      .st10 {
        fill: #fff;
      }

      .st2 {
        stroke: #cbcdcf;
      }

      .st2, .st3, .st4, .st5, .st6 {
        stroke-width: 3px;
      }

      .st11 {
        fill: url(#linear-gradient1);
      }

      .st12 {
        fill: #ef3824;
      }

      .st13 {
        fill: #0263a0;
      }

      .st14 {
        fill: #cdcfd0;
      }

      .st3, .st7 {
        stroke: #38414e;
      }

      .st4 {
        stroke: #ef3824;
      }

      .st5 {
        stroke-linecap: round;
        stroke-linejoin: round;
      }

      .st15 {
        fill: url(#linear-gradient);
      }

      .st16 {
        fill: #0f151a;
      }

      .st17 {
        fill: #38414e;
      }

      .st18 {
        fill: #4f0104;
      }
    </style>
    <linearGradient id="linear-gradient" x1="8126.1" y1="143.7" x2="7840.1" y2="143.7" gradientUnits="userSpaceOnUse">
      <stop offset="0" stop-color="#fff"/>
      <stop offset="1" stop-color="#034684"/>
    </linearGradient>
    <linearGradient id="linear-gradient1" x1="636.3" y1="143.7" x2="922.2" y2="143.7" xlink:href="#linear-gradient"/>
  </defs>
  <g id="right-loco">
    <g>
      <rect class="st18" x="7840.1" y="176.7" width="39.4" height="24.8"/>
      <path class="st12" d="M7840.1,169.7v7h39.4l13.2,4.7h19.3c3.9-4.4,9.7-7.2,16.1-7.2s12.3,2.9,16.2,7.4l105.3.3c3.9-4.7,9.9-7.6,16.5-7.6s12.6,3,16.5,7.8h8.5s301.8,0,301.8,0h94.9v-12.2h-647.8Z"/>
      <polygon class="st15" points="8126.1 154.2 8126.1 117.7 7840.1 117.7 7840.1 169.7 8126.1 169.7 8126.1 154.2"/>
      <path class="st10" d="M8410.6,122.1c3.1-1.1,6.3-2.2,9.5-3.2v-59c0-3.9,3.1-7,7-7h-587v64.9h286v36.5h202.8c20.5-9.1,49.1-20.9,81.7-32.1Z"/>
      <path class="st13" d="M7840.1,42.3v10.5h647.8s.3-4.5.3-10.5h-648.1Z"/>
      <polygon class="st13" points="7840.1 34.3 7840.1 42.3 8359.3 42.3 8359.3 37.4 8359.3 34.3 8208 34.3 8037.3 34.3 7840.1 34.3"/>
      <path class="st13" d="M7840.1.3v34h197.1V.3h-13.3s1,18.5-10.5,18.5l-32,.2s-10.9,1.8-10.9-18.7h-130.5Z"/>
      <path d="M7912,181.4c-3.4,3.8-5.4,8.8-5.4,14.3,0,11.9,9.6,21.5,21.5,21.5s16.8-5.6,20-13.6c.3-.7.5-1.5.8-2.2.5-1.8.8-3.8.8-5.8,0-5.4-2-10.4-5.3-14.2h-32.3ZM7923.1,195.7c0-2.8,2.2-5,5-5s5,2.2,5,5-2.2,5-5,5-5-2.2-5-5Z"/>
      <path class="st12" d="M7912,181.4h32.3c-3.9-4.4-9.7-7.3-16.2-7.3s-12.2,2.8-16.1,7.3Z"/>
      <circle class="st14" cx="7928.1" cy="195.7" r="5"/>
      <path class="st16" d="M8049.6,181.8l-105.3-.3c3.3,3.8,5.3,8.8,5.3,14.2s-.3,3.9-.8,5.8h96.5c-.5-1.8-.8-3.8-.8-5.8,0-5.3,1.9-10.1,5.1-13.9Z"/>
      <rect class="st17" x="8037.3" y="3.7" width="170.8" height="30.6"/>
      <path class="st13" d="M8037.3.3v3.5h170.8V.3h-170.8Z"/>
      <path d="M8044.6,195.7c0,2,.3,3.9.8,5.8,2.5,9.1,10.9,15.8,20.8,15.8s16.8-5.6,20-13.6c1-2.5,1.5-5.2,1.5-8,0-5.2-1.9-10-5-13.8h-33c-3.2,3.6-5.1,8.5-5.1,13.8ZM8061.1,195.7c0-2.8,2.2-5,5-5s5,2.2,5,5-2.2,5-5,5-5-2.2-5-5Z"/>
      <path class="st12" d="M8049.6,181.8h33c-3.9-4.6-9.9-7.6-16.5-7.6s-12.5,3-16.5,7.6Z"/>
      <circle class="st14" cx="8066.1" cy="195.7" r="5"/>
      <polygon class="st18" points="8091.2 181.9 8103.3 201.5 8379.2 201.5 8393 181.9 8091.2 181.9"/>
      <path class="st10" d="M8126.1,154.2v15.5h169.4s12.6-6.3,33.4-15.5h-202.8Z"/>
      <rect class="st17" x="8208" y="3.7" width="151.3" height="30.6"/>
      <path class="st13" d="M8208,.3v3.5h151.3V.3h-151.3Z"/>
      <path class="st9" d="M8328.9,154.2c-20.9,9.2-33.4,15.5-33.4,15.5h190.6c.6-.1,1.2-.3,1.9-.4v-70c-10.5,2.5-20.9,5.2-31.2,8.1-3.1.9-6.2,1.8-9.2,2.7v29.8h0c-.6,3.3-3.4,5.8-6.9,5.8h-13.4c-3.9,0-7-3.1-7-7v-20c-3.2,1.1-6.4,2.1-9.5,3.2-32.5,11.2-61.1,23.1-81.7,32.1ZM8420.1,152.4v-4h27.4v4h-27.4ZM8423.1,166.5v-8.1h19.4v8.1h-19.4Z"/>
      <path class="st13" d="M8359.3,37.4v4.9h128.9c0-1.5,0-3.2,0-4.9h-128.8Z"/>
      <path class="st13" d="M8359.3,34.3v3.1h128.8c-.2-9.4-1.1-20.3-4.2-24.3-20.3-8-36.5-12.8-45.8-12.8h-78.8v34ZM8368.2,32.9V3.7h50.1l20,29.2h-70.1Z"/>
      <polygon class="st17" points="8368.2 3.7 8368.2 32.9 8438.3 32.9 8418.3 3.7 8368.2 3.7"/>
      <path d="M8443.9,201.5c.5-1.8.8-3.8.8-5.8,0-5.2-1.9-10-5-13.8h-33.2c-3.1,3.8-4.9,8.6-4.9,13.8,0,11.9,9.6,21.5,21.5,21.5s16.8-5.6,20-13.6c.3-.7.5-1.5.8-2.2ZM8418.7,195.7c0-2.8,2.2-5,5-5s5,2.2,5,5-2.2,5-5,5-5-2.2-5-5Z"/>
      <circle class="st14" cx="8423.7" cy="195.7" r="5"/>
      <rect x="8420.1" y="148.4" width="27.4" height="4"/>
      <path class="st9" d="M8420.1,118.8v20c0,3.9,3.1,7,7,7h13.4c3.5,0,6.4-2.5,6.9-5.8h-7.3c-2.8,0-5-2.2-5-5v-8.5c0-2.8,2.2-5,5-5h7.4v-11.3c-9.3,2.8-18.5,5.7-27.4,8.7Z"/>
      <path class="st10" d="M8420.1,59.8v59c8.9-3,18.1-5.9,27.4-8.7v-7.6h-7.4c-2.8,0-5-2.2-5-5v-8.5c0-2.8,2.2-5,5-5h7.4v-24.3c0-3.9-3.1-7-7-7h-13.4c-3.9,0-7,3.1-7,7Z"/>
      <rect x="8423.1" y="158.4" width="19.4" height="8.1"/>
      <path class="st9" d="M8435.1,126.5v8.5c0,2.8,2.2,5,5,5h7.3c0-.4,0-.8,0-1.2v-17.3h-7.4c-2.8,0-5,2.2-5,5Z"/>
      <path class="st10" d="M8435.1,89.1v8.5c0,2.8,2.2,5,5,5h7.4v-18.5h-7.4c-2.8,0-5,2.2-5,5Z"/>
      <path class="st16" d="M8487.9,181.9h-48.3c3.1,3.7,5,8.5,5,13.8s-.3,3.9-.8,5.8h114.9c-.5-1.8-.8-3.8-.8-5.8,0-4.8,1.6-9.2,4.2-12.8v-.2c-19.7-.5-44-.8-73.9-.8h-.3Z"/>
      <path class="st10" d="M8456.8,107.5c10.2-2.9,20.7-5.7,31.2-8.1v-46.6h-47.4c3.9,0,7,3.1,7,7v50.4c3.1-.9,6.1-1.8,9.2-2.7ZM8466.6,80.2v-6.4c0-2.2,1.8-4,4-4h9.3c2.2,0,4,1.8,4,4v6.4c0,2.2-1.8,4-4,4h-9.3c-2.2,0-4-1.8-4-4Z"/>
      <rect x="8466.6" y="69.8" width="17.3" height="14.4" rx="4" ry="4"/>
      <path class="st17" d="M8487.9,169.7v12.2h.3c29.9,0,54.2.3,73.9.8,7.8.2,14.9.4,21.3.6l4-22.8c-10.6-.4-21.8-.4-33.3.2-7.8.4-15.8,1-23.9,1.8-13.6,1.5-27.7,3.6-42.2,6.8v.4Z"/>
      <path class="st9" d="M8487.9,99.3v70c14.6-3.1,28.7-5.3,42.2-6.8v-13c0-3.9,3.5-3.8,3.5-3.8h16.2c5.1,0,4.2,3.5,4.2,3.5v11.5c11.6-.5,22.7-.6,33.3-.2,21.2.8,40.5,3.2,57.4,6.4l1.7-5,13.3-38.5,7.3-21.3s0,0,0,0c-21-10.5-46.1-15.2-73.2-15.9-.1,0-.2,0-.3,0-16.4-.4-33.5.8-50.9,3-18.1,2.3-36.6,5.8-54.8,10.2ZM8495.5,114c0-.6.4-1,1-1s1,.4,1,1-.5,1-1,1-1-.5-1-1ZM8495.5,142.6c0-.5.4-1,1-1s1,.5,1,1-.5,1-1,1-1-.4-1-1ZM8501.3,121.5v-16.9h25.1v16.9h-25.1ZM8643.5,139.2s-19.1-1.8-15.7-10.8c3.4-9,20.9,0,20.9,0l-5.1,10.8Z"/>
      <path class="st10" d="M8487.9,52.8v46.6c18.2-4.3,36.6-7.8,54.8-10.2h0c-6.7.8-13.2,1-17.3,1.4-13.4,1.3-12.5-3.8-12.5-3.8v-25.7s-.2-5.4,6.2-5.4,1.8,0,3,.3v-.8c-10.1-1.5-21.5-2.5-33.9-2.5h-.3ZM8493.9,68.5c0-2.8,2.3-5.1,5.1-5.1s5.1,2.3,5.1,5.1-2.3,5.1-5.1,5.1-5.1-2.3-5.1-5.1ZM8495.5,58.4c0-.5.4-1,1-1s1,.5,1,1-.5,1-1,1-1-.4-1-1ZM8495.5,86.3c0-.6.4-1,1-1s1,.4,1,1-.5,1-1,1-1-.5-1-1Z"/>
      <path class="st13" d="M8487.9,52.8h.3c12.4,0,23.8,1,34,2.5,34.4,5.1,55.3,16.2,55.3,16.2l16.3,14.7h0c27.1.7,52.2,5.4,73.2,16-59.3-31.7-133.6-69.7-183.1-89.1,3.1,4.1,4,15,4.2,24.3,0,1.7,0,3.4,0,4.9,0,6-.3,10.5-.3,10.5Z"/>
      <path class="st10" d="M8499,63.4c-2.8,0-5.1,2.3-5.1,5.1s2.3,5.1,5.1,5.1,5.1-2.3,5.1-5.1-2.3-5.1-5.1-5.1Z"/>
      <circle class="st10" cx="8496.5" cy="58.4" r="1"/>
      <circle class="st10" cx="8496.5" cy="86.3" r="1"/>
      <circle class="st9" cx="8496.5" cy="114" r="1"/>
      <circle class="st9" cx="8496.5" cy="142.6" r="1"/>
      <polygon class="st12" points="8501.3 104.6 8501.3 121.5 8526.4 121.5 8526.4 113.7 8514.6 113.7 8514.6 104.6 8501.3 104.6"/>
      <path d="M8512.9,86.9s-.8,5.1,12.5,3.8c4-.4,10.6-.6,17.3-1.5,12-1.6,24.5-5.3,24.5-16.2,0,0,.4-3.8-8.9-7-10.8-3.7-27.7-8.7-36.1-9.9s-2.2-.3-3-.3c-6.5,0-6.2,5.4-6.2,5.4v25.7ZM8521.5,85.3v-23l20.7,5.5v14l-10.3,3.5h-10.3ZM8549.4,81.9v-14l13.8,6.1-8.6,7.9h-5.2Z"/>
      <rect class="st13" x="8514.6" y="104.6" width="11.8" height="9.1"/>
      <polygon class="st17" points="8521.5 62.3 8521.5 85.3 8531.8 85.3 8542.2 81.9 8542.2 67.9 8521.5 62.3"/>
      <path class="st10" d="M8522.2,55.3v.8c8.3,1.2,25.2,6.2,36,9.9,9.4,3.2,8.9,7,8.9,7,0,10.8-12.5,14.6-24.5,16.2h0c17.4-2.2,34.5-3.3,50.9-2.9,0,0,.2,0,.3,0h0c0,0-16.3-14.7-16.3-14.7,0,0-20.9-11.1-55.3-16.2Z"/>
      <path class="st14" d="M8530.2,149.6v13c8.2-.9,16.2-1.5,23.9-1.8v-.2s0-11.3,0-11.3c0,0,.8-3.5-4.2-3.5h-16.2s-3.5-.2-3.5,3.8Z"/>
      <polygon class="st17" points="8549.4 67.9 8549.4 81.9 8554.6 81.9 8563.2 73.9 8549.4 67.9"/>
      <path d="M8558.7,201.5c.2.8.5,1.5.7,2.2,3.2,7.9,10.9,13.6,20,13.6s21.5-9.6,21.5-21.5-1.2-8.1-3.2-11.4v-.3c-4.3-.2-9.1-.4-14.3-.6-6.4-.2-13.5-.5-21.3-.6v.2c-2.7,3.6-4.2,8-4.2,12.8s.3,3.9.8,5.8ZM8574.5,195.7c0-2.8,2.2-5,5-5s5,2.2,5,5-2.2,5-5,5-5-2.2-5-5Z"/>
      <path class="st14" d="M8579.5,190.7c-2.8,0-5,2.2-5,5s2.2,5,5,5,5-2.2,5-5-2.2-5-5-5Z"/>
      <path class="st17" d="M8587.4,160.6l-4,22.8c5.2.2,9.9.4,14.3.6,48.1,2.4,49.7,6.1,49.7,6.1h3.4l9.3-19.9c-4.9-1.1-10-2.2-15.4-3.2-16.9-3.2-36.1-5.6-57.4-6.4Z"/>
      <path class="st14" d="M8627.8,128.3c-3.4,9,15.7,10.8,15.7,10.8l5.1-10.8s-17.5-9-20.9,0Z"/>
      <path class="st9" d="M8646.5,161.9l-1.7,5c5.4,1,10.5,2.1,15.4,3.2,39.7,9.2,62.8,21.5,62.8,21.5,0,0,8.2-5.8,23.1-5.8s16-2.6,16-31.7c0,0-41.4-23.5-95-52.1l-7.3,21.3s27.6,4.6,23.8,16.9c-3.8,12.3-6.8,21.5-6.8,21.5,0,0-2,11.6-30.2,0Z"/>
      <path class="st9" d="M8659.8,123.5l-13.3,38.5c28.3,11.6,30.2,0,30.2,0,0,0,2.9-9.2,6.8-21.5,3.8-12.3-23.8-16.9-23.8-16.9Z"/>
      <polygon points="8647.5 190.1 8647.5 201.5 8723 201.5 8709.7 190.1 8650.9 190.1 8647.5 190.1"/>
      <path class="st17" d="M8660.3,170.2l-9.3,19.9h58.8l13.3,11.4v-9.8s-23.1-12.3-62.8-21.5Z"/>
    </g>
    <g>
      <polyline class="st3" points="7840.1 .3 7840.1 34.3 7840.1 42.3 7840.1 52.8 7840.1 117.7 7840.1 169.7"/>
      <path class="st0" d="M8487.9,52.8s.3-4.5.3-10.5c0-1.5,0-3.2,0-4.9-.2-9.4-1.1-20.3-4.2-24.3"/>
      <polyline class="st0" points="8644.8 166.9 8646.5 161.9 8659.8 123.5 8667.1 102.2"/>
      <line class="st0" x1="8650.9" y1="190.1" x2="8660.3" y2="170.2"/>
      <path class="st0" d="M8646.5,161.9c28.3,11.6,30.2,0,30.2,0,0,0,2.9-9.2,6.8-21.5,3.8-12.3-23.8-16.9-23.8-16.9"/>
      <path class="st0" d="M8648.6,128.3s-17.5-9-20.9,0c-3.4,9,15.7,10.8,15.7,10.8l5.1-10.8Z"/>
      <path class="st0" d="M8554.1,160.6v-11.3s.8-3.5-4.2-3.5h-16.2s-3.5-.2-3.5,3.8v13"/>
      <path class="st1" d="M8504.1,68.5c0-2.8-2.3-5.1-5.1-5.1s-5.1,2.3-5.1,5.1,2.3,5.1,5.1,5.1,5.1-2.3,5.1-5.1Z"/>
      <polygon class="st0" points="8368.2 3.7 8418.3 3.7 8438.3 32.9 8368.2 32.9 8368.2 3.7"/>
      <polyline class="st0" points="8488.2 42.3 8359.3 42.3 7840.1 42.3"/>
      <polyline class="st0" points="8359.3 .3 8359.3 3.7 8359.3 34.3 8359.3 37.4 8359.3 42.3"/>
      <line class="st0" x1="8488.2" y1="37.4" x2="8359.3" y2="37.4"/>
      <polyline class="st0" points="8359.3 34.3 8208 34.3 8037.3 34.3 8037.3 3.7 8037.3 .3"/>
      <polyline class="st0" points="8208 .3 8208 3.7 8208 34.3"/>
      <polyline class="st4" points="8403.3 154.2 8328.9 154.2 8126.1 154.2 7852.9 154.2"/>
      <path class="st2" d="M8439.7,181.9c3.1,3.7,5,8.5,5,13.8s-.3,3.9-.8,5.8c-.2.8-.5,1.5-.8,2.2-3.2,7.9-10.9,13.6-20,13.6s-21.5-9.6-21.5-21.5,1.8-10,4.9-13.7"/>
      <path class="st2" d="M8597.8,184.3c2.1,3.3,3.2,7.2,3.2,11.4,0,11.9-9.6,21.5-21.5,21.5s-16.8-5.6-20-13.6c-.3-.7-.5-1.5-.7-2.2-.5-1.8-.8-3.8-.8-5.8,0-4.8,1.6-9.2,4.2-12.8"/>
      <path class="st2" d="M8082.6,181.9c3.1,3.7,5,8.5,5,13.8s-.5,5.5-1.5,8c-3.2,7.9-10.9,13.6-20,13.6s-18.2-6.7-20.8-15.8c-.5-1.8-.8-3.8-.8-5.8,0-5.3,1.9-10.1,5.1-13.9"/>
      <path class="st2" d="M7944.3,181.5c3.3,3.8,5.3,8.8,5.3,14.2s-.3,3.9-.8,5.8c-.2.8-.5,1.5-.8,2.2-3.2,7.9-10.9,13.6-20,13.6s-21.5-9.6-21.5-21.5,2-10.5,5.4-14.3"/>
      <line class="st0" x1="8587.4" y1="160.6" x2="8583.5" y2="183.4"/>
      <polyline class="st7" points="8456.8 71.9 8456.8 107.5 8456.8 145.8"/>
      <polyline class="st7" points="8410.6 71.9 8410.6 122.1 8410.6 145.8"/>
      <path class="st7" d="M8447.5,138.8c0,.4,0,.8,0,1.2-.6,3.3-3.4,5.8-6.9,5.8h-13.4c-3.9,0-7-3.1-7-7V59.8c0-3.9,3.1-7,7-7h13.4c3.9,0,7,3.1,7,7v24.3"/>
      <polyline class="st7" points="8447.5 102.5 8447.5 110.2 8447.5 121.5"/>
      <path class="st7" d="M8447.5,121.5h-7.4c-2.8,0-5,2.2-5,5v8.5c0,2.8,2.2,5,5,5h7.4v-18.5Z"/>
      <path class="st7" d="M8447.5,84.1h-7.4c-2.8,0-5,2.2-5,5v8.5c0,2.8,2.2,5,5,5h7.4v-18.5Z"/>
    </g>
  </g>
  <g id="right-cars">
    <g>
      <rect class="st18" x="5539.2" y="176.7" width="77.2" height="24.8"/>
      <rect class="st12" x="5539.2" y="169.7" width="77.2" height="7"/>
      <path class="st8" d="M5539.2,117.4v52.3h1109s33.2-33.1,33.2-33.1v-19.2h-36.2v31.4c0,2.8-2.2,5-5,5h-46.9c-2.8,0-5-2.2-5-5v-31.4h-1049.1Z"/>
      <path class="st10" d="M5539.2,52.8v64.6h1049.1V52.8h-1049.1ZM5629.6,99v-31.2c0-2.8,2.2-5,5-5h74.1c2.8,0,5,2.2,5,5v31.2c0,2.8-2.2,5-5,5h-74.1c-2.8,0-5-2.2-5-5ZM5765.1,99v-31.2c0-2.8,2.2-5,5-5h74.1c2.8,0,5,2.2,5,5v31.2c0,2.8-2.2,5-5,5h-74.1c-2.8,0-5-2.2-5-5ZM5879.4,99v-31.2c0-2.8,2.2-5,5-5h74.1c2.8,0,5,2.2,5,5v31.2c0,2.8-2.2,5-5,5h-74.1c-2.8,0-5-2.2-5-5ZM5994.2,99v-31.2c0-2.8,2.2-5,5-5h74.1c2.8,0,5,2.2,5,5v31.2c0,2.8-2.2,5-5,5h-74.1c-2.8,0-5-2.2-5-5ZM6108.2,99v-31.2c0-2.8,2.2-5,5-5h74.1c2.8,0,5,2.2,5,5v31.2c0,2.8-2.2,5-5,5h-74.1c-2.8,0-5-2.2-5-5ZM6220.8,98.7v-31.2c0-2.8,2.2-5,5-5h74.1c2.8,0,5,2.2,5,5v31.2c0,2.8-2.2,5-5,5h-74.1c-2.8,0-5-2.2-5-5ZM6334.2,98.7v-31.2c0-2.8,2.2-5,5-5h74.1c2.8,0,5,2.2,5,5v31.2c0,2.8-2.2,5-5,5h-74.1c-2.8,0-5-2.2-5-5Z"/>
      <path class="st13" d="M5539.2.3v52.5h1049.1v-13.7c0-2.8,2.2-5,5-5h46.9c2.8,0,5,2.2,5,5v13.7h36.2V.3h-1142.2Z"/>
      <path class="st16" d="M5616.4,176.7v24.8h10.6l.7-.2c-.5-1.8-.7-3.7-.7-5.6,0-8.3,4.7-15.4,11.5-19h-22.1Z"/>
      <path class="st16" d="M5616.4,169.7v7h22.1c3-1.6,6.4-2.5,10.1-2.5s7.1.9,10.1,2.5h136.9c3-1.6,6.4-2.5,10.1-2.5s7.1.9,10.1,2.5h23.2v-7h-222.5Z"/>
      <path d="M5627,195.7c0,1.9.3,3.8.7,5.6.2.8.5,1.6.8,2.4,3.2,7.9,10.9,13.6,20,13.6s18.2-6.7,20.8-15.8c.5-1.8.8-3.8.8-5.8,0-8.3-4.7-15.4-11.5-19h-20.1c-6.8,3.6-11.5,10.8-11.5,19ZM5643.6,195.7c0-2.8,2.2-5,5-5s5,2.2,5,5-2.2,5-5,5-5-2.2-5-5Z"/>
      <path class="st17" d="M5629.6,67.8v31.2c0,2.8,2.2,5,5,5h74.1c2.8,0,5-2.2,5-5v-31.2c0-2.8-2.2-5-5-5h-74.1c-2.8,0-5,2.2-5,5Z"/>
      <path d="M5638.5,176.7h20.1c-3-1.6-6.4-2.5-10.1-2.5s-7.1.9-10.1,2.5Z"/>
      <circle class="st14" cx="5648.6" cy="195.7" r="5"/>
      <path class="st16" d="M5795.5,176.7h-136.9c6.8,3.6,11.5,10.8,11.5,19s-.3,3.9-.8,5.8h114.7l.7-.2c-.5-1.8-.7-3.7-.7-5.6,0-8.3,4.7-15.4,11.5-19Z"/>
      <path class="st17" d="M5765.1,67.8v31.2c0,2.8,2.2,5,5,5h74.1c2.8,0,5-2.2,5-5v-31.2c0-2.8-2.2-5-5-5h-74.1c-2.8,0-5,2.2-5,5Z"/>
      <path d="M5784,195.7c0,1.9.3,3.8.7,5.6.2.8.5,1.6.8,2.4,3.2,7.9,10.9,13.6,20,13.6s18.7-7.1,21-16.5c.4-1.6.6-3.3.6-5,0-8.3-4.7-15.4-11.5-19h-20.1c-6.8,3.6-11.5,10.8-11.5,19ZM5800.6,195.7c0-2.8,2.2-5,5-5s5,2.2,5,5-2.2,5-5,5-5-2.2-5-5Z"/>
      <path d="M5795.5,176.7h20.1c-3-1.6-6.4-2.5-10.1-2.5s-7.1.9-10.1,2.5Z"/>
      <circle class="st14" cx="5805.6" cy="195.7" r="5"/>
      <path class="st16" d="M5838.9,176.7h-23.2c6.8,3.6,11.5,10.8,11.5,19s-.2,3.4-.6,5h29.1l-16.7-13.8v-10.3Z"/>
      <polygon class="st18" points="5855.6 200.7 5856.5 201.5 6590.2 201.5 6590.2 176.7 5838.9 176.7 5838.9 186.9 5855.6 200.7"/>
      <rect class="st12" x="5838.9" y="169.7" width="751.4" height="7"/>
      <path class="st17" d="M5879.4,67.8v31.2c0,2.8,2.2,5,5,5h74.1c2.8,0,5-2.2,5-5v-31.2c0-2.8-2.2-5-5-5h-74.1c-2.8,0-5,2.2-5,5Z"/>
      <path class="st17" d="M5994.2,67.8v31.2c0,2.8,2.2,5,5,5h74.1c2.8,0,5-2.2,5-5v-31.2c0-2.8-2.2-5-5-5h-74.1c-2.8,0-5,2.2-5,5Z"/>
      <path class="st17" d="M6108.2,67.8v31.2c0,2.8,2.2,5,5,5h74.1c2.8,0,5-2.2,5-5v-31.2c0-2.8-2.2-5-5-5h-74.1c-2.8,0-5,2.2-5,5Z"/>
      <path class="st17" d="M6220.8,67.5v31.2c0,2.8,2.2,5,5,5h74.1c2.8,0,5-2.2,5-5v-31.2c0-2.8-2.2-5-5-5h-74.1c-2.8,0-5,2.2-5,5Z"/>
      <path class="st17" d="M6334.2,67.5v31.2c0,2.8,2.2,5,5,5h74.1c2.8,0,5-2.2,5-5v-31.2c0-2.8-2.2-5-5-5h-74.1c-2.8,0-5,2.2-5,5Z"/>
      <path class="st9" d="M6588.2,117.4v31.4c0,2.8,2.2,5,5,5h46.9c2.8,0,5-2.2,5-5V39.1c0-2.8-2.2-5-5-5h-46.9c-2.8,0-5,2.2-5,5v78.3ZM6598.9,98.8v-46.5h35.4v46.5h-35.4Z"/>
      <path class="st16" d="M6590.2,176.7v24.8h6.4c-.5-1.8-.8-3.8-.8-5.8,0-11.9,9.6-21.5,21.5-21.5s21.5,9.6,21.5,21.5-.3,3.9-.8,5.8h95.5c-.5-1.8-.8-3.8-.8-5.8,0-11.9,9.6-21.5,21.5-21.5s21.5,9.6,21.5,21.5-.3,3.9-.8,5.8h6.2v-31.8h-57.9s-75.4,0-75.4,0h-57.9s0,6.9,0,6.9Z"/>
      <path d="M6595.9,195.7c0,2,.3,3.9.8,5.8.2.8.5,1.5.8,2.2,3.2,7.9,10.9,13.6,20,13.6s18.2-6.7,20.8-15.8c.5-1.8.8-3.8.8-5.8,0-11.9-9.7-21.5-21.5-21.5s-21.5,9.6-21.5,21.5ZM6612.4,195.7c0-2.8,2.2-5,5-5s5,2.2,5,5-2.2,5-5,5-5-2.2-5-5Z"/>
      <rect class="st17" x="6598.9" y="52.3" width="35.4" height="46.5"/>
      <circle class="st14" cx="6617.4" cy="195.7" r="5"/>
      <rect class="st10" x="6645.2" y="52.8" width="36.2" height="64.6"/>
      <path class="st8" d="M6690.3,117.4v19.2l33.2,33.2h57.9s751.4,0,751.4,0h299.7v-52.3h-1049.1v31.4c0,2.8-2.2,5-5,5h-46.9c-2.8,0-5-2.2-5-5v-31.4h-36.2Z"/>
      <rect class="st10" x="6690.3" y="52.8" width="36.2" height="64.6"/>
      <path class="st13" d="M6690.3.3v52.5h36.2v-13.7c0-2.8,2.2-5,5-5h46.9c2.8,0,5,2.2,5,5v13.7h1049.1V.3h-1142.2Z"/>
      <path class="st9" d="M6726.5,117.4v31.4c0,2.8,2.2,5,5,5h46.9c2.8,0,5-2.2,5-5V39.1c0-2.8-2.2-5-5-5h-46.9c-2.8,0-5,2.2-5,5v78.3ZM6737.3,98.8v-46.5h35.4v46.5h-35.4Z"/>
      <path d="M6732.9,195.7c0,2,.3,3.9.8,5.8.2.8.5,1.5.8,2.2,3.2,7.9,10.9,13.6,20,13.6s18.2-6.7,20.8-15.8c.5-1.8.8-3.8.8-5.8,0-11.9-9.7-21.5-21.5-21.5s-21.5,9.6-21.5,21.5ZM6749.4,195.7c0-2.8,2.2-5,5-5s5,2.2,5,5-2.2,5-5,5-5-2.2-5-5Z"/>
      <rect class="st17" x="6737.3" y="52.3" width="35.4" height="46.5"/>
      <circle class="st14" cx="6754.4" cy="195.7" r="5"/>
      <polygon class="st18" points="7516.1 200.7 7532.8 186.9 7532.8 176.7 6781.4 176.7 6781.4 201.5 7515.1 201.5 7516.1 200.7"/>
      <rect class="st12" x="6781.4" y="169.7" width="751.4" height="7"/>
      <path class="st10" d="M6783.4,52.8v64.6h1049.1V52.8h-1049.1ZM6953.3,98.7v-31.2c0-2.8,2.2-5,5-5h74.1c2.8,0,5,2.2,5,5v31.2c0,2.8-2.2,5-5,5h-74.1c-2.8,0-5-2.2-5-5ZM7066.8,98.7v-31.2c0-2.8,2.2-5,5-5h74.1c2.8,0,5,2.2,5,5v31.2c0,2.8-2.2,5-5,5h-74.1c-2.8,0-5-2.2-5-5ZM7179.3,99v-31.2c0-2.8,2.2-5,5-5h74.1c2.8,0,5,2.2,5,5v31.2c0,2.8-2.2,5-5,5h-74.1c-2.8,0-5-2.2-5-5ZM7293.4,99v-31.2c0-2.8,2.2-5,5-5h74.1c2.8,0,5,2.2,5,5v31.2c0,2.8-2.2,5-5,5h-74.1c-2.8,0-5-2.2-5-5ZM7408.2,99v-31.2c0-2.8,2.2-5,5-5h74.1c2.8,0,5,2.2,5,5v31.2c0,2.8-2.2,5-5,5h-74.1c-2.8,0-5-2.2-5-5ZM7522.4,99v-31.2c0-2.8,2.2-5,5-5h74.1c2.8,0,5,2.2,5,5v31.2c0,2.8-2.2,5-5,5h-74.1c-2.8,0-5-2.2-5-5ZM7657.9,99v-31.2c0-2.8,2.2-5,5-5h74.1c2.8,0,5,2.2,5,5v31.2c0,2.8-2.2,5-5,5h-74.1c-2.8,0-5-2.2-5-5Z"/>
      <path class="st17" d="M6953.3,67.5v31.2c0,2.8,2.2,5,5,5h74.1c2.8,0,5-2.2,5-5v-31.2c0-2.8-2.2-5-5-5h-74.1c-2.8,0-5,2.2-5,5Z"/>
      <path class="st17" d="M7066.8,67.5v31.2c0,2.8,2.2,5,5,5h74.1c2.8,0,5-2.2,5-5v-31.2c0-2.8-2.2-5-5-5h-74.1c-2.8,0-5,2.2-5,5Z"/>
      <path class="st17" d="M7179.3,67.8v31.2c0,2.8,2.2,5,5,5h74.1c2.8,0,5-2.2,5-5v-31.2c0-2.8-2.2-5-5-5h-74.1c-2.8,0-5,2.2-5,5Z"/>
      <path class="st17" d="M7293.4,67.8v31.2c0,2.8,2.2,5,5,5h74.1c2.8,0,5-2.2,5-5v-31.2c0-2.8-2.2-5-5-5h-74.1c-2.8,0-5,2.2-5,5Z"/>
      <path class="st17" d="M7408.2,67.8v31.2c0,2.8,2.2,5,5,5h74.1c2.8,0,5-2.2,5-5v-31.2c0-2.8-2.2-5-5-5h-74.1c-2.8,0-5,2.2-5,5Z"/>
      <path class="st16" d="M7516.1,200.7h29.1c-.4-1.6-.6-3.3-.6-5,0-8.3,4.7-15.4,11.5-19h-23.2v10.3l-16.7,13.8Z"/>
      <path class="st17" d="M7522.4,67.8v31.2c0,2.8,2.2,5,5,5h74.1c2.8,0,5-2.2,5-5v-31.2c0-2.8-2.2-5-5-5h-74.1c-2.8,0-5,2.2-5,5Z"/>
      <path class="st16" d="M7532.8,169.7v7h23.2c3-1.6,6.4-2.5,10.1-2.5s7.1.9,10.1,2.5h136.9c3-1.6,6.4-2.5,10.1-2.5s7.1.9,10.1,2.5h22.1v-7h-222.5Z"/>
      <path d="M7544.6,195.7c0,1.7.2,3.4.6,5,2.2,9.5,10.8,16.5,21,16.5s16.8-5.6,20-13.6c.3-.8.6-1.6.8-2.4.5-1.8.7-3.6.7-5.6,0-8.3-4.6-15.4-11.5-19h-20.1c-6.8,3.6-11.5,10.8-11.5,19ZM7561.1,195.7c0-2.8,2.2-5,5-5s5,2.2,5,5-2.2,5-5,5-5-2.2-5-5Z"/>
      <path d="M7556,176.7h20.1c-3-1.6-6.4-2.5-10.1-2.5s-7.1.9-10.1,2.5Z"/>
      <circle class="st14" cx="7566.1" cy="195.7" r="5"/>
      <path class="st16" d="M7713,176.7h-136.9c6.8,3.6,11.5,10.8,11.5,19s-.2,3.8-.7,5.6l.7.2h114.7c-.5-1.8-.8-3.8-.8-5.8,0-8.3,4.7-15.4,11.5-19Z"/>
      <path class="st17" d="M7657.9,67.8v31.2c0,2.8,2.2,5,5,5h74.1c2.8,0,5-2.2,5-5v-31.2c0-2.8-2.2-5-5-5h-74.1c-2.8,0-5,2.2-5,5Z"/>
      <path d="M7701.6,195.7c0,2,.3,3.9.8,5.8,2.5,9.1,10.9,15.8,20.8,15.8s16.8-5.6,20-13.6c.3-.8.6-1.6.8-2.4.5-1.8.7-3.6.7-5.6,0-8.3-4.6-15.4-11.5-19h-20.1c-6.8,3.6-11.5,10.8-11.5,19ZM7718.1,195.7c0-2.8,2.2-5,5-5s5,2.2,5,5-2.2,5-5,5-5-2.2-5-5Z"/>
      <path d="M7713,176.7h20.1c-3-1.6-6.4-2.5-10.1-2.5s-7.1.9-10.1,2.5Z"/>
      <circle class="st14" cx="7723.1" cy="195.7" r="5"/>
      <path class="st16" d="M7755.2,176.7h-22.1c6.8,3.6,11.5,10.8,11.5,19s-.2,3.8-.7,5.6l.7.2h10.6v-24.8Z"/>
      <rect class="st18" x="7755.2" y="176.7" width="77.2" height="24.8"/>
      <rect class="st12" x="7755.2" y="169.7" width="77.2" height="7"/>
    </g>
    <g>
      <polyline class="st3" points="7832.5 .3 7832.5 52.8 7832.5 117.4 7832.5 169.7"/>
      <polyline class="st3" points="6690.3 136.6 6690.3 117.4 6690.3 52.8 6690.3 .3"/>
      <path class="st6" d="M7662.9,62.8h74.1c2.8,0,5,2.2,5,5v31.2c0,2.8-2.2,5-5,5h-74.1c-2.8,0-5-2.2-5-5v-31.2c0-2.8,2.2-5,5-5Z"/>
      <path class="st5" d="M7527.4,62.8h74.1c2.8,0,5,2.2,5,5v31.2c0,2.8-2.2,5-5,5h-74.1c-2.8,0-5-2.2-5-5v-31.2c0-2.8,2.2-5,5-5Z"/>
      <path class="st5" d="M7413.2,62.8h74.1c2.8,0,5,2.2,5,5v31.2c0,2.8-2.2,5-5,5h-74.1c-2.8,0-5-2.2-5-5v-31.2c0-2.8,2.2-5,5-5Z"/>
      <path class="st5" d="M7184.3,62.8h74.1c2.8,0,5,2.2,5,5v31.2c0,2.8-2.2,5-5,5h-74.1c-2.8,0-5-2.2-5-5v-31.2c0-2.8,2.2-5,5-5Z"/>
      <path class="st5" d="M7298.4,62.8h74.1c2.8,0,5,2.2,5,5v31.2c0,2.8-2.2,5-5,5h-74.1c-2.8,0-5-2.2-5-5v-31.2c0-2.8,2.2-5,5-5Z"/>
      <path class="st5" d="M7071.8,62.5h74.1c2.8,0,5,2.2,5,5v31.2c0,2.8-2.2,5-5,5h-74.1c-2.8,0-5-2.2-5-5v-31.2c0-2.8,2.2-5,5-5Z"/>
      <path class="st5" d="M6958.3,62.5h74.1c2.8,0,5,2.2,5,5v31.2c0,2.8-2.2,5-5,5h-74.1c-2.8,0-5-2.2-5-5v-31.2c0-2.8,2.2-5,5-5Z"/>
      <path class="st2" d="M7733.2,176.7c6.8,3.6,11.5,10.8,11.5,19s-.2,3.8-.7,5.6c-.2.8-.5,1.6-.8,2.4-3.2,7.9-10.9,13.6-20,13.6s-18.2-6.7-20.8-15.8c-.5-1.8-.8-3.8-.8-5.8,0-8.3,4.7-15.4,11.5-19,3-1.6,6.4-2.5,10.1-2.5s7.1.9,10.1,2.5Z"/>
      <path class="st2" d="M7576.2,176.7c6.8,3.6,11.5,10.8,11.5,19s-.2,3.8-.7,5.6c-.2.8-.5,1.6-.8,2.4-3.2,7.9-10.9,13.6-20,13.6s-18.7-7.1-21-16.5c-.4-1.6-.6-3.3-.6-5,0-8.3,4.7-15.4,11.5-19,3-1.6,6.4-2.5,10.1-2.5s7.1.9,10.1,2.5Z"/>
      <polyline class="st3" points="5539.2 .3 5539.2 52.8 5539.2 117.4 5539.2 169.7"/>
      <polyline class="st3" points="6681.3 136.6 6681.3 117.4 6681.3 52.8 6681.3 .3"/>
      <path class="st5" d="M5708.7,62.8h-74.1c-2.8,0-5,2.2-5,5v31.2c0,2.8,2.2,5,5,5h74.1c2.8,0,5-2.2,5-5v-31.2c0-2.8-2.2-5-5-5Z"/>
      <path class="st5" d="M5844.2,62.8h-74.1c-2.8,0-5,2.2-5,5v31.2c0,2.8,2.2,5,5,5h74.1c2.8,0,5-2.2,5-5v-31.2c0-2.8-2.2-5-5-5Z"/>
      <path class="st5" d="M5958.5,62.8h-74.1c-2.8,0-5,2.2-5,5v31.2c0,2.8,2.2,5,5,5h74.1c2.8,0,5-2.2,5-5v-31.2c0-2.8-2.2-5-5-5Z"/>
      <path class="st5" d="M6187.4,62.8h-74.1c-2.8,0-5,2.2-5,5v31.2c0,2.8,2.2,5,5,5h74.1c2.8,0,5-2.2,5-5v-31.2c0-2.8-2.2-5-5-5Z"/>
      <path class="st5" d="M6073.3,62.8h-74.1c-2.8,0-5,2.2-5,5v31.2c0,2.8,2.2,5,5,5h74.1c2.8,0,5-2.2,5-5v-31.2c0-2.8-2.2-5-5-5Z"/>
      <path class="st5" d="M6299.9,62.5h-74.1c-2.8,0-5,2.2-5,5v31.2c0,2.8,2.2,5,5,5h74.1c2.8,0,5-2.2,5-5v-31.2c0-2.8-2.2-5-5-5Z"/>
      <path class="st5" d="M6413.3,62.5h-74.1c-2.8,0-5,2.2-5,5v31.2c0,2.8,2.2,5,5,5h74.1c2.8,0,5-2.2,5-5v-31.2c0-2.8-2.2-5-5-5Z"/>
      <path class="st2" d="M5638.5,176.7c-6.8,3.6-11.5,10.8-11.5,19s.3,3.8.7,5.6c.2.8.5,1.6.8,2.4,3.2,7.9,10.9,13.6,20,13.6s18.2-6.7,20.8-15.8c.5-1.8.8-3.8.8-5.8,0-8.3-4.7-15.4-11.5-19-3-1.6-6.4-2.5-10.1-2.5s-7.1.9-10.1,2.5Z"/>
      <path class="st2" d="M5795.5,176.7c-6.8,3.6-11.5,10.8-11.5,19s.3,3.8.7,5.6c.2.8.5,1.6.8,2.4,3.2,7.9,10.9,13.6,20,13.6s18.7-7.1,21-16.5c.4-1.6.6-3.3.6-5,0-8.3-4.7-15.4-11.5-19-3-1.6-6.4-2.5-10.1-2.5s-7.1.9-10.1,2.5Z"/>
      <path class="st2" d="M6638.2,201.5c.5-1.8.8-3.8.8-5.8,0-11.9-9.7-21.5-21.5-21.5s-21.5,9.6-21.5,21.5.3,3.9.8,5.8c.2.8.5,1.5.8,2.2,3.2,7.9,10.9,13.6,20,13.6s18.2-6.7,20.8-15.8Z"/>
      <path class="st2" d="M6775.2,201.5c.5-1.8.8-3.8.8-5.8,0-11.9-9.7-21.5-21.5-21.5s-21.5,9.6-21.5,21.5.3,3.9.8,5.8c.2.8.5,1.5.8,2.2,3.2,7.9,10.9,13.6,20,13.6s18.2-6.7,20.8-15.8Z"/>
    </g>
  </g>
  <g id="middle-cars">
    <g>
      <path d="M3335.2,176.7h20.1c-3-1.6-6.4-2.5-10-2.5s-7.1.9-10.1,2.5Z"/>
      <path d="M3323.7,195.7c0,1.9.2,3.8.7,5.6.2.8.5,1.6.8,2.4,3.2,7.9,10.9,13.5,20,13.5s18.2-6.7,20.7-15.8c.5-1.8.8-3.8.8-5.8,0-8.3-4.6-15.4-11.5-19h-20.1c-6.8,3.6-11.5,10.8-11.5,19ZM3340.3,195.7c0-2.8,2.2-5,5-5s5,2.2,5,5-2.2,5-5,5-5-2.2-5-5Z"/>
      <path d="M3492.2,176.7h20.1c-3-1.6-6.4-2.5-10-2.5s-7.1.9-10.1,2.5Z"/>
      <path d="M3480.7,195.7c0,1.9.2,3.8.7,5.6.2.8.5,1.6.8,2.4,3.2,7.9,10.9,13.5,20,13.5s18.7-7.1,20.9-16.5c.4-1.6.6-3.3.6-5,0-8.3-4.6-15.4-11.5-19h-20.1c-6.8,3.6-11.5,10.8-11.5,19ZM3497.3,195.7c0-2.8,2.2-5,5-5s5,2.2,5,5-2.2,5-5,5-5-2.2-5-5Z"/>
      <circle class="st14" cx="3345.3" cy="195.7" r="5"/>
      <circle class="st14" cx="3502.3" cy="195.7" r="5"/>
      <path d="M4429.6,195.7c0,2,.3,3.9.8,5.8.2.8.5,1.5.7,2.2,3.2,7.9,10.9,13.5,20,13.5s18.2-6.7,20.8-15.8c.5-1.8.8-3.8.8-5.8,0-11.9-9.6-21.5-21.5-21.5s-21.5,9.6-21.5,21.5ZM4446.1,195.7c0-2.8,2.2-5,5-5s5,2.2,5,5-2.2,5-5,5-5-2.2-5-5Z"/>
      <path d="M4292.6,195.7c0,2,.3,3.9.8,5.8.2.8.5,1.5.7,2.2,3.2,7.9,10.9,13.5,20,13.5s18.2-6.7,20.8-15.8c.5-1.8.8-3.8.8-5.8,0-11.9-9.6-21.5-21.5-21.5s-21.5,9.6-21.5,21.5ZM4309.1,195.7c0-2.8,2.2-5,5-5s5,2.2,5,5-2.2,5-5,5-5-2.2-5-5Z"/>
      <path class="st16" d="M4286.9,176.7v24.8h6.4c-.5-1.8-.8-3.8-.8-5.8,0-11.9,9.6-21.5,21.5-21.5s21.5,9.6,21.5,21.5-.3,3.9-.8,5.8h95.5c-.5-1.8-.8-3.8-.8-5.8,0-11.9,9.6-21.5,21.5-21.5s21.5,9.6,21.5,21.5-.3,3.9-.8,5.8h6.2v-31.8h-57.9s-75.4,0-75.4,0h-57.9s0,6.9,0,6.9Z"/>
      <path class="st16" d="M3535.6,176.7h-23.2c6.8,3.6,11.5,10.8,11.5,19s-.2,3.4-.6,5h29.1l-16.7-13.8v-10.2Z"/>
      <path class="st16" d="M3313.1,169.7v7h22.1c3-1.6,6.4-2.5,10.1-2.5s7.1.9,10,2.5h136.9c3-1.6,6.4-2.5,10.1-2.5s7.1.9,10,2.5h23.2v-7h-222.5Z"/>
      <path class="st16" d="M3313.1,176.7v24.8h10.6l.7-.2c-.5-1.8-.7-3.7-.7-5.6,0-8.3,4.6-15.4,11.5-19h-22.1Z"/>
      <path class="st16" d="M3492.2,176.7h-136.9c6.8,3.6,11.5,10.8,11.5,19s-.3,3.9-.8,5.8h114.7l.7-.2c-.5-1.8-.7-3.7-.7-5.6,0-8.3,4.6-15.4,11.5-19Z"/>
      <rect class="st17" x="3326.3" y="62.8" width="84.1" height="41.2" rx="5" ry="5"/>
      <path class="st17" d="M3461.8,67.8v31.2c0,2.8,2.2,5,5,5h74.1c2.8,0,5-2.2,5-5v-31.2c0-2.8-2.2-5-5-5h-74.1c-2.8,0-5,2.2-5,5Z"/>
      <rect class="st17" x="3576.1" y="62.8" width="84.1" height="41.2" rx="5" ry="5"/>
      <path class="st17" d="M3690.9,67.8v31.2c0,2.8,2.2,5,5,5h74.1c2.8,0,5-2.2,5-5v-31.2c0-2.8-2.2-5-5-5h-74.1c-2.8,0-5,2.2-5,5Z"/>
      <rect class="st17" x="3804.9" y="62.8" width="84.1" height="41.2" rx="5" ry="5"/>
      <path class="st17" d="M3917.5,67.5v31.2c0,2.8,2.2,5,5,5h74.1c2.8,0,5-2.2,5-5v-31.2c0-2.8-2.2-5-5-5h-74.1c-2.8,0-5,2.2-5,5Z"/>
      <path class="st17" d="M4030.9,67.5v31.2c0,2.8,2.2,5,5,5h74.1c2.8,0,5-2.2,5-5v-31.2c0-2.8-2.2-5-5-5h-74.1c-2.8,0-5,2.2-5,5Z"/>
      <rect class="st10" x="4341.9" y="52.8" width="36.2" height="64.6"/>
      <path class="st10" d="M3235.9,52.8v64.6h1049.1V52.8h-1049.1ZM3326.3,99v-31.2c0-2.8,2.2-5,5-5h74.1c2.8,0,5,2.2,5,5v31.2c0,2.8-2.2,5-5,5h-74.1c-2.8,0-5-2.2-5-5ZM3461.8,99v-31.2c0-2.8,2.2-5,5-5h74.1c2.8,0,5,2.2,5,5v31.2c0,2.8-2.2,5-5,5h-74.1c-2.8,0-5-2.2-5-5ZM3576.1,99v-31.2c0-2.8,2.2-5,5-5h74.1c2.8,0,5,2.2,5,5v31.2c0,2.8-2.2,5-5,5h-74.1c-2.8,0-5-2.2-5-5ZM3690.9,99v-31.2c0-2.8,2.2-5,5-5h74.1c2.8,0,5,2.2,5,5v31.2c0,2.8-2.2,5-5,5h-74.1c-2.8,0-5-2.2-5-5ZM3804.9,99v-31.2c0-2.8,2.2-5,5-5h74.1c2.8,0,5,2.2,5,5v31.2c0,2.8-2.2,5-5,5h-74.1c-2.8,0-5-2.2-5-5ZM3917.5,98.7v-31.2c0-2.8,2.2-5,5-5h74.1c2.8,0,5,2.2,5,5v31.2c0,2.8-2.2,5-5,5h-74.1c-2.8,0-5-2.2-5-5ZM4030.9,98.7v-31.2c0-2.8,2.2-5,5-5h74.1c2.8,0,5,2.2,5,5v31.2c0,2.8-2.2,5-5,5h-74.1c-2.8,0-5-2.2-5-5Z"/>
      <path class="st13" d="M3235.9.3v52.5h1049.1v-13.7c0-2.8,2.2-5,5-5h46.9c2.8,0,5,2.2,5,5v13.7h36.2V.3h-1142.2Z"/>
      <path class="st8" d="M3235.9,117.4v52.3h1109s33.2-33.1,33.2-33.1v-19.2h-36.2v31.4c0,2.8-2.2,5-5,5h-46.9c-2.8,0-5-2.2-5-5v-31.4h-1049.1Z"/>
      <rect class="st12" x="3235.9" y="169.7" width="77.2" height="7"/>
      <rect class="st12" x="3535.6" y="169.7" width="751.4" height="7"/>
      <polygon class="st18" points="3552.3 200.7 3553.2 201.5 4286.9 201.5 4286.9 176.7 3535.6 176.7 3535.6 186.9 3552.3 200.7"/>
      <rect class="st18" x="3235.9" y="176.7" width="77.2" height="24.8"/>
      <rect class="st17" x="4295.6" y="52.3" width="35.4" height="46.5"/>
      <path class="st9" d="M4284.9,117.4v31.4c0,2.8,2.2,5,5,5h46.9c2.8,0,5-2.2,5-5V39.1c0-2.8-2.2-5-5-5h-46.9c-2.8,0-5,2.2-5,5v78.3ZM4295.6,98.8v-46.5h35.4v46.5h-35.4Z"/>
      <circle class="st14" cx="4314.1" cy="195.7" r="5"/>
      <circle class="st14" cx="4451.1" cy="195.7" r="5"/>
      <path class="st8" d="M4387,117.4v19.2l33.2,33.2h57.9s751.4,0,751.4,0h299.7v-52.3h-1049.1v31.4c0,2.8-2.2,5-5,5h-46.9c-2.8,0-5-2.2-5-5v-31.4h-36.1Z"/>
      <rect class="st10" x="4387" y="52.8" width="36.1" height="64.6"/>
      <path class="st13" d="M4387,.3v52.5h36.1v-13.7c0-2.8,2.2-5,5-5h46.9c2.8,0,5,2.2,5,5v13.7h1049.1V.3h-1142.1Z"/>
      <path class="st9" d="M4423.2,117.4v31.4c0,2.8,2.2,5,5,5h46.9c2.8,0,5-2.2,5-5V39.1c0-2.8-2.2-5-5-5h-46.9c-2.8,0-5,2.2-5,5v78.3ZM4434,98.8v-46.5h35.4v46.5h-35.4Z"/>
      <rect class="st17" x="4434" y="52.3" width="35.4" height="46.5"/>
      <polygon class="st18" points="5212.8 200.7 5229.5 186.9 5229.5 176.7 4478.1 176.7 4478.1 201.5 5211.8 201.5 5212.8 200.7"/>
      <rect class="st12" x="4478.1" y="169.7" width="751.4" height="7"/>
      <path class="st10" d="M4480.1,52.8v64.6h1049.1V52.8h-1049.1ZM4650,98.7v-31.2c0-2.8,2.2-5,5-5h74.1c2.8,0,5,2.2,5,5v31.2c0,2.8-2.2,5-5,5h-74.1c-2.8,0-5-2.2-5-5ZM4763.5,98.7v-31.2c0-2.8,2.2-5,5-5h74.1c2.8,0,5,2.2,5,5v31.2c0,2.8-2.2,5-5,5h-74.1c-2.8,0-5-2.2-5-5ZM4876,99v-31.2c0-2.8,2.2-5,5-5h74.1c2.8,0,5,2.2,5,5v31.2c0,2.8-2.2,5-5,5h-74.1c-2.8,0-5-2.2-5-5ZM4990.1,99v-31.2c0-2.8,2.2-5,5-5h74.1c2.8,0,5,2.2,5,5v31.2c0,2.8-2.2,5-5,5h-74.1c-2.8,0-5-2.2-5-5ZM5104.9,99v-31.2c0-2.8,2.2-5,5-5h74.1c2.8,0,5,2.2,5,5v31.2c0,2.8-2.2,5-5,5h-74.1c-2.8,0-5-2.2-5-5ZM5219.1,99v-31.2c0-2.8,2.2-5,5-5h74.1c2.8,0,5,2.2,5,5v31.2c0,2.8-2.2,5-5,5h-74.1c-2.8,0-5-2.2-5-5ZM5354.6,99v-31.2c0-2.8,2.2-5,5-5h74.1c2.8,0,5,2.2,5,5v31.2c0,2.8-2.2,5-5,5h-74.1c-2.8,0-5-2.2-5-5Z"/>
      <path class="st17" d="M4650,67.5v31.2c0,2.8,2.2,5,5,5h74.1c2.8,0,5-2.2,5-5v-31.2c0-2.8-2.2-5-5-5h-74.1c-2.8,0-5,2.2-5,5Z"/>
      <path class="st17" d="M4763.5,67.5v31.2c0,2.8,2.2,5,5,5h74.1c2.8,0,5-2.2,5-5v-31.2c0-2.8-2.2-5-5-5h-74.1c-2.8,0-5,2.2-5,5Z"/>
      <rect class="st17" x="4876" y="62.8" width="84.1" height="41.2" rx="5" ry="5"/>
      <rect class="st17" x="4990.1" y="62.8" width="84.1" height="41.2" rx="5" ry="5"/>
      <path class="st17" d="M5104.9,67.8v31.2c0,2.8,2.2,5,5,5h74.1c2.8,0,5-2.2,5-5v-31.2c0-2.8-2.2-5-5-5h-74.1c-2.8,0-5,2.2-5,5Z"/>
      <path class="st16" d="M5212.8,200.7h29.1c-.4-1.6-.6-3.3-.6-5,0-8.3,4.6-15.4,11.5-19h-23.2v10.2l-16.7,13.8Z"/>
      <rect class="st17" x="5219.1" y="62.8" width="84.1" height="41.2" rx="5" ry="5"/>
      <path class="st16" d="M5229.5,169.7v7h23.2c3-1.6,6.4-2.5,10-2.5s7.1.9,10.1,2.5h136.9c3-1.6,6.4-2.5,10-2.5s7.1.9,10.1,2.5h22.1v-7h-222.5Z"/>
      <path d="M5241.3,195.7c0,1.7.2,3.4.6,5,2.2,9.5,10.8,16.5,20.9,16.5s16.8-5.6,20-13.5c.3-.8.6-1.6.8-2.4.5-1.8.7-3.7.7-5.6,0-8.3-4.7-15.4-11.5-19h-20.1c-6.8,3.6-11.5,10.8-11.5,19ZM5257.8,195.7c0-2.8,2.2-5,5-5s5,2.2,5,5-2.2,5-5,5-5-2.2-5-5Z"/>
      <path d="M5252.7,176.7h20.1c-3-1.6-6.4-2.5-10.1-2.5s-7,.9-10,2.5Z"/>
      <path class="st14" d="M5262.8,190.7c-2.8,0-5,2.2-5,5s2.2,5,5,5,5-2.2,5-5-2.2-5-5-5Z"/>
      <path class="st16" d="M5409.7,176.7h-136.9c6.8,3.6,11.5,10.8,11.5,19s-.2,3.8-.7,5.6l.7.2h114.7c-.5-1.8-.8-3.8-.8-5.8,0-8.3,4.6-15.4,11.5-19Z"/>
      <path class="st17" d="M5354.6,67.8v31.2c0,2.8,2.2,5,5,5h74.1c2.8,0,5-2.2,5-5v-31.2c0-2.8-2.2-5-5-5h-74.1c-2.8,0-5,2.2-5,5Z"/>
      <path d="M5398.3,195.7c0,2,.3,3.9.8,5.8,2.5,9.1,10.9,15.8,20.7,15.8s16.8-5.6,20-13.5c.3-.8.6-1.6.8-2.4.5-1.8.7-3.7.7-5.6,0-8.3-4.7-15.4-11.5-19h-20.1c-6.8,3.6-11.5,10.8-11.5,19ZM5414.8,195.7c0-2.8,2.2-5,5-5s5,2.2,5,5-2.2,5-5,5-5-2.2-5-5Z"/>
      <path d="M5409.7,176.7h20.1c-3-1.6-6.4-2.5-10.1-2.5s-7,.9-10,2.5Z"/>
      <path class="st14" d="M5419.8,190.7c-2.8,0-5,2.2-5,5s2.2,5,5,5,5-2.2,5-5-2.2-5-5-5Z"/>
      <path class="st16" d="M5451.9,176.7h-22.1c6.8,3.6,11.5,10.8,11.5,19s-.2,3.8-.7,5.6l.7.2h10.6v-24.8Z"/>
      <rect class="st18" x="5451.9" y="176.7" width="77.2" height="24.8"/>
      <rect class="st12" x="5451.9" y="169.7" width="77.2" height="7"/>
    </g>
    <g>
      <polyline class="st3" points="5529.2 .3 5529.2 52.8 5529.2 117.4 5529.2 169.7"/>
      <polyline class="st3" points="4387 136.6 4387 117.4 4387 52.8 4387 .3"/>
      <path class="st6" d="M5359.6,62.8h74.1c2.8,0,5,2.2,5,5v31.2c0,2.8-2.2,5-5,5h-74.1c-2.8,0-5-2.2-5-5v-31.2c0-2.8,2.2-5,5-5Z"/>
      <rect class="st5" x="5219.1" y="62.8" width="84.1" height="41.2" rx="5" ry="5"/>
      <path class="st5" d="M5109.9,62.8h74.1c2.8,0,5,2.2,5,5v31.2c0,2.8-2.2,5-5,5h-74.1c-2.8,0-5-2.2-5-5v-31.2c0-2.8,2.2-5,5-5Z"/>
      <rect class="st5" x="4876" y="62.8" width="84.1" height="41.2" rx="5" ry="5"/>
      <rect class="st5" x="4990.1" y="62.8" width="84.1" height="41.2" rx="5" ry="5"/>
      <path class="st5" d="M4768.5,62.5h74.1c2.8,0,5,2.2,5,5v31.2c0,2.8-2.2,5-5,5h-74.1c-2.8,0-5-2.2-5-5v-31.2c0-2.8,2.2-5,5-5Z"/>
      <path class="st5" d="M4655,62.5h74.1c2.8,0,5,2.2,5,5v31.2c0,2.8-2.2,5-5,5h-74.1c-2.8,0-5-2.2-5-5v-31.2c0-2.8,2.2-5,5-5Z"/>
      <path class="st2" d="M5429.8,176.7c6.8,3.6,11.5,10.8,11.5,19s-.2,3.8-.7,5.6c-.2.8-.5,1.6-.8,2.4-3.2,7.9-10.9,13.5-20,13.5s-18.2-6.7-20.7-15.8c-.5-1.8-.8-3.8-.8-5.8,0-8.3,4.6-15.4,11.5-19,3-1.6,6.4-2.5,10-2.5s7.1.9,10.1,2.5Z"/>
      <path class="st2" d="M5272.8,176.7c6.8,3.6,11.5,10.8,11.5,19s-.2,3.8-.7,5.6c-.2.8-.5,1.6-.8,2.4-3.2,7.9-10.9,13.5-20,13.5s-18.7-7.1-20.9-16.5c-.4-1.6-.6-3.3-.6-5,0-8.3,4.6-15.4,11.5-19,3-1.6,6.4-2.5,10-2.5s7.1.9,10.1,2.5Z"/>
      <polyline class="st3" points="3235.9 .3 3235.9 52.8 3235.9 117.4 3235.9 169.7"/>
      <polyline class="st3" points="4378 136.6 4378 117.4 4378 52.8 4378 .3"/>
      <rect class="st5" x="3326.3" y="62.8" width="84.1" height="41.2" rx="5" ry="5"/>
      <path class="st5" d="M3540.9,62.8h-74.1c-2.8,0-5,2.2-5,5v31.2c0,2.8,2.2,5,5,5h74.1c2.8,0,5-2.2,5-5v-31.2c0-2.8-2.2-5-5-5Z"/>
      <rect class="st5" x="3576.1" y="62.8" width="84.1" height="41.2" rx="5" ry="5"/>
      <rect class="st5" x="3804.9" y="62.8" width="84.1" height="41.2" rx="5" ry="5"/>
      <path class="st5" d="M3770,62.8h-74.1c-2.8,0-5,2.2-5,5v31.2c0,2.8,2.2,5,5,5h74.1c2.8,0,5-2.2,5-5v-31.2c0-2.8-2.2-5-5-5Z"/>
      <path class="st5" d="M3996.6,62.5h-74.1c-2.8,0-5,2.2-5,5v31.2c0,2.8,2.2,5,5,5h74.1c2.8,0,5-2.2,5-5v-31.2c0-2.8-2.2-5-5-5Z"/>
      <path class="st5" d="M4110,62.5h-74.1c-2.8,0-5,2.2-5,5v31.2c0,2.8,2.2,5,5,5h74.1c2.8,0,5-2.2,5-5v-31.2c0-2.8-2.2-5-5-5Z"/>
      <path class="st2" d="M3335.2,176.7c-6.8,3.6-11.5,10.8-11.5,19s.2,3.8.7,5.6c.2.8.5,1.6.8,2.4,3.2,7.9,10.9,13.5,20,13.5s18.2-6.7,20.7-15.8c.5-1.8.8-3.8.8-5.8,0-8.3-4.6-15.4-11.5-19-3-1.6-6.4-2.5-10-2.5s-7.1.9-10.1,2.5Z"/>
      <path class="st2" d="M3492.2,176.7c-6.8,3.6-11.5,10.8-11.5,19s.2,3.8.7,5.6c.2.8.5,1.6.8,2.4,3.2,7.9,10.9,13.5,20,13.5s18.7-7.1,20.9-16.5c.4-1.6.6-3.3.6-5,0-8.3-4.6-15.4-11.5-19-3-1.6-6.4-2.5-10-2.5s-7.1.9-10.1,2.5Z"/>
      <path class="st2" d="M4334.9,201.5c.5-1.8.8-3.8.8-5.8,0-11.9-9.6-21.5-21.5-21.5s-21.5,9.6-21.5,21.5.3,3.9.8,5.8c.2.8.5,1.5.7,2.2,3.2,7.9,10.9,13.5,20,13.5s18.2-6.7,20.8-15.8Z"/>
      <path class="st2" d="M4471.9,201.5c.5-1.8.8-3.8.8-5.8,0-11.9-9.6-21.5-21.5-21.5s-21.5,9.6-21.5,21.5.3,3.9.8,5.8c.2.8.5,1.5.7,2.2,3.2,7.9,10.9,13.5,20,13.5s18.2-6.7,20.8-15.8Z"/>
    </g>
  </g>
  <g id="left-cars">
    <g>
      <rect class="st18" x="933.9" y="176.7" width="77.2" height="24.8"/>
      <rect class="st12" x="933.9" y="169.7" width="77.2" height="7"/>
      <path class="st8" d="M933.9,117.4v52.3h1109s33.2-33.1,33.2-33.1v-19.2h-36.2v31.4c0,2.8-2.2,5-5,5h-46.9c-2.8,0-5-2.2-5-5v-31.4H933.9Z"/>
      <path class="st10" d="M933.9,52.8v64.6h1049.1V52.8H933.9ZM1024.3,99v-31.2c0-2.8,2.2-5,5-5h74.1c2.8,0,5,2.2,5,5v31.2c0,2.8-2.2,5-5,5h-74.1c-2.8,0-5-2.2-5-5ZM1159.8,99v-31.2c0-2.8,2.2-5,5-5h74.1c2.8,0,5,2.2,5,5v31.2c0,2.8-2.2,5-5,5h-74.1c-2.8,0-5-2.2-5-5ZM1274.1,99v-31.2c0-2.8,2.2-5,5-5h74.1c2.8,0,5,2.2,5,5v31.2c0,2.8-2.2,5-5,5h-74.1c-2.8,0-5-2.2-5-5ZM1388.9,99v-31.2c0-2.8,2.2-5,5-5h74.1c2.8,0,5,2.2,5,5v31.2c0,2.8-2.2,5-5,5h-74.1c-2.8,0-5-2.2-5-5ZM1502.9,99v-31.2c0-2.8,2.2-5,5-5h74.1c2.8,0,5,2.2,5,5v31.2c0,2.8-2.2,5-5,5h-74.1c-2.8,0-5-2.2-5-5ZM1615.5,98.7v-31.2c0-2.8,2.2-5,5-5h74.1c2.8,0,5,2.2,5,5v31.2c0,2.8-2.2,5-5,5h-74.1c-2.8,0-5-2.2-5-5ZM1728.9,98.7v-31.2c0-2.8,2.2-5,5-5h74.1c2.8,0,5,2.2,5,5v31.2c0,2.8-2.2,5-5,5h-74.1c-2.8,0-5-2.2-5-5Z"/>
      <path class="st13" d="M933.9.3v52.5h1049.1v-13.7c0-2.8,2.2-5,5-5h46.9c2.8,0,5,2.2,5,5v13.7h36.2V.3H933.9Z"/>
      <path class="st16" d="M1011.1,176.7v24.8h10.6l.7-.2c-.5-1.8-.7-3.7-.7-5.6,0-8.3,4.6-15.4,11.5-19h-22.1Z"/>
      <path class="st16" d="M1011.1,169.7v7h22.1c3-1.6,6.4-2.5,10.1-2.5s7.1.9,10.1,2.5h136.9c3-1.6,6.4-2.5,10.1-2.5s7.1.9,10.1,2.5h23.2v-7h-222.5Z"/>
      <path d="M1021.7,195.7c0,1.9.2,3.8.7,5.6.2.8.5,1.6.8,2.4,3.2,7.9,10.9,13.5,20,13.5s18.2-6.7,20.7-15.8c.5-1.8.8-3.8.8-5.8,0-8.3-4.6-15.4-11.5-19h-20.1c-6.8,3.6-11.5,10.8-11.5,19ZM1038.3,195.7c0-2.8,2.2-5,5-5s5,2.2,5,5-2.2,5-5,5-5-2.2-5-5Z"/>
      <rect class="st17" x="1024.3" y="62.8" width="84.1" height="41.2" rx="5" ry="5"/>
      <path d="M1033.2,176.7h20.1c-3-1.6-6.4-2.5-10.1-2.5s-7.1.9-10.1,2.5Z"/>
      <circle class="st14" cx="1043.3" cy="195.7" r="5"/>
      <path class="st16" d="M1190.2,176.7h-136.9c6.8,3.6,11.5,10.8,11.5,19s-.3,3.9-.8,5.8h114.7l.7-.2c-.5-1.8-.7-3.7-.7-5.6,0-8.3,4.6-15.4,11.5-19Z"/>
      <path class="st17" d="M1159.8,67.8v31.2c0,2.8,2.2,5,5,5h74.1c2.8,0,5-2.2,5-5v-31.2c0-2.8-2.2-5-5-5h-74.1c-2.8,0-5,2.2-5,5Z"/>
      <path d="M1178.7,195.7c0,1.9.2,3.8.7,5.6.2.8.5,1.6.8,2.4,3.2,7.9,10.9,13.5,20,13.5s18.7-7.1,20.9-16.5c.4-1.6.6-3.3.6-5,0-8.3-4.6-15.4-11.5-19h-20.1c-6.8,3.6-11.5,10.8-11.5,19ZM1195.3,195.7c0-2.8,2.2-5,5-5s5,2.2,5,5-2.2,5-5,5-5-2.2-5-5Z"/>
      <path d="M1190.2,176.7h20.1c-3-1.6-6.4-2.5-10.1-2.5s-7.1.9-10.1,2.5Z"/>
      <circle class="st14" cx="1200.3" cy="195.7" r="5"/>
      <path class="st16" d="M1233.6,176.7h-23.2c6.8,3.6,11.5,10.8,11.5,19s-.2,3.4-.6,5h29.1l-16.7-13.8v-10.2Z"/>
      <polygon class="st18" points="1250.3 200.7 1251.2 201.5 1984.9 201.5 1984.9 176.7 1233.6 176.7 1233.6 186.9 1250.3 200.7"/>
      <rect class="st12" x="1233.6" y="169.7" width="751.4" height="7"/>
      <rect class="st17" x="1274.1" y="62.8" width="84.1" height="41.2" rx="5" ry="5"/>
      <path class="st17" d="M1388.9,67.8v31.2c0,2.8,2.2,5,5,5h74.1c2.8,0,5-2.2,5-5v-31.2c0-2.8-2.2-5-5-5h-74.1c-2.8,0-5,2.2-5,5Z"/>
      <rect class="st17" x="1502.9" y="62.8" width="84.1" height="41.2" rx="5" ry="5"/>
      <path class="st17" d="M1615.5,67.5v31.2c0,2.8,2.2,5,5,5h74.1c2.8,0,5-2.2,5-5v-31.2c0-2.8-2.2-5-5-5h-74.1c-2.8,0-5,2.2-5,5Z"/>
      <path class="st17" d="M1728.9,67.5v31.2c0,2.8,2.2,5,5,5h74.1c2.8,0,5-2.2,5-5v-31.2c0-2.8-2.2-5-5-5h-74.1c-2.8,0-5,2.2-5,5Z"/>
      <path class="st9" d="M1982.9,117.4v31.4c0,2.8,2.2,5,5,5h46.9c2.8,0,5-2.2,5-5V39.1c0-2.8-2.2-5-5-5h-46.9c-2.8,0-5,2.2-5,5v78.3ZM1993.6,98.8v-46.5h35.4v46.5h-35.4Z"/>
      <path class="st16" d="M1984.9,176.7v24.8h6.4c-.5-1.8-.8-3.8-.8-5.8,0-11.9,9.6-21.5,21.5-21.5s21.5,9.6,21.5,21.5-.3,3.9-.8,5.8h95.5c-.5-1.8-.8-3.8-.8-5.8,0-11.9,9.6-21.5,21.5-21.5s21.5,9.6,21.5,21.5-.3,3.9-.8,5.8h6.2v-31.8h-57.9s-75.4,0-75.4,0h-57.9s0,6.9,0,6.9Z"/>
      <path d="M1990.6,195.7c0,2,.3,3.9.8,5.8.2.8.4,1.5.7,2.2,3.2,7.9,10.9,13.5,20,13.5s18.2-6.7,20.8-15.8c.5-1.8.8-3.8.8-5.8,0-11.9-9.6-21.5-21.5-21.5s-21.5,9.6-21.5,21.5ZM2007.1,195.7c0-2.8,2.2-5,5-5s5,2.2,5,5-2.2,5-5,5-5-2.2-5-5Z"/>
      <rect class="st17" x="1993.6" y="52.3" width="35.4" height="46.5"/>
      <circle class="st14" cx="2012.1" cy="195.7" r="5"/>
      <rect class="st10" x="2039.9" y="52.8" width="36.2" height="64.6"/>
      <path class="st8" d="M2085,117.4v19.2l33.2,33.2h57.9s751.4,0,751.4,0h299.7v-52.3h-1049.1v31.4c0,2.8-2.2,5-5,5h-46.9c-2.8,0-5-2.2-5-5v-31.4h-36.1Z"/>
      <rect class="st10" x="2085" y="52.8" width="36.1" height="64.6"/>
      <path class="st13" d="M2085,.3v52.5h36.1v-13.7c0-2.8,2.2-5,5-5h46.9c2.8,0,5,2.2,5,5v13.7h1049.1V.3h-1142.1Z"/>
      <path class="st9" d="M2121.2,117.4v31.4c0,2.8,2.2,5,5,5h46.9c2.8,0,5-2.2,5-5V39.1c0-2.8-2.2-5-5-5h-46.9c-2.8,0-5,2.2-5,5v78.3ZM2132,98.8v-46.5h35.4v46.5h-35.4Z"/>
      <path d="M2127.6,195.7c0,2,.3,3.9.8,5.8.2.8.4,1.5.7,2.2,3.2,7.9,10.9,13.5,20,13.5s18.2-6.7,20.8-15.8c.5-1.8.8-3.8.8-5.8,0-11.9-9.6-21.5-21.5-21.5s-21.5,9.6-21.5,21.5ZM2144.1,195.7c0-2.8,2.2-5,5-5s5,2.2,5,5-2.2,5-5,5-5-2.2-5-5Z"/>
      <rect class="st17" x="2132" y="52.3" width="35.4" height="46.5"/>
      <circle class="st14" cx="2149.1" cy="195.7" r="5"/>
      <polygon class="st18" points="2910.8 200.7 2927.5 186.9 2927.5 176.7 2176.1 176.7 2176.1 201.5 2909.8 201.5 2910.8 200.7"/>
      <rect class="st12" x="2176.1" y="169.7" width="751.4" height="7"/>
      <path class="st10" d="M2178.1,52.8v64.6h1049.1V52.8h-1049.1ZM2348,98.7v-31.2c0-2.8,2.2-5,5-5h74.1c2.8,0,5,2.2,5,5v31.2c0,2.8-2.2,5-5,5h-74.1c-2.8,0-5-2.2-5-5ZM2461.5,98.7v-31.2c0-2.8,2.2-5,5-5h74.1c2.8,0,5,2.2,5,5v31.2c0,2.8-2.2,5-5,5h-74.1c-2.8,0-5-2.2-5-5ZM2574,99v-31.2c0-2.8,2.2-5,5-5h74.1c2.8,0,5,2.2,5,5v31.2c0,2.8-2.2,5-5,5h-74.1c-2.8,0-5-2.2-5-5ZM2688.1,99v-31.2c0-2.8,2.2-5,5-5h74.1c2.8,0,5,2.2,5,5v31.2c0,2.8-2.2,5-5,5h-74.1c-2.8,0-5-2.2-5-5ZM2802.9,99v-31.2c0-2.8,2.2-5,5-5h74.1c2.8,0,5,2.2,5,5v31.2c0,2.8-2.2,5-5,5h-74.1c-2.8,0-5-2.2-5-5ZM2917.1,99v-31.2c0-2.8,2.2-5,5-5h74.1c2.8,0,5,2.2,5,5v31.2c0,2.8-2.2,5-5,5h-74.1c-2.8,0-5-2.2-5-5ZM3052.6,99v-31.2c0-2.8,2.2-5,5-5h74.1c2.8,0,5,2.2,5,5v31.2c0,2.8-2.2,5-5,5h-74.1c-2.8,0-5-2.2-5-5Z"/>
      <path class="st17" d="M2348,67.5v31.2c0,2.8,2.2,5,5,5h74.1c2.8,0,5-2.2,5-5v-31.2c0-2.8-2.2-5-5-5h-74.1c-2.8,0-5,2.2-5,5Z"/>
      <path class="st17" d="M2461.5,67.5v31.2c0,2.8,2.2,5,5,5h74.1c2.8,0,5-2.2,5-5v-31.2c0-2.8-2.2-5-5-5h-74.1c-2.8,0-5,2.2-5,5Z"/>
      <rect class="st17" x="2574" y="62.8" width="84.1" height="41.2" rx="5" ry="5"/>
      <rect class="st17" x="2688.1" y="62.8" width="84.1" height="41.2" rx="5" ry="5"/>
      <path class="st17" d="M2802.9,67.8v31.2c0,2.8,2.2,5,5,5h74.1c2.8,0,5-2.2,5-5v-31.2c0-2.8-2.2-5-5-5h-74.1c-2.8,0-5,2.2-5,5Z"/>
      <path class="st16" d="M2910.8,200.7h29.1c-.4-1.6-.6-3.3-.6-5,0-8.3,4.7-15.4,11.5-19h-23.2v10.2l-16.7,13.8Z"/>
      <rect class="st17" x="2917.1" y="62.8" width="84.1" height="41.2" rx="5" ry="5"/>
      <path class="st16" d="M2927.5,169.7v7h23.2c3-1.6,6.4-2.5,10-2.5s7.1.9,10.1,2.5h136.9c3-1.6,6.4-2.5,10-2.5s7.1.9,10.1,2.5h22.1v-7h-222.5Z"/>
      <path d="M2939.3,195.7c0,1.7.2,3.4.6,5,2.2,9.5,10.8,16.5,20.9,16.5s16.8-5.6,20-13.5c.3-.8.6-1.6.8-2.4.5-1.8.7-3.7.7-5.6,0-8.3-4.7-15.4-11.5-19h-20.1c-6.8,3.6-11.5,10.8-11.5,19ZM2955.8,195.7c0-2.8,2.2-5,5-5s5,2.2,5,5-2.2,5-5,5-5-2.2-5-5Z"/>
      <path d="M2950.7,176.7h20.1c-3-1.6-6.4-2.5-10.1-2.5s-7,.9-10,2.5Z"/>
      <path class="st14" d="M2960.8,190.7c-2.8,0-5,2.2-5,5s2.2,5,5,5,5-2.2,5-5-2.2-5-5-5Z"/>
      <path class="st16" d="M3107.7,176.7h-136.9c6.8,3.6,11.5,10.8,11.5,19s-.2,3.8-.7,5.6l.7.2h114.7c-.5-1.8-.8-3.8-.8-5.8,0-8.3,4.7-15.4,11.5-19Z"/>
      <path class="st17" d="M3052.6,67.8v31.2c0,2.8,2.2,5,5,5h74.1c2.8,0,5-2.2,5-5v-31.2c0-2.8-2.2-5-5-5h-74.1c-2.8,0-5,2.2-5,5Z"/>
      <path d="M3096.3,195.7c0,2,.3,3.9.8,5.8,2.5,9.1,10.9,15.8,20.7,15.8s16.8-5.6,20-13.5c.3-.8.6-1.6.8-2.4.5-1.8.7-3.7.7-5.6,0-8.3-4.7-15.4-11.5-19h-20.1c-6.8,3.6-11.5,10.8-11.5,19ZM3112.8,195.7c0-2.8,2.2-5,5-5s5,2.2,5,5-2.2,5-5,5-5-2.2-5-5Z"/>
      <path d="M3107.7,176.7h20.1c-3-1.6-6.4-2.5-10.1-2.5s-7,.9-10,2.5Z"/>
      <path class="st14" d="M3117.8,190.7c-2.8,0-5,2.2-5,5s2.2,5,5,5,5-2.2,5-5-2.2-5-5-5Z"/>
      <path class="st16" d="M3149.9,176.7h-22.1c6.8,3.6,11.5,10.8,11.5,19s-.2,3.8-.7,5.6l.7.2h10.6v-24.8Z"/>
      <rect class="st18" x="3149.9" y="176.7" width="77.2" height="24.8"/>
      <rect class="st12" x="3149.9" y="169.7" width="77.2" height="7"/>
    </g>
    <g>
      <polyline class="st3" points="3227.2 .3 3227.2 52.8 3227.2 117.4 3227.2 169.7"/>
      <polyline class="st3" points="2085 136.6 2085 117.4 2085 52.8 2085 .3"/>
      <path class="st6" d="M3057.6,62.8h74.1c2.8,0,5,2.2,5,5v31.2c0,2.8-2.2,5-5,5h-74.1c-2.8,0-5-2.2-5-5v-31.2c0-2.8,2.2-5,5-5Z"/>
      <rect class="st5" x="2917.1" y="62.8" width="84.1" height="41.2" rx="5" ry="5"/>
      <path class="st5" d="M2807.9,62.8h74.1c2.8,0,5,2.2,5,5v31.2c0,2.8-2.2,5-5,5h-74.1c-2.8,0-5-2.2-5-5v-31.2c0-2.8,2.2-5,5-5Z"/>
      <rect class="st5" x="2574" y="62.8" width="84.1" height="41.2" rx="5" ry="5"/>
      <rect class="st5" x="2688.1" y="62.8" width="84.1" height="41.2" rx="5" ry="5"/>
      <path class="st5" d="M2466.5,62.5h74.1c2.8,0,5,2.2,5,5v31.2c0,2.8-2.2,5-5,5h-74.1c-2.8,0-5-2.2-5-5v-31.2c0-2.8,2.2-5,5-5Z"/>
      <path class="st5" d="M2353,62.5h74.1c2.8,0,5,2.2,5,5v31.2c0,2.8-2.2,5-5,5h-74.1c-2.8,0-5-2.2-5-5v-31.2c0-2.8,2.2-5,5-5Z"/>
      <path class="st2" d="M3127.8,176.7c6.8,3.6,11.5,10.8,11.5,19s-.2,3.8-.7,5.6c-.2.8-.5,1.6-.8,2.4-3.2,7.9-10.9,13.5-20,13.5s-18.2-6.7-20.7-15.8c-.5-1.8-.8-3.8-.8-5.8,0-8.3,4.7-15.4,11.5-19,3-1.6,6.4-2.5,10-2.5s7.1.9,10.1,2.5Z"/>
      <path class="st2" d="M2970.8,176.7c6.8,3.6,11.5,10.8,11.5,19s-.2,3.8-.7,5.6c-.2.8-.5,1.6-.8,2.4-3.2,7.9-10.9,13.5-20,13.5s-18.7-7.1-20.9-16.5c-.4-1.6-.6-3.3-.6-5,0-8.3,4.7-15.4,11.5-19,3-1.6,6.4-2.5,10-2.5s7.1.9,10.1,2.5Z"/>
      <polyline class="st3" points="933.9 .3 933.9 52.8 933.9 117.4 933.9 169.7"/>
      <polyline class="st3" points="2076 136.6 2076 117.4 2076 52.8 2076 .3"/>
      <rect class="st5" x="1024.3" y="62.8" width="84.1" height="41.2" rx="5" ry="5"/>
      <path class="st5" d="M1238.9,62.8h-74.1c-2.8,0-5,2.2-5,5v31.2c0,2.8,2.2,5,5,5h74.1c2.8,0,5-2.2,5-5v-31.2c0-2.8-2.2-5-5-5Z"/>
      <rect class="st5" x="1274.1" y="62.8" width="84.1" height="41.2" rx="5" ry="5"/>
      <rect class="st5" x="1502.9" y="62.8" width="84.1" height="41.2" rx="5" ry="5"/>
      <path class="st5" d="M1468,62.8h-74.1c-2.8,0-5,2.2-5,5v31.2c0,2.8,2.2,5,5,5h74.1c2.8,0,5-2.2,5-5v-31.2c0-2.8-2.2-5-5-5Z"/>
      <path class="st5" d="M1694.6,62.5h-74.1c-2.8,0-5,2.2-5,5v31.2c0,2.8,2.2,5,5,5h74.1c2.8,0,5-2.2,5-5v-31.2c0-2.8-2.2-5-5-5Z"/>
      <path class="st5" d="M1808,62.5h-74.1c-2.8,0-5,2.2-5,5v31.2c0,2.8,2.2,5,5,5h74.1c2.8,0,5-2.2,5-5v-31.2c0-2.8-2.2-5-5-5Z"/>
      <path class="st2" d="M1033.2,176.7c-6.8,3.6-11.5,10.8-11.5,19s.2,3.8.7,5.6c.2.8.5,1.6.8,2.4,3.2,7.9,10.9,13.5,20,13.5s18.2-6.7,20.7-15.8c.5-1.8.8-3.8.8-5.8,0-8.3-4.6-15.4-11.5-19-3-1.6-6.4-2.5-10.1-2.5s-7.1.9-10.1,2.5Z"/>
      <path class="st2" d="M1190.2,176.7c-6.8,3.6-11.5,10.8-11.5,19s.2,3.8.7,5.6c.2.8.5,1.6.8,2.4,3.2,7.9,10.9,13.5,20,13.5s18.7-7.1,20.9-16.5c.4-1.6.6-3.3.6-5,0-8.3-4.6-15.4-11.5-19-3-1.6-6.4-2.5-10.1-2.5s-7.1.9-10.1,2.5Z"/>
      <path class="st2" d="M2032.9,201.5c.5-1.8.8-3.8.8-5.8,0-11.9-9.6-21.5-21.5-21.5s-21.5,9.6-21.5,21.5.3,3.9.8,5.8c.2.8.4,1.5.7,2.2,3.2,7.9,10.9,13.5,20,13.5s18.2-6.7,20.8-15.8Z"/>
      <path class="st2" d="M2169.9,201.5c.5-1.8.8-3.8.8-5.8,0-11.9-9.6-21.5-21.5-21.5s-21.5,9.6-21.5,21.5.3,3.9.8,5.8c.2.8.4,1.5.7,2.2,3.2,7.9,10.9,13.5,20,13.5s18.2-6.7,20.8-15.8Z"/>
    </g>
  </g>
  <g id="left-loco">
    <g>
      <path class="st10" d="M351.7,122c-3.1-1.1-6.3-2.2-9.5-3.2v-59c0-3.9-3.1-7-7-7h587v64.9h-286v36.5h-202.8c-20.5-9.1-49.1-20.9-81.7-32.1ZM561.5,124.3c.4,0,.8,0,.8-.6,0-2.2-1.9-4.9-4.1-5.6-4.5-1.3-8.4.5-9.8,5-.3,1-.1,1.2.9,1.2,2,0,4,0,6,0s4.1,0,6.1,0Z"/>
      <rect class="st18" x="882.8" y="176.7" width="39.4" height="24.8"/>
      <path class="st12" d="M922.2,169.7v7h-39.4l-13.2,4.7h-19.3c-3.9-4.4-9.7-7.2-16.1-7.2s-12.3,2.8-16.2,7.3l-105.4.3c-3.9-4.7-9.9-7.6-16.4-7.6s-12.6,3-16.5,7.7h-8.5s-301.9,0-301.9,0h-94.9v-12.2h647.8Z"/>
      <polygon class="st11" points="636.3 154.2 636.3 117.7 922.2 117.7 922.2 169.7 636.3 169.7 636.3 154.2"/>
      <path class="st13" d="M922.2,42.3v10.5H274.4s-.2-4.5-.3-10.5h648.1Z"/>
      <polygon class="st13" points="922.2 34.3 922.2 42.3 403 42.3 403 37.4 403 34.3 554.3 34.3 725.1 34.3 922.2 34.3"/>
      <path class="st13" d="M922.2.2v34h-197.1V.2h13.3s-1,18.5,10.5,18.5l32,.2s10.9,1.8,10.9-18.7h130.5Z"/>
      <path d="M850.4,181.4c3.4,3.8,5.4,8.8,5.4,14.3,0,11.9-9.7,21.5-21.5,21.5s-16.8-5.6-20-13.6c-.3-.7-.5-1.5-.8-2.2-.5-1.8-.8-3.8-.8-5.8,0-5.4,2-10.4,5.3-14.2h32.3ZM839.3,195.7c0-2.8-2.2-5-5-5s-5,2.2-5,5,2.2,5,5,5,5-2.2,5-5Z"/>
      <path class="st12" d="M850.4,181.4h-32.3c3.9-4.4,9.7-7.2,16.2-7.2s12.2,2.8,16.1,7.2Z"/>
      <path class="st14" d="M834.3,190.7c2.8,0,5,2.2,5,5s-2.2,5-5,5-5-2.2-5-5,2.2-5,5-5Z"/>
      <path class="st16" d="M712.7,181.8l105.4-.3c-3.3,3.8-5.3,8.7-5.3,14.2s.3,3.9.8,5.8h-96.5c.5-1.8.8-3.8.8-5.8,0-5.3-1.9-10.1-5.1-13.9Z"/>
      <rect class="st17" x="554.3" y="3.7" width="170.8" height="30.6"/>
      <path class="st13" d="M725.1.2v3.5h-170.8V.2h170.8Z"/>
      <path d="M717.8,195.7c0,2-.3,3.9-.8,5.8-2.5,9.1-10.9,15.8-20.8,15.8s-16.8-5.6-20-13.6c-1-2.5-1.5-5.2-1.5-8,0-5.2,1.9-10.1,5-13.8h33c3.2,3.6,5.1,8.5,5.1,13.8ZM701.3,195.7c0-2.8-2.2-5-5-5s-5,2.2-5,5,2.2,5,5,5,5-2.2,5-5Z"/>
      <path class="st12" d="M712.7,181.8h-33c3.9-4.6,9.9-7.6,16.5-7.6s12.5,3,16.4,7.6Z"/>
      <path class="st14" d="M696.3,190.7c2.8,0,5,2.2,5,5s-2.2,5-5,5-5-2.2-5-5,2.2-5,5-5Z"/>
      <polygon class="st18" points="671.2 181.9 659 201.5 383.1 201.5 369.3 181.9 671.2 181.9"/>
      <path class="st10" d="M636.3,154.2v15.5h-169.4s-12.6-6.3-33.4-15.5h202.8Z"/>
      <path class="st10" d="M562.3,123.7c0,.7-.4.6-.8.6-2,0-4.1,0-6.1,0s-4,0-6,0c-1,0-1.2-.2-.9-1.2,1.3-4.5,5.3-6.4,9.8-5,2.2.6,4,3.4,4.1,5.6Z"/>
      <rect class="st17" x="403" y="3.7" width="151.3" height="30.6"/>
      <path class="st13" d="M554.3.2v3.5h-151.3V.2h151.3Z"/>
      <path class="st13" d="M403,37.4v4.9h-128.9c0-1.5,0-3.2,0-4.9h128.8Z"/>
      <path class="st13" d="M403,34.3v3.1h-128.8c.2-9.4,1.1-20.3,4.2-24.3C298.8,5.1,314.9.2,324.3.2h78.8v34ZM394.1,32.9V3.7h-50.1l-20,29.2h70.1Z"/>
      <polygon class="st17" points="394.1 3.7 394.1 32.9 324 32.9 344 3.7 394.1 3.7"/>
      <path d="M318.5,201.5c-.5-1.8-.8-3.8-.8-5.8,0-5.2,1.9-10,5-13.8h33.2c3.1,3.8,4.9,8.6,4.9,13.8,0,11.9-9.7,21.5-21.5,21.5s-16.8-5.6-20-13.6c-.3-.7-.5-1.5-.8-2.2ZM343.6,195.7c0-2.8-2.2-5-5-5s-5,2.2-5,5,2.2,5,5,5,5-2.2,5-5Z"/>
      <path class="st14" d="M338.6,190.7c2.8,0,5,2.2,5,5s-2.2,5-5,5-5-2.2-5-5,2.2-5,5-5Z"/>
      <rect x="314.8" y="148.3" width="27.4" height="4"/>
      <path class="st9" d="M342.2,118.8v20c0,3.9-3.1,7-7,7h-13.4c-3.5,0-6.4-2.5-6.9-5.8h7.3c2.8,0,5-2.2,5-5v-8.5c0-2.8-2.2-5-5-5h-7.4v-11.3c9.3,2.8,18.5,5.7,27.4,8.7Z"/>
      <path class="st10" d="M342.2,59.8v59c-8.9-3-18.1-5.9-27.4-8.7v-7.6h7.4c2.8,0,5-2.2,5-5v-8.5c0-2.8-2.2-5-5-5h-7.4v-24.3c0-3.9,3.1-7,7-7h13.4c3.9,0,7,3.1,7,7Z"/>
      <rect x="319.8" y="158.4" width="19.4" height="8.1"/>
      <path class="st9" d="M342.2,148.3h-27.4v4h27.4v-4ZM433.4,154.2c20.8,9.2,33.4,15.5,33.4,15.5h-190.5c-.6-.1-1.2-.3-1.9-.4v-70c10.5,2.5,20.9,5.2,31.2,8.1,3.1.9,6.2,1.8,9.2,2.7v29.8h.1c.5,3.3,3.4,5.8,6.9,5.8h13.4c3.9,0,7-3.1,7-7v-20c3.2,1.1,6.4,2.1,9.5,3.2,32.6,11.2,61.2,23.1,81.7,32.1ZM339.3,166.5v-8.1h-19.4v8.1h19.4Z"/>
      <path class="st9" d="M327.2,126.5v8.5c0,2.8-2.2,5-5,5h-7.3c0-.4-.1-.8-.1-1.2v-17.3h7.4c2.8,0,5,2.2,5,5Z"/>
      <path class="st10" d="M327.2,89.1v8.5c0,2.8-2.2,5-5,5h-7.4v-18.5h7.4c2.8,0,5,2.2,5,5Z"/>
      <path class="st16" d="M274.4,181.9h48.3c-3.1,3.7-5,8.5-5,13.8s.3,3.9.8,5.8h-114.9c.5-1.8.8-3.8.8-5.8,0-4.8-1.6-9.2-4.2-12.8v-.2c19.7-.5,44-.8,73.9-.8h.3Z"/>
      <path class="st10" d="M305.6,107.5c-10.2-2.9-20.7-5.7-31.2-8.1v-46.6h47.4c-3.9,0-7,3.1-7,7v50.4c-3.1-.9-6.1-1.8-9.2-2.7ZM295.7,80.2v-6.4c0-2.2-1.8-4-4-4h-9.3c-2.2,0-4,1.8-4,4v6.4c0,2.2,1.8,4,4,4h9.3c2.2,0,4-1.8,4-4Z"/>
      <rect x="278.4" y="69.8" width="17.3" height="14.4" rx="4" ry="4"/>
      <path class="st17" d="M274.4,169.7v12.2h-.3c-29.9,0-54.2.3-73.9.8-7.8.2-14.9.4-21.3.6l-4-22.8c10.6-.4,21.8-.4,33.3.2,7.8.4,15.8,1,23.9,1.8,13.6,1.5,27.7,3.6,42.2,6.7v.4Z"/>
      <path class="st9" d="M274.4,99.3v70c-14.6-3.1-28.7-5.3-42.2-6.7v-13c0-3.9-3.5-3.8-3.5-3.8h-16.2c-5.1,0-4.2,3.5-4.2,3.5v11.5c-11.6-.5-22.7-.6-33.4-.2-21.2.8-40.5,3.2-57.4,6.4l-1.7-5-13.3-38.5-7.3-21.3c21-10.6,46.1-15.3,73.3-16,.1,0,.2,0,.3,0,16.4-.4,33.5.8,50.9,3,18.1,2.3,36.6,5.9,54.8,10.2ZM266.9,114c0-.6-.4-1-1-1s-1,.4-1,1,.4,1,1,1,1-.5,1-1ZM266.9,142.6c0-.6-.4-1-1-1s-1,.4-1,1,.4,1,1,1,1-.4,1-1ZM261,121.5v-16.9h-25.1v16.9h25.1ZM118.9,139.2s19.1-1.9,15.7-10.9c-3.4-9-20.8,0-20.8,0l5.1,10.9Z"/>
      <path class="st10" d="M263.3,63.4c2.8,0,5.1,2.3,5.1,5.1s-2.3,5.1-5.1,5.1-5.1-2.3-5.1-5.1,2.3-5.1,5.1-5.1Z"/>
      <circle class="st10" cx="265.9" cy="58.4" r="1"/>
      <circle class="st10" cx="265.9" cy="86.3" r="1"/>
      <circle class="st9" cx="265.9" cy="114" r="1"/>
      <circle class="st9" cx="265.9" cy="142.6" r="1"/>
      <polygon class="st12" points="261 104.6 261 121.5 235.9 121.5 235.9 113.7 247.8 113.7 247.8 104.6 261 104.6"/>
      <path d="M249.5,86.9s.8,5.1-12.5,3.8c-4-.4-10.6-.6-17.3-1.5-12-1.6-24.5-5.3-24.5-16.2,0,0-.4-3.8,8.9-7,10.8-3.7,27.7-8.7,36.1-9.9s2.2-.3,3-.3c6.5,0,6.2,5.4,6.2,5.4v25.7ZM240.9,85.3v-23l-20.7,5.5v14l10.3,3.5h10.3ZM212.9,81.9v-14l-13.8,6.1,8.6,7.9h5.2Z"/>
      <rect class="st13" x="235.9" y="104.6" width="11.9" height="9.1"/>
      <polygon class="st17" points="240.9 62.3 240.9 85.3 230.5 85.3 220.2 81.9 220.2 67.9 240.9 62.3"/>
      <path class="st10" d="M243.3,55.8c-.8,0-1.8,0-3,.3v-.8c10.1-1.5,21.5-2.5,33.9-2.5h.3v46.6c-18.2-4.3-36.6-7.8-54.8-10.2h0c6.7.8,13.2,1,17.3,1.4,13.3,1.3,12.5-3.8,12.5-3.8v-25.7s.2-5.4-6.2-5.4ZM268.4,68.5c0-2.8-2.3-5.1-5.1-5.1s-5.1,2.3-5.1,5.1,2.3,5.1,5.1,5.1,5.1-2.3,5.1-5.1ZM266.9,58.4c0-.6-.4-1-1-1s-1,.4-1,1,.4,1,1,1,1-.4,1-1ZM266.9,86.3c0-.6-.4-1-1-1s-1,.4-1,1,.4,1,1,1,1-.4,1-1Z"/>
      <path class="st14" d="M232.2,149.6v13c-8.2-.9-16.2-1.5-23.9-1.8v-.2s0-11.3,0-11.3c0,0-.9-3.5,4.2-3.5h16.2s3.5-.1,3.5,3.8Z"/>
      <polygon class="st17" points="212.9 67.9 212.9 81.9 207.7 81.9 199.1 73.9 212.9 67.9"/>
      <path class="st10" d="M184.8,71.5s20.9-11.1,55.3-16.2v.8c-8.3,1.2-25.2,6.2-36,9.9-9.4,3.2-8.9,7-8.9,7,0,10.9,12.5,14.6,24.5,16.2h0c-17.4-2.1-34.5-3.3-50.9-2.9-.1,0-.2,0-.3,0h0c0,0,16.3-14.7,16.3-14.7Z"/>
      <path d="M203.6,201.5c-.2.8-.4,1.5-.8,2.2-3.2,7.9-10.9,13.6-20,13.6s-21.5-9.6-21.5-21.5,1.2-8.1,3.3-11.4v-.3c4.3-.2,9.1-.4,14.3-.6,6.4-.2,13.5-.5,21.3-.6v.2c2.7,3.6,4.2,8,4.2,12.8s-.3,3.9-.8,5.8ZM187.9,195.7c0-2.8-2.2-5-5-5s-5,2.2-5,5,2.2,5,5,5,5-2.2,5-5Z"/>
      <path class="st13" d="M240.1,55.3c-34.4,5.1-55.3,16.2-55.3,16.2l-16.3,14.7h0c-27.2.7-52.3,5.5-73.3,16h0c59.3-31.7,133.6-69.7,183.2-89.1-3.1,4.1-4,15-4.2,24.3,0,1.7,0,3.4,0,4.9,0,6,.3,10.5.3,10.5h-.3c-12.4,0-23.8,1-34,2.5Z"/>
      <path class="st14" d="M182.9,190.7c2.8,0,5,2.2,5,5s-2.2,5-5,5-5-2.2-5-5,2.2-5,5-5Z"/>
      <path class="st17" d="M174.9,160.5l4,22.8c-5.2.2-9.9.4-14.3.6-48.1,2.4-49.7,6.1-49.7,6.1h-3.4l-9.3-19.9c4.9-1.1,10.1-2.2,15.4-3.2,16.9-3.2,36.1-5.6,57.4-6.4Z"/>
      <path class="st14" d="M134.6,128.3c3.4,9-15.7,10.9-15.7,10.9l-5.1-10.9s17.5-9,20.8,0Z"/>
      <path class="st9" d="M115.8,161.9l1.7,5c-5.4,1-10.5,2.1-15.4,3.2-39.7,9.2-62.8,21.5-62.8,21.5,0,0-8.1-5.8-23.1-5.8S.3,183.3.3,154.2c0,0,41.4-23.5,94.9-52.1h0s7.3,21.3,7.3,21.3c0,0-27.6,4.6-23.8,16.9,3.8,12.3,6.8,21.5,6.8,21.5,0,0,1.9,11.6,30.2,0Z"/>
      <path class="st9" d="M102.5,123.5l13.3,38.5c-28.3,11.6-30.2,0-30.2,0,0,0-2.9-9.2-6.8-21.5-3.9-12.3,23.8-16.9,23.8-16.9Z"/>
      <polygon points="114.9 190.1 114.9 201.5 39.3 201.5 52.7 190.1 111.4 190.1 114.9 190.1"/>
      <path class="st17" d="M102.1,170.2l9.3,19.9h-58.8l-13.3,11.4v-9.8s23.1-12.3,62.8-21.5Z"/>
    </g>
    <g>
      <polyline class="st3" points="922.2 .2 922.2 34.3 922.2 42.3 922.2 52.8 922.2 117.7 922.2 169.7"/>
      <path class="st0" d="M274.4,52.8s-.2-4.5-.3-10.5c0-1.5,0-3.2,0-4.9.2-9.4,1.1-20.3,4.2-24.3"/>
      <polyline class="st0" points="117.5 166.9 115.8 161.9 102.5 123.5 95.2 102.2"/>
      <line class="st0" x1="111.4" y1="190.1" x2="102.1" y2="170.2"/>
      <path class="st0" d="M115.8,161.9c-28.3,11.6-30.2,0-30.2,0,0,0-2.9-9.2-6.8-21.5-3.9-12.3,23.8-16.9,23.8-16.9"/>
      <path class="st0" d="M113.7,128.3s17.5-9,20.8,0c3.4,9-15.7,10.9-15.7,10.9l-5.1-10.9Z"/>
      <path class="st0" d="M208.3,160.5v-11.3s-.9-3.5,4.2-3.5h16.2s3.5-.1,3.5,3.8v13"/>
      <path class="st1" d="M258.3,68.5c0-2.8,2.3-5.1,5.1-5.1s5.1,2.3,5.1,5.1-2.3,5.1-5.1,5.1-5.1-2.3-5.1-5.1Z"/>
      <polygon class="st0" points="394.1 3.7 344 3.7 324 32.9 394.1 32.9 394.1 3.7"/>
      <polyline class="st0" points="274.1 42.3 403 42.3 922.2 42.3"/>
      <polyline class="st0" points="403 .2 403 3.7 403 34.3 403 37.4 403 42.3"/>
      <polyline class="st0" points="274.2 37.4 274.2 37.4 403 37.4"/>
      <polyline class="st0" points="403 34.3 554.3 34.3 725.1 34.3 725.1 3.7 725.1 .2"/>
      <polyline class="st0" points="554.3 .2 554.3 3.7 554.3 34.3"/>
      <polyline class="st4" points="359.1 154.2 433.4 154.2 636.3 154.2 909.5 154.2"/>
      <path class="st2" d="M322.7,181.9c-3.1,3.7-5,8.5-5,13.8s.3,3.9.8,5.8c.2.8.5,1.5.8,2.2,3.2,7.9,10.9,13.6,20,13.6s21.5-9.6,21.5-21.5-1.9-10-4.9-13.7"/>
      <path class="st2" d="M164.6,184.3c-2.1,3.3-3.3,7.2-3.3,11.4,0,11.9,9.6,21.5,21.5,21.5s16.8-5.6,20-13.6c.3-.7.6-1.5.8-2.2.5-1.8.8-3.8.8-5.8,0-4.8-1.6-9.2-4.2-12.8"/>
      <path class="st2" d="M679.7,181.9c-3.1,3.7-5,8.5-5,13.8s.5,5.5,1.5,8c3.2,7.9,10.9,13.6,20,13.6s18.2-6.7,20.8-15.8c.5-1.8.8-3.8.8-5.8,0-5.3-1.9-10.1-5.1-13.9"/>
      <path class="st2" d="M818.1,181.5c-3.3,3.8-5.3,8.7-5.3,14.2s.3,3.9.8,5.8c.2.8.5,1.5.8,2.2,3.2,7.9,10.9,13.6,20,13.6s21.5-9.6,21.5-21.5-2.1-10.5-5.4-14.3"/>
      <polyline class="st0" points="174.9 160.5 178.9 183.4 178.9 183.4"/>
      <polyline class="st7" points="305.6 71.9 305.6 107.5 305.6 145.8"/>
      <polyline class="st7" points="351.7 71.9 351.7 122 351.7 145.8"/>
      <path class="st7" d="M314.8,138.8c0,.4,0,.8.1,1.2.5,3.3,3.4,5.8,6.9,5.8h13.4c3.9,0,7-3.1,7-7V59.8c0-3.9-3.1-7-7-7h-13.4c-3.9,0-7,3.1-7,7v24.3"/>
      <polyline class="st7" points="314.8 102.5 314.8 110.2 314.8 121.5"/>
      <path class="st7" d="M314.8,121.5h7.4c2.8,0,5,2.2,5,5v8.5c0,2.8-2.2,5-5,5h-7.4v-18.5Z"/>
      <path class="st7" d="M314.8,84.1h7.4c2.8,0,5,2.2,5,5v8.5c0,2.8-2.2,5-5,5h-7.4v-18.5Z"/>
    </g>
  </g>
</svg>