<svg id="Layer_1" data-name="Layer 1" xmlns="http://www.w3.org/2000/svg" viewBox="0 0 19.35 12.7"><defs><style>.cls-1{fill:#fff;}</style></defs><title>superliner-bedroom-white</title><path class="cls-1" d="M19.05,12.59V10.44a1.68,1.68,0,0,0-1.68-1.68H7a.71.71,0,0,0,0-.2A1.67,1.67,0,0,0,5.36,6.89H4A1.68,1.68,0,0,0,2.3,8.56h0a1.07,1.07,0,0,0,.06.31,1.68,1.68,0,0,0-1.07,1.56v1.77H1.07V3.65H.33v12.7h.74V13H18a.93.93,0,0,1,.93.92v2.47h.74V13.88A1.66,1.66,0,0,0,19.05,12.59ZM7.66,9.51v2.7H6.08V9.51ZM3.05,8.56A.92.92,0,0,1,4,7.64H5.36a.92.92,0,0,1,.92.93.11.11,0,0,1-.11.11h-3a.11.11,0,0,1-.11-.11ZM2,10.44A.93.93,0,0,1,3,9.51H5.33v2.7H2Zm6.37,1.77V9.51h9a.92.92,0,0,1,.93.93v1.77H8.41Z" transform="translate(-0.33 -3.65)"/></svg>