<?xml version="1.0" encoding="iso-8859-1"?>
<!-- Uploaded to: SVG Repo, www.svgrepo.com, Generator: SVG Repo Mixer Tools -->
<svg fill="#FFF" height="800px" width="800px" version="1.1" id="Layer_1" xmlns="http://www.w3.org/2000/svg" xmlns:xlink="http://www.w3.org/1999/xlink" 
	 viewBox="0 0 512 512" xml:space="preserve">
<g>
	<g>
		<path d="M442.519,292.693c-3.413-3.413-8.533-3.413-11.947,0l-17.067,17.067c-3.413,3.413-3.413,8.533,0,11.947
			c1.707,1.707,4.267,2.56,5.973,2.56c2.56,0,4.267-0.853,5.973-2.56l17.067-17.067
			C445.933,301.227,445.933,296.107,442.519,292.693z"/>
	</g>
</g>
<g>
	<g>
		<path d="M462.146,341.333h-25.6c-5.12,0-8.533,3.413-8.533,8.533s3.413,8.533,8.533,8.533h25.6c5.12,0,8.533-3.413,8.533-8.533
			C470.679,345.6,467.266,341.333,462.146,341.333z"/>
	</g>
</g>
<g>
	<g>
		<path d="M442.519,395.093l-17.067-17.067c-3.413-3.413-8.533-3.413-11.947,0c-3.413,3.413-3.413,8.533,0,11.947l17.067,17.067
			c1.707,1.707,4.267,2.56,5.973,2.56c2.56,0,4.267-0.853,5.973-2.56C445.933,403.627,445.933,398.507,442.519,395.093z"/>
	</g>
</g>
<g>
	<g>
		<path d="M404.119,401.92c-0.853-1.707-3.413-3.413-5.12-3.413L163.479,358.4v-68.267h119.467v34.133
			c0,3.413,1.707,5.973,5.12,7.68l17.067,8.533c3.413,1.707,6.827,0.853,10.24-1.707l11.093-11.093l11.093,11.093
			c1.707,1.707,3.413,2.56,5.973,2.56c1.707,0,2.56,0,3.413-0.853l17.067-8.533c2.56-1.707,5.12-4.267,5.12-7.68v-34.133h25.6
			c5.12,0,8.533-3.413,8.533-8.533v-68.267c0-5.12-3.413-8.533-8.533-8.533h-25.6v-59.733h25.6c5.12,0,8.533-3.413,8.533-8.533
			V68.267c0-5.12-3.413-8.533-8.533-8.533h-25.6v-51.2c0-5.12-3.413-8.533-8.533-8.533h-68.267c-5.12,0-8.533,3.413-8.533,8.533
			v51.2h-120.32v-51.2c0-5.12-3.413-8.533-8.533-8.533H86.679c-4.267,0-8.533,4.267-8.533,8.533v51.2h-25.6
			c-4.267,0-8.533,4.267-8.533,8.533v68.267c0,5.12,3.413,8.533,8.533,8.533h25.6V204.8h-25.6c-5.12,0-8.533,3.413-8.533,8.533
			V281.6c0,5.12,3.413,8.533,8.533,8.533h25.6v53.76l-16.213-2.56c-2.56,0-4.267,0-5.973,1.707c-2.56,0.853-3.413,3.413-3.413,5.12
			l-11.093,67.413c-0.853,4.267,2.56,9.387,6.827,10.24l29.867,5.12v72.533c0,5.12,3.413,8.533,8.533,8.533h68.267
			c5.12,0,8.533-3.413,8.533-8.533v-58.88l119.467,19.627v39.253c0,5.12,3.413,8.533,8.533,8.533h68.267
			c5.12,0,8.533-3.413,8.533-8.533V478.72l16.213,2.56c0.853,0,0.853,0,1.707,0c4.267,0,7.68-2.56,8.533-6.827l11.093-66.56
			C405.826,405.333,405.826,403.627,404.119,401.92z M300.013,17.067h51.2v42.667h-51.2V17.067z M334.146,102.4
			c0,5.12-3.413,8.533-8.533,8.533s-8.533-3.413-8.533-8.533s3.413-8.533,8.533-8.533S334.146,98.133,334.146,102.4z
			 M300.013,145.067h51.2V204.8h-51.2V145.067z M334.146,247.467c0,5.12-3.413,8.533-8.533,8.533s-8.533-3.413-8.533-8.533
			s3.413-8.533,8.533-8.533S334.146,243.2,334.146,247.467z M300.013,290.133h51.2v29.013l-6.827,3.413l-12.8-12.8
			c-1.707-1.707-3.413-2.56-5.973-2.56s-4.267,0.853-5.973,2.56l-12.8,12.8l-6.827-3.413V290.133z M163.479,145.067h119.467V204.8
			H163.479V145.067z M146.412,494.933h-51.2v-61.44l51.2,8.533V494.933z M112.279,392.533c0-5.12,3.413-8.533,8.533-8.533
			s8.533,3.413,8.533,8.533c0,5.12-3.413,8.533-8.533,8.533S112.279,397.653,112.279,392.533z M146.412,355.84l-34.133-5.973
			l-17.067-2.56v-57.173h51.2V355.84z M112.279,247.467c0-5.12,3.413-8.533,8.533-8.533s8.533,3.413,8.533,8.533
			S125.932,256,120.812,256S112.279,252.587,112.279,247.467z M146.412,204.8h-51.2v-59.733h51.2V204.8z M112.279,102.4
			c0-5.12,3.413-8.533,8.533-8.533s8.533,3.413,8.533,8.533s-3.413,8.533-8.533,8.533S112.279,107.52,112.279,102.4z
			 M146.412,59.733h-51.2V17.067h51.2V59.733z M325.612,420.693c5.12,0,8.533,3.413,8.533,8.533s-3.413,8.533-8.533,8.533
			s-8.533-3.413-8.533-8.533S321.346,420.693,325.612,420.693z M351.213,494.933h-51.2v-27.307l11.947,1.707l39.253,6.827V494.933z"
			/>
	</g>
</g>
</svg>