<?xml version="1.0" standalone="no"?>
<!DOCTYPE svg PUBLIC "-//W3C//DTD SVG 20010904//EN"
 "http://www.w3.org/TR/2001/REC-SVG-20010904/DTD/svg10.dtd">
<svg version="1.0" xmlns="http://www.w3.org/2000/svg"
 width="785.000000pt" height="785.000000pt" viewBox="0 0 785.000000 785.000000"
 preserveAspectRatio="xMidYMid meet">
<metadata>
Created by potrace 1.14, written by Peter Selinger 2001-2017
</metadata>
<g transform="translate(0.000000,785.000000) scale(0.100000,-0.100000)"
fill="#000000" stroke="none">
<path d="M4875 7494 c-22 -2 -98 -9 -170 -14 -490 -41 -1048 -170 -1580 -367
-146 -54 -203 -90 -262 -168 -100 -132 -116 -191 -213 -750 -44 -258 -83 -482
-86 -497 l-5 -27 -66 45 c-169 116 -417 205 -666 239 l-47 6 0 230 0 229 -254
0 c-211 0 -256 -2 -266 -15 -9 -11 -11 -69 -9 -224 3 -180 2 -212 -12 -226 -8
-8 -55 -22 -103 -31 -230 -40 -467 -153 -623 -298 -200 -185 -322 -459 -340
-762 -19 -320 129 -645 372 -819 167 -120 458 -225 950 -345 227 -55 378 -105
415 -137 101 -84 93 -259 -15 -320 -81 -45 -348 -67 -492 -40 -194 37 -336
153 -414 336 -24 56 -32 66 -51 63 -43 -5 -893 -163 -915 -170 l-23 -7 38
-110 c171 -491 513 -792 1031 -904 47 -11 107 -22 134 -26 l47 -6 0 -224 c0
-190 2 -226 16 -239 13 -14 51 -16 265 -16 l249 0 0 225 c0 267 -5 255 116
274 211 34 437 109 575 191 37 22 70 40 73 40 3 0 6 -35 6 -78 0 -53 13 -142
42 -278 l41 -199 7 -365 c8 -406 23 -533 82 -700 17 -47 33 -108 35 -137 l5
-52 94 -3 95 -3 82 -175 83 -175 82 -3 82 -3 25 -49 25 -50 1870 0 1870 0 25
50 25 49 82 3 82 3 83 175 82 175 95 3 94 3 5 52 c2 29 18 90 35 137 59 167
74 294 82 700 l7 365 41 199 42 200 0 1572 0 1572 -91 524 c-106 616 -121 670
-222 803 -59 78 -116 114 -262 168 -512 189 -1006 307 -1520 362 -141 16 -776
29 -880 19z m805 -2119 l0 -165 -480 0 -480 0 0 165 0 165 480 0 480 0 0 -165z
m2130 -1375 l0 -1470 -2610 0 -2610 0 0 63 0 62 78 66 c411 347 503 977 207
1418 -50 75 -175 202 -243 246 l-42 28 0 291 0 292 46 12 c26 7 48 11 50 9 2
-2 36 -154 74 -337 62 -292 74 -340 102 -383 63 -99 189 -169 400 -222 73 -18
539 -124 1036 -234 l902 -201 902 201 c497 110 964 216 1038 235 224 56 365
142 417 254 11 25 70 285 134 592 63 302 115 548 117 548 1 0 2 -661 2 -1470z
m-6036 1157 c127 -47 222 -131 282 -249 14 -27 31 -51 38 -54 11 -4 246 65
429 126 l27 9 0 -280 0 -279 -47 24 c-102 51 -167 70 -841 251 -335 89 -383
106 -416 146 -32 38 -50 102 -42 152 22 135 134 190 371 183 109 -3 141 -8
199 -29z m3213 -929 c65 -19 123 -121 109 -192 -18 -90 -97 -156 -187 -156
-159 0 -239 198 -125 309 57 56 113 67 203 39z m584 -4 c40 -20 87 -80 95
-119 30 -160 -125 -277 -267 -202 -61 33 -105 115 -95 181 19 127 153 197 267
140z"/>
<path d="M3405 3611 c-47 -21 -99 -70 -122 -114 -9 -18 -18 -61 -21 -97 -3
-53 0 -76 18 -118 93 -216 414 -188 471 41 29 118 -35 246 -147 293 -48 20
-151 17 -199 -5z m156 -53 c90 -30 134 -96 127 -189 -12 -163 -207 -228 -315
-106 -88 100 -51 248 74 292 47 17 71 18 114 3z"/>
<path d="M6794 3616 c-45 -20 -102 -74 -125 -118 -99 -194 82 -416 292 -355
116 34 185 134 177 257 -3 36 -12 79 -21 97 -23 44 -75 93 -122 114 -48 22
-155 25 -201 5z m148 -56 c131 -37 176 -194 85 -297 -78 -89 -210 -83 -283 13
-56 73 -39 201 33 252 57 39 104 48 165 32z"/>
</g>
</svg>
