<svg id="Layer_1" data-name="Layer 1" xmlns="http://www.w3.org/2000/svg" viewBox="0 0 18.71 13.22"><defs><style>.cls-1{fill:#fff;}</style></defs><title>superliner-familybedroom-white</title><path class="cls-1" d="M19.31,16.71a9.21,9.21,0,0,0-1.1-3.49,5.14,5.14,0,0,0-2.91-2.53,3.58,3.58,0,0,0,2.11-3.25v0a3.58,3.58,0,1,0-5.07,3.26A4.93,4.93,0,0,0,10,12.37a5,5,0,0,0-2.34-1.68,3.57,3.57,0,0,0,2.1-3.25v0a3.58,3.58,0,1,0-5.07,3.26,5.16,5.16,0,0,0-2.93,2.54A9,9,0,0,0,.65,16.71v.36h18.7ZM10.8,7.43a3,3,0,1,1,6.06,0h0a3,3,0,1,1-6.06,0Zm-7.67,0a3,3,0,1,1,6.06,0h0a3,3,0,1,1-6.06,0Zm-1.87,9a8.74,8.74,0,0,1,.92-2.82,4.34,4.34,0,0,1,4-2.46,4.31,4.31,0,0,1,4,2.46,8.47,8.47,0,0,1,1,2.82Zm10.33,0a9.09,9.09,0,0,0-1.05-3.19,3.87,3.87,0,0,0-.21-.34,4.15,4.15,0,0,1,3.49-1.75,4.31,4.31,0,0,1,4,2.46,8.62,8.62,0,0,1,.95,2.82Z" transform="translate(-0.65 -3.85)"/></svg>