<svg id="Layer_1" data-name="Layer 1" xmlns="http://www.w3.org/2000/svg" viewBox="0 0 17.81 8.96"><defs><style>.cls-1{fill:#fff;}</style></defs><title>viewliner-roomette-white</title><path class="cls-1" d="M17.8,13V9.68a2.27,2.27,0,0,0-2.27-2.27H12.58a2.27,2.27,0,0,0-2.27,2.27v3.26H9.68V9.68A2.27,2.27,0,0,0,7.42,7.41H4.47A2.27,2.27,0,0,0,2.2,9.68V13A1.15,1.15,0,0,0,1.1,14.1v2.27h.84V14.1a.32.32,0,0,1,.32-.31H17.74a.31.31,0,0,1,.31.31v2.27h.85V14.1A1.15,1.15,0,0,0,17.8,13ZM11.16,9.68a1.42,1.42,0,0,1,1.42-1.42h2.95A1.42,1.42,0,0,1,17,9.68v2.89h-.11a1.54,1.54,0,0,0-1.31-.74H12.58a1.54,1.54,0,0,0-1.31.74h-.11Zm1.42,3h2.95a.68.68,0,0,1,.53.26h-4A.68.68,0,0,1,12.58,12.68Zm-9.53-3A1.42,1.42,0,0,1,4.47,8.26h3A1.42,1.42,0,0,1,8.84,9.68v2.89H8.73a1.55,1.55,0,0,0-1.31-.74H4.47a1.54,1.54,0,0,0-1.31.74H3.05ZM8,12.94h-4a.68.68,0,0,1,.53-.26h3A.68.68,0,0,1,8,12.94Z" transform="translate(-1.1 -7.41)"/></svg>